G04 Layer: TopSolderMaskLayer*
G04 EasyEDA v6.4.19.5, 2021-04-28T11:36:21--3:00*
G04 a7b3d4a08c6744a69a75d88212847143,e32968b322094deeae1279e20ae9dd51,10*
G04 Gerber Generator version 0.2*
G04 Scale: 100 percent, Rotated: No, Reflected: No *
G04 Dimensions in millimeters *
G04 leading zeros omitted , absolute positions ,4 integer and 5 decimal *
%FSLAX45Y45*%
%MOMM*%

%ADD44C,2.2032*%
%ADD45C,3.2032*%
%ADD46C,1.6256*%
%ADD47C,2.7032*%
%ADD50C,1.9032*%
%ADD53C,1.7032*%
%ADD59C,2.0032*%
%ADD61C,1.7272*%
%ADD64C,1.8032*%
%ADD66C,1.7016*%

%LPD*%
D44*
X52398193Y6474604D02*
G01*
X52398193Y6524604D01*
X52144193Y6474604D02*
G01*
X52144193Y6524604D01*
D45*
G01*
X53983000Y-743280D03*
G01*
X54433012Y-733374D03*
G01*
X55305198Y-732993D03*
G01*
X55792090Y-745794D03*
G01*
X50779705Y7215606D03*
G01*
X51501598Y7228890D03*
G01*
X50100204Y3953814D03*
G01*
X50097410Y3484905D03*
G01*
X50100204Y3074212D03*
D46*
G01*
X50242038Y2024684D03*
G01*
X49212017Y2024684D03*
G01*
X50237821Y1775485D03*
G01*
X49207800Y1775485D03*
G01*
X50239625Y1517395D03*
G01*
X49209604Y1517395D03*
G01*
X50235231Y1250899D03*
G01*
X49205210Y1250899D03*
D47*
G01*
X52628495Y5474284D03*
G36*
X52878227Y5319013D02*
G01*
X52878227Y5629402D01*
X53078634Y5629402D01*
X53078634Y5319013D01*
G37*
G36*
X54109620Y5807710D02*
G01*
X54109620Y6117844D01*
X54310025Y6117844D01*
X54310025Y5807710D01*
G37*
G36*
X53609748Y5807710D02*
G01*
X53609748Y6117844D01*
X53810154Y6117844D01*
X53810154Y5807710D01*
G37*
G36*
X52541931Y6364478D02*
G01*
X52541931Y6634734D01*
X52762404Y6634734D01*
X52762404Y6364478D01*
G37*
D50*
G01*
X56216702Y498220D03*
G36*
X55862474Y1165097D02*
G01*
X55862474Y1355344D01*
X56062879Y1355344D01*
X56062879Y1165097D01*
G37*
G36*
X56116474Y1160018D02*
G01*
X56116474Y1360423D01*
X56316879Y1360423D01*
X56316879Y1160018D01*
G37*
G01*
X55962702Y1006220D03*
G01*
X56216702Y1006220D03*
D53*
G01*
X55962702Y752220D03*
D50*
G01*
X56216702Y752220D03*
G36*
X55862474Y398018D02*
G01*
X55862474Y598423D01*
X56062879Y598423D01*
X56062879Y398018D01*
G37*
D47*
G01*
X51131317Y1444320D03*
G36*
X50976022Y994155D02*
G01*
X50976022Y1194562D01*
X51286409Y1194562D01*
X51286409Y994155D01*
G37*
D44*
G01*
X53182596Y1437919D03*
G36*
X53027325Y987805D02*
G01*
X53027325Y1187957D01*
X53337714Y1187957D01*
X53337714Y987805D01*
G37*
D47*
G01*
X51913129Y5460517D03*
G36*
X51462940Y5305297D02*
G01*
X51462940Y5615686D01*
X51663346Y5615686D01*
X51663346Y5305297D01*
G37*
D44*
G01*
X54457904Y4702302D03*
G36*
X54007766Y4547107D02*
G01*
X54007766Y4857495D01*
X54207918Y4857495D01*
X54207918Y4547107D01*
G37*
G36*
X53982366Y6550913D02*
G01*
X53982366Y6971284D01*
X54402736Y6971284D01*
X54402736Y6550913D01*
G37*
G36*
X53474366Y6550913D02*
G01*
X53474366Y6971284D01*
X53894736Y6971284D01*
X53894736Y6550913D01*
G37*
G36*
X50972211Y4318000D02*
G01*
X50972211Y4488179D01*
X51282600Y4488179D01*
X51282600Y4318000D01*
G37*
G36*
X50972211Y3287013D02*
G01*
X50972211Y3487165D01*
X51282600Y3487165D01*
X51282600Y3287013D01*
G37*
G36*
X50972211Y3541013D02*
G01*
X50972211Y3741165D01*
X51282600Y3741165D01*
X51282600Y3541013D01*
G37*
G36*
X50972211Y3795013D02*
G01*
X50972211Y3995165D01*
X51282600Y3995165D01*
X51282600Y3795013D01*
G37*
G36*
X50972211Y4049013D02*
G01*
X50972211Y4249165D01*
X51282600Y4249165D01*
X51282600Y4049013D01*
G37*
G36*
X55290211Y652526D02*
G01*
X55290211Y852931D01*
X55600600Y852931D01*
X55600600Y652526D01*
G37*
G36*
X55290211Y2430526D02*
G01*
X55290211Y2630931D01*
X55600600Y2630931D01*
X55600600Y2430526D01*
G37*
G36*
X55290211Y2176526D02*
G01*
X55290211Y2376931D01*
X55600600Y2376931D01*
X55600600Y2176526D01*
G37*
G36*
X55345329Y1957578D02*
G01*
X55345329Y2087879D01*
X55545736Y2087879D01*
X55545736Y1957578D01*
G37*
G36*
X55345329Y1703578D02*
G01*
X55345329Y1833879D01*
X55545736Y1833879D01*
X55545736Y1703578D01*
G37*
G36*
X55290211Y1414526D02*
G01*
X55290211Y1614931D01*
X55600600Y1614931D01*
X55600600Y1414526D01*
G37*
G36*
X55290211Y1160526D02*
G01*
X55290211Y1360931D01*
X55600600Y1360931D01*
X55600600Y1160526D01*
G37*
G36*
X55290211Y906526D02*
G01*
X55290211Y1106931D01*
X55600600Y1106931D01*
X55600600Y906526D01*
G37*
G36*
X53512211Y3087370D02*
G01*
X53512211Y3287776D01*
X53822600Y3287776D01*
X53822600Y3087370D01*
G37*
G36*
X53512211Y4865370D02*
G01*
X53512211Y5065776D01*
X53822600Y5065776D01*
X53822600Y4865370D01*
G37*
G36*
X53512211Y4611370D02*
G01*
X53512211Y4811776D01*
X53822600Y4811776D01*
X53822600Y4611370D01*
G37*
G36*
X53512211Y4357370D02*
G01*
X53512211Y4557776D01*
X53822600Y4557776D01*
X53822600Y4357370D01*
G37*
G36*
X53512211Y4103370D02*
G01*
X53512211Y4303776D01*
X53822600Y4303776D01*
X53822600Y4103370D01*
G37*
G36*
X53512211Y3849370D02*
G01*
X53512211Y4049776D01*
X53822600Y4049776D01*
X53822600Y3849370D01*
G37*
G36*
X53512211Y3595370D02*
G01*
X53512211Y3795776D01*
X53822600Y3795776D01*
X53822600Y3595370D01*
G37*
G36*
X53512211Y3341370D02*
G01*
X53512211Y3541776D01*
X53822600Y3541776D01*
X53822600Y3341370D01*
G37*
G36*
X55290211Y4716779D02*
G01*
X55290211Y4916931D01*
X55600600Y4916931D01*
X55600600Y4716779D01*
G37*
G36*
X55290211Y2938779D02*
G01*
X55290211Y3138931D01*
X55600600Y3138931D01*
X55600600Y2938779D01*
G37*
G36*
X55290211Y3192779D02*
G01*
X55290211Y3392931D01*
X55600600Y3392931D01*
X55600600Y3192779D01*
G37*
G36*
X55290211Y3446779D02*
G01*
X55290211Y3646931D01*
X55600600Y3646931D01*
X55600600Y3446779D01*
G37*
G36*
X55290211Y3700779D02*
G01*
X55290211Y3900931D01*
X55600600Y3900931D01*
X55600600Y3700779D01*
G37*
G36*
X55290211Y3954779D02*
G01*
X55290211Y4154931D01*
X55600600Y4154931D01*
X55600600Y3954779D01*
G37*
G36*
X55290211Y4208779D02*
G01*
X55290211Y4408931D01*
X55600600Y4408931D01*
X55600600Y4208779D01*
G37*
G36*
X55290211Y4462779D02*
G01*
X55290211Y4662931D01*
X55600600Y4662931D01*
X55600600Y4462779D01*
G37*
G36*
X54780179Y4868163D02*
G01*
X54780179Y5068570D01*
X55090568Y5068570D01*
X55090568Y4868163D01*
G37*
G36*
X54780179Y3090163D02*
G01*
X54780179Y3290570D01*
X55090568Y3290570D01*
X55090568Y3090163D01*
G37*
G36*
X54780179Y3344163D02*
G01*
X54780179Y3544570D01*
X55090568Y3544570D01*
X55090568Y3344163D01*
G37*
G36*
X54780179Y3598163D02*
G01*
X54780179Y3798570D01*
X55090568Y3798570D01*
X55090568Y3598163D01*
G37*
G36*
X54780179Y3852163D02*
G01*
X54780179Y4052570D01*
X55090568Y4052570D01*
X55090568Y3852163D01*
G37*
G36*
X54780179Y4106163D02*
G01*
X54780179Y4306570D01*
X55090568Y4306570D01*
X55090568Y4106163D01*
G37*
G36*
X54780179Y4360163D02*
G01*
X54780179Y4560570D01*
X55090568Y4560570D01*
X55090568Y4360163D01*
G37*
G36*
X54780179Y4614163D02*
G01*
X54780179Y4814570D01*
X55090568Y4814570D01*
X55090568Y4614163D01*
G37*
G36*
X50484532Y1922779D02*
G01*
X50484532Y2123186D01*
X50754788Y2123186D01*
X50754788Y1922779D01*
G37*
G36*
X50484532Y144779D02*
G01*
X50484532Y345186D01*
X50754788Y345186D01*
X50754788Y144779D01*
G37*
G36*
X50484532Y398779D02*
G01*
X50484532Y599186D01*
X50754788Y599186D01*
X50754788Y398779D01*
G37*
G36*
X50484532Y652779D02*
G01*
X50484532Y853186D01*
X50754788Y853186D01*
X50754788Y652779D01*
G37*
G36*
X50484532Y906779D02*
G01*
X50484532Y1107186D01*
X50754788Y1107186D01*
X50754788Y906779D01*
G37*
G36*
X50484532Y1160779D02*
G01*
X50484532Y1361186D01*
X50754788Y1361186D01*
X50754788Y1160779D01*
G37*
G36*
X50484532Y1414779D02*
G01*
X50484532Y1615186D01*
X50754788Y1615186D01*
X50754788Y1414779D01*
G37*
G36*
X50484532Y1668779D02*
G01*
X50484532Y1869186D01*
X50754788Y1869186D01*
X50754788Y1668779D01*
G37*
G36*
X50464466Y4224020D02*
G01*
X50464466Y4394454D01*
X50774854Y4394454D01*
X50774854Y4224020D01*
G37*
G36*
X50464466Y2431034D02*
G01*
X50464466Y2631439D01*
X50774854Y2631439D01*
X50774854Y2431034D01*
G37*
G36*
X50464466Y2685034D02*
G01*
X50464466Y2885439D01*
X50774854Y2885439D01*
X50774854Y2685034D01*
G37*
G36*
X50464466Y2939034D02*
G01*
X50464466Y3139439D01*
X50774854Y3139439D01*
X50774854Y2939034D01*
G37*
G36*
X50464466Y3193034D02*
G01*
X50464466Y3393439D01*
X50774854Y3393439D01*
X50774854Y3193034D01*
G37*
G36*
X50464466Y3447034D02*
G01*
X50464466Y3647439D01*
X50774854Y3647439D01*
X50774854Y3447034D01*
G37*
G36*
X50464466Y3701034D02*
G01*
X50464466Y3901439D01*
X50774854Y3901439D01*
X50774854Y3701034D01*
G37*
G36*
X50464466Y3955034D02*
G01*
X50464466Y4155439D01*
X50774854Y4155439D01*
X50774854Y3955034D01*
G37*
G36*
X53002179Y4359655D02*
G01*
X53002179Y4560062D01*
X53312568Y4560062D01*
X53312568Y4359655D01*
G37*
G36*
X53002179Y3597655D02*
G01*
X53002179Y3798062D01*
X53312568Y3798062D01*
X53312568Y3597655D01*
G37*
G36*
X53002179Y3851655D02*
G01*
X53002179Y4052062D01*
X53312568Y4052062D01*
X53312568Y3851655D01*
G37*
G36*
X53002179Y4105655D02*
G01*
X53002179Y4306062D01*
X53312568Y4306062D01*
X53312568Y4105655D01*
G37*
G36*
X56333136Y2753105D02*
G01*
X56333136Y2953512D01*
X56643524Y2953512D01*
X56643524Y2753105D01*
G37*
D59*
G01*
X56488304Y4123283D03*
G36*
X56333136Y3769105D02*
G01*
X56333136Y3969512D01*
X56643524Y3969512D01*
X56643524Y3769105D01*
G37*
G36*
X56333136Y3545078D02*
G01*
X56333136Y3685539D01*
X56643524Y3685539D01*
X56643524Y3545078D01*
G37*
G36*
X56333136Y3291078D02*
G01*
X56333136Y3431539D01*
X56643524Y3431539D01*
X56643524Y3291078D01*
G37*
G36*
X56333136Y3007105D02*
G01*
X56333136Y3207512D01*
X56643524Y3207512D01*
X56643524Y3007105D01*
G37*
G36*
X55291736Y5123179D02*
G01*
X55291736Y5323586D01*
X55602124Y5323586D01*
X55602124Y5123179D01*
G37*
G36*
X55291736Y7409179D02*
G01*
X55291736Y7609586D01*
X55602124Y7609586D01*
X55602124Y7409179D01*
G37*
G36*
X55291736Y7155179D02*
G01*
X55291736Y7355586D01*
X55602124Y7355586D01*
X55602124Y7155179D01*
G37*
G36*
X55291736Y6901179D02*
G01*
X55291736Y7101586D01*
X55602124Y7101586D01*
X55602124Y6901179D01*
G37*
G36*
X55291736Y6647179D02*
G01*
X55291736Y6847586D01*
X55602124Y6847586D01*
X55602124Y6647179D01*
G37*
G36*
X55291736Y6393179D02*
G01*
X55291736Y6593586D01*
X55602124Y6593586D01*
X55602124Y6393179D01*
G37*
G36*
X55291736Y6139179D02*
G01*
X55291736Y6339586D01*
X55602124Y6339586D01*
X55602124Y6139179D01*
G37*
G36*
X55291736Y5885179D02*
G01*
X55291736Y6085586D01*
X55602124Y6085586D01*
X55602124Y5885179D01*
G37*
G36*
X55291736Y5631179D02*
G01*
X55291736Y5831586D01*
X55602124Y5831586D01*
X55602124Y5631179D01*
G37*
G36*
X55291736Y5377179D02*
G01*
X55291736Y5577586D01*
X55602124Y5577586D01*
X55602124Y5377179D01*
G37*
G36*
X54329584Y2272792D02*
G01*
X54329584Y2583179D01*
X54529736Y2583179D01*
X54529736Y2272792D01*
G37*
G36*
X53567584Y2272792D02*
G01*
X53567584Y2583179D01*
X53767736Y2583179D01*
X53767736Y2272792D01*
G37*
G36*
X53821584Y2272792D02*
G01*
X53821584Y2583179D01*
X54021736Y2583179D01*
X54021736Y2272792D01*
G37*
G36*
X54075584Y2272792D02*
G01*
X54075584Y2583179D01*
X54275736Y2583179D01*
X54275736Y2272792D01*
G37*
D61*
G01*
X51126313Y1920417D03*
G36*
X54850029Y1834134D02*
G01*
X54850029Y2006854D01*
X55022750Y2006854D01*
X55022750Y1834134D01*
G37*
G01*
X54682313Y1920417D03*
G01*
X54428313Y1920417D03*
G01*
X54174313Y1920417D03*
G01*
X53920313Y1920417D03*
G01*
X53666313Y1920417D03*
G01*
X53412313Y1920417D03*
G01*
X53158313Y1920417D03*
G01*
X52904313Y1920417D03*
G01*
X52650313Y1920417D03*
G01*
X52396313Y1920417D03*
G01*
X52142313Y1920417D03*
G01*
X51888313Y1920417D03*
G01*
X51634313Y1920417D03*
G01*
X51380313Y1920417D03*
G01*
X51128802Y651611D03*
G36*
X54852316Y565150D02*
G01*
X54852316Y737870D01*
X55025036Y737870D01*
X55025036Y565150D01*
G37*
G01*
X54684802Y651611D03*
G01*
X54430802Y651611D03*
G01*
X54176802Y651611D03*
G01*
X53922802Y651611D03*
G01*
X53668802Y651611D03*
G01*
X53414802Y651611D03*
G01*
X53160802Y651611D03*
G01*
X52906802Y651611D03*
G01*
X52652802Y651611D03*
G01*
X52398802Y651611D03*
G01*
X52144802Y651611D03*
G01*
X51890802Y651611D03*
G01*
X51636802Y651611D03*
G01*
X51382802Y651611D03*
G36*
X51017170Y-144271D02*
G01*
X51017170Y125984D01*
X51237641Y125984D01*
X51237641Y-144271D01*
G37*
G36*
X55355236Y-353313D02*
G01*
X55355236Y-172973D01*
X55535575Y-172973D01*
X55535575Y-353313D01*
G37*
D64*
G01*
X55445406Y-9067D03*
G01*
X55191406Y-263067D03*
G01*
X55191406Y-9067D03*
G01*
X54937406Y-263067D03*
G01*
X54937406Y-9067D03*
G01*
X54683406Y-263067D03*
G01*
X54683406Y-9067D03*
G01*
X54429406Y-263067D03*
G01*
X54429406Y-9067D03*
G01*
X54175406Y-263067D03*
G01*
X54175406Y-9067D03*
G01*
X53921406Y-263067D03*
G01*
X53921406Y-9067D03*
G01*
X53667406Y-263067D03*
G01*
X53667406Y-9067D03*
G01*
X53413406Y-263067D03*
G01*
X53413406Y-9067D03*
G01*
X53159406Y-263067D03*
G01*
X53159406Y-9067D03*
G01*
X52905406Y-263067D03*
G01*
X52905406Y-9067D03*
G01*
X52651406Y-263067D03*
G01*
X52651406Y-9067D03*
G01*
X52397406Y-263067D03*
G01*
X52397406Y-9067D03*
G01*
X52143406Y-263067D03*
G01*
X52143406Y-9067D03*
G01*
X51889406Y-263067D03*
G01*
X51889406Y-9067D03*
G01*
X51635406Y-263067D03*
G01*
X51635406Y-9067D03*
G01*
X51381406Y-263067D03*
G01*
X51381406Y-9067D03*
G01*
X51127406Y-263067D03*
G36*
X55799736Y7148068D02*
G01*
X55799736Y7348473D01*
X56109870Y7348473D01*
X56109870Y7148068D01*
G37*
G36*
X55799736Y6386068D02*
G01*
X55799736Y6586473D01*
X56109870Y6586473D01*
X56109870Y6386068D01*
G37*
G36*
X55799736Y6640068D02*
G01*
X55799736Y6840473D01*
X56109870Y6840473D01*
X56109870Y6640068D01*
G37*
G36*
X55799736Y6894068D02*
G01*
X55799736Y7094473D01*
X56109870Y7094473D01*
X56109870Y6894068D01*
G37*
G36*
X50464466Y6491731D02*
G01*
X50464466Y6692137D01*
X50774854Y6692137D01*
X50774854Y6491731D01*
G37*
G36*
X50464466Y4728718D02*
G01*
X50464466Y4899152D01*
X50774854Y4899152D01*
X50774854Y4728718D01*
G37*
G36*
X50464466Y4967731D02*
G01*
X50464466Y5168137D01*
X50774854Y5168137D01*
X50774854Y4967731D01*
G37*
G36*
X50464466Y5221731D02*
G01*
X50464466Y5422137D01*
X50774854Y5422137D01*
X50774854Y5221731D01*
G37*
G36*
X50464466Y5475731D02*
G01*
X50464466Y5676137D01*
X50774854Y5676137D01*
X50774854Y5475731D01*
G37*
G36*
X50464466Y5729731D02*
G01*
X50464466Y5930137D01*
X50774854Y5930137D01*
X50774854Y5729731D01*
G37*
G36*
X50464466Y5983731D02*
G01*
X50464466Y6184137D01*
X50774854Y6184137D01*
X50774854Y5983731D01*
G37*
G36*
X50464466Y6237731D02*
G01*
X50464466Y6438137D01*
X50774854Y6438137D01*
X50774854Y6237731D01*
G37*
G36*
X51785011Y-971295D02*
G01*
X51785011Y-660907D01*
X51985418Y-660907D01*
X51985418Y-971295D01*
G37*
G36*
X51023011Y-971295D02*
G01*
X51023011Y-660907D01*
X51223418Y-660907D01*
X51223418Y-971295D01*
G37*
G36*
X51277011Y-971295D02*
G01*
X51277011Y-660907D01*
X51477418Y-660907D01*
X51477418Y-971295D01*
G37*
G36*
X51531011Y-971295D02*
G01*
X51531011Y-660907D01*
X51731418Y-660907D01*
X51731418Y-971295D01*
G37*
G36*
X48679861Y4885689D02*
G01*
X48679861Y5055870D01*
X48850041Y5055870D01*
X48850041Y4885689D01*
G37*
D66*
G01*
X49526901Y4970906D03*
G01*
X49526901Y5224906D03*
G01*
X49526901Y5478906D03*
G01*
X49526901Y5732906D03*
G01*
X49526901Y5986906D03*
G01*
X49526901Y6240906D03*
G01*
X49526901Y6494906D03*
G01*
X49526901Y6748906D03*
G01*
X48764901Y6748906D03*
G01*
X48764901Y6494906D03*
G01*
X48764901Y6240906D03*
G01*
X48764901Y5986906D03*
G01*
X48764901Y5732906D03*
G01*
X48764901Y5478906D03*
G01*
X48764901Y5224906D03*
G36*
X48662590Y7480045D02*
G01*
X48662590Y7790179D01*
X48862996Y7790179D01*
X48862996Y7480045D01*
G37*
D59*
G01*
X50032793Y7635087D03*
G36*
X49678590Y7480045D02*
G01*
X49678590Y7790179D01*
X49878996Y7790179D01*
X49878996Y7480045D01*
G37*
G36*
X49424590Y7480045D02*
G01*
X49424590Y7790179D01*
X49624996Y7790179D01*
X49624996Y7480045D01*
G37*
G36*
X49170590Y7480045D02*
G01*
X49170590Y7790179D01*
X49370996Y7790179D01*
X49370996Y7480045D01*
G37*
G36*
X48916590Y7480045D02*
G01*
X48916590Y7790179D01*
X49116996Y7790179D01*
X49116996Y7480045D01*
G37*
G36*
X52299870Y2277363D02*
G01*
X52299870Y2587752D01*
X52500275Y2587752D01*
X52500275Y2277363D01*
G37*
G36*
X51537870Y2277363D02*
G01*
X51537870Y2587752D01*
X51738275Y2587752D01*
X51738275Y2277363D01*
G37*
G36*
X51791870Y2277363D02*
G01*
X51791870Y2587752D01*
X51992275Y2587752D01*
X51992275Y2277363D01*
G37*
G36*
X52045870Y2277363D02*
G01*
X52045870Y2587752D01*
X52246275Y2587752D01*
X52246275Y2277363D01*
G37*
M02*
