M48
METRIC,LZ,000.000
;FILE_FORMAT=3:3
;TYPE=PLATED
;Layer: Drill PTH
;EasyEDA v6.4.19.5, 2021-04-28T11:36:21--3:00
;a7b3d4a08c6744a69a75d88212847143,e32968b322094deeae1279e20ae9dd51,10
;Gerber Generator version 0.2
;Holesize 1 = 0.800 mm
T01C0.800
;Holesize 2 = 0.901 mm
T02C0.901
;Holesize 3 = 0.915 mm
T03C0.915
;Holesize 4 = 1.000 mm
T04C1.000
;Holesize 5 = 1.050 mm
T05C1.050
;Holesize 6 = 1.101 mm
T06C1.101
;Holesize 7 = 1.400 mm
T07C1.400
;Holesize 8 = 1.600 mm
T08C1.600
%
G05
G90
T01
X564883Y036153
X564883Y033613
X495248Y076351
X492708Y076351
T02
X542099Y059628
X537099Y059628
X559627Y007522
X559627Y004982
X554455Y020228
X554455Y017688
T03
X511263Y019204
X549363Y019204
X546823Y019204
X544283Y019204
X541743Y019204
X539203Y019204
X536663Y019204
X534123Y019204
X531583Y019204
X529043Y019204
X526503Y019204
X523963Y019204
X521423Y019204
X518883Y019204
X516343Y019204
X513803Y019204
X511288Y006516
X549388Y006516
X546848Y006516
X544308Y006516
X541768Y006516
X539228Y006516
X536688Y006516
X534148Y006516
X531608Y006516
X529068Y006516
X526528Y006516
X523988Y006516
X521448Y006516
X518908Y006516
X516368Y006516
X513828Y006516
T04
X539830Y-007433
X544330Y-007334
X553052Y-007330
X557921Y-007458
X507797Y072156
X515016Y072289
X501002Y039538
X500974Y034849
X501002Y030742
X502420Y020247
X492120Y020247
X502378Y017755
X492078Y017755
X502396Y015174
X492096Y015174
X502352Y012509
X492052Y012509
X526285Y054743
X529785Y054743
X511313Y014443
X511313Y010943
X531826Y014379
X531826Y010879
X519131Y054605
X515631Y054605
X544579Y047023
X541079Y047023
X511274Y044031
X511274Y033871
X511274Y036411
X511274Y038951
X511274Y041491
X554455Y007528
X554455Y025308
X554455Y022768
X554455Y015148
X554455Y012608
X554455Y010068
X536675Y031876
X536675Y049656
X536675Y047116
X536675Y044576
X536675Y042036
X536675Y039496
X536675Y036956
X536675Y034416
X554454Y048169
X554454Y030389
X554454Y032929
X554454Y035469
X554454Y038009
X554454Y040549
X554454Y043089
X554454Y045629
X549353Y049683
X549353Y031903
X549353Y034443
X549353Y036983
X549353Y039523
X549353Y042063
X549353Y044603
X549353Y047143
X506196Y020229
X506196Y002449
X506196Y004989
X506196Y007529
X506196Y010069
X506196Y012609
X506196Y015149
X506196Y017689
X506196Y043092
X506196Y025312
X506196Y027852
X506196Y030392
X506196Y032932
X506196Y035472
X506196Y038012
X506196Y040552
X564883Y028533
X564883Y041233
X564883Y038693
X564883Y031073
X506196Y065920
X506196Y048140
X506196Y050680
X506196Y053220
X506196Y055760
X506196Y058300
X506196Y060840
X506196Y063380
X487649Y049709
X495269Y049709
X495269Y052249
X495269Y054789
X495269Y057329
X495269Y059869
X495269Y062409
X495269Y064949
X495269Y067489
X487649Y067489
X487649Y064949
X487649Y062409
X487649Y059869
X487649Y057329
X487649Y054789
X487649Y052249
X487628Y076351
X500328Y076351
X497788Y076351
X490168Y076351
T05
X511274Y-000091
X554454Y-002631
X554454Y-000091
X551914Y-002631
X551914Y-000091
X549374Y-002631
X549374Y-000091
X546834Y-002631
X546834Y-000091
X544294Y-002631
X544294Y-000091
X541754Y-002631
X541754Y-000091
X539214Y-002631
X539214Y-000091
X536674Y-002631
X536674Y-000091
X534134Y-002631
X534134Y-000091
X531594Y-002631
X531594Y-000091
X529054Y-002631
X529054Y-000091
X526514Y-002631
X526514Y-000091
X523974Y-002631
X523974Y-000091
X521434Y-002631
X521434Y-000091
X518894Y-002631
X518894Y-000091
X516354Y-002631
X516354Y-000091
X513814Y-002631
X513814Y-000091
X511274Y-002631
T06
X562167Y004982
X559627Y012602
X562167Y012602
X559627Y010062
X562167Y010062
X562167Y007522
X531573Y044599
X531573Y036979
X531573Y039519
X531573Y042059
X554469Y052234
X554469Y075094
X554469Y072554
X554469Y070014
X554469Y067474
X554469Y064934
X554469Y062394
X554469Y059854
X554469Y057314
X554469Y054774
X544297Y024279
X536677Y024279
X539217Y024279
X541757Y024279
X559548Y072482
X559548Y064862
X559548Y067402
X559548Y069942
X518853Y-008162
X511233Y-008162
X513773Y-008162
X516313Y-008162
X524000Y024326
X516380Y024326
X518920Y024326
X521460Y024326
T07
X526522Y064996
X523982Y064996
X521442Y064996
T08
X541925Y067611
X536845Y067611
M30
