G04 Layer: TopSilkLayer*
G04 EasyEDA v6.4.17, 2021-03-30T11:05:58--3:00*
G04 e54f85b4d2414f64907e96423a573e64,e32968b322094deeae1279e20ae9dd51,10*
G04 Gerber Generator version 0.2*
G04 Scale: 100 percent, Rotated: No, Reflected: No *
G04 Dimensions in millimeters *
G04 leading zeros omitted , absolute positions ,4 integer and 5 decimal *
%FSLAX45Y45*%
%MOMM*%

%ADD10C,0.2540*%
%ADD13C,0.1000*%
%ADD35C,0.2032*%
%ADD36C,0.2000*%
%ADD37C,0.4000*%
%ADD38C,0.1500*%
%ADD39C,0.1524*%

%LPD*%
G36*
X25274473Y4099153D02*
G01*
X25267615Y4098899D01*
X25261163Y4098086D01*
X25255118Y4096715D01*
X25249479Y4094937D01*
X25244298Y4092651D01*
X25239472Y4090009D01*
X25235103Y4086961D01*
X25231191Y4083608D01*
X25227686Y4079951D01*
X25224638Y4075988D01*
X25222047Y4071823D01*
X25219914Y4067454D01*
X25218237Y4062933D01*
X25217018Y4058259D01*
X25216307Y4053484D01*
X25216053Y4048607D01*
X25223419Y4048607D01*
X25223927Y4054144D01*
X25225400Y4059123D01*
X25227737Y4063593D01*
X25230836Y4067505D01*
X25234696Y4070959D01*
X25239167Y4073906D01*
X25244145Y4076395D01*
X25249632Y4078427D01*
X25255474Y4079951D01*
X25261620Y4081018D01*
X25267970Y4081678D01*
X25274473Y4081881D01*
X25281026Y4081678D01*
X25287427Y4081018D01*
X25293624Y4079951D01*
X25299466Y4078427D01*
X25304902Y4076395D01*
X25309931Y4073906D01*
X25314351Y4070959D01*
X25318161Y4067505D01*
X25321260Y4063593D01*
X25323596Y4059123D01*
X25325019Y4054144D01*
X25325527Y4048607D01*
X25325019Y4043070D01*
X25323596Y4037990D01*
X25321260Y4033469D01*
X25318161Y4029405D01*
X25314351Y4025900D01*
X25309931Y4022851D01*
X25304902Y4020312D01*
X25299466Y4018229D01*
X25293624Y4016603D01*
X25287427Y4015486D01*
X25281026Y4014825D01*
X25274473Y4014571D01*
X25267970Y4014825D01*
X25261620Y4015486D01*
X25255474Y4016603D01*
X25249632Y4018229D01*
X25244145Y4020312D01*
X25239167Y4022851D01*
X25234696Y4025900D01*
X25230836Y4029405D01*
X25227737Y4033469D01*
X25225400Y4037990D01*
X25223927Y4043070D01*
X25223419Y4048607D01*
X25216053Y4048607D01*
X25216307Y4043679D01*
X25217069Y4038854D01*
X25218339Y4034129D01*
X25220066Y4029506D01*
X25222250Y4025087D01*
X25224892Y4020870D01*
X25227991Y4016908D01*
X25231547Y4013200D01*
X25235509Y4009796D01*
X25239929Y4006748D01*
X25244704Y4004106D01*
X25249936Y4001820D01*
X25255524Y4000042D01*
X25261468Y3998671D01*
X25267818Y3997858D01*
X25274473Y3997553D01*
X25281382Y3997858D01*
X25287833Y3998671D01*
X25293929Y4000042D01*
X25299568Y4001820D01*
X25304800Y4004106D01*
X25309576Y4006748D01*
X25313944Y4009796D01*
X25317907Y4013200D01*
X25321361Y4016908D01*
X25324409Y4020870D01*
X25326949Y4025087D01*
X25329083Y4029506D01*
X25330759Y4034129D01*
X25331928Y4038854D01*
X25332639Y4043679D01*
X25332893Y4048607D01*
X25332639Y4053484D01*
X25331877Y4058310D01*
X25330658Y4062984D01*
X25328930Y4067556D01*
X25326695Y4071924D01*
X25324054Y4076090D01*
X25320955Y4080052D01*
X25317399Y4083710D01*
X25313436Y4087063D01*
X25309017Y4090060D01*
X25304242Y4092701D01*
X25299060Y4094937D01*
X25293472Y4096765D01*
X25287478Y4098086D01*
X25281178Y4098899D01*
G37*
G36*
X25324511Y3990187D02*
G01*
X25323241Y3977233D01*
X25297079Y3969359D01*
X25288748Y3966159D01*
X25282652Y3961942D01*
X25278486Y3956507D01*
X25275997Y3949547D01*
X25274371Y3956253D01*
X25272085Y3962095D01*
X25269139Y3967022D01*
X25265634Y3971036D01*
X25261671Y3974185D01*
X25257302Y3976471D01*
X25252680Y3977792D01*
X25247803Y3978249D01*
X25241300Y3977589D01*
X25235509Y3975506D01*
X25230531Y3972204D01*
X25226365Y3967581D01*
X25223012Y3961841D01*
X25220574Y3954932D01*
X25219101Y3946906D01*
X25218593Y3937863D01*
X25218593Y3922369D01*
X25225197Y3922369D01*
X25225197Y3937101D01*
X25225603Y3943146D01*
X25226721Y3948379D01*
X25228550Y3952748D01*
X25231090Y3956304D01*
X25234290Y3959047D01*
X25238151Y3960977D01*
X25242672Y3962146D01*
X25247803Y3962501D01*
X25252781Y3962095D01*
X25257353Y3960876D01*
X25261468Y3958793D01*
X25265024Y3955846D01*
X25267920Y3952087D01*
X25270104Y3947515D01*
X25271476Y3942079D01*
X25271933Y3935831D01*
X25271933Y3922115D01*
X25218593Y3922369D01*
X25218593Y3891127D01*
X25224435Y3891127D01*
X25226213Y3906621D01*
X25248108Y3906875D01*
X25322987Y3906621D01*
X25324511Y3891127D01*
X25330353Y3891127D01*
X25330353Y3938117D01*
X25324511Y3938117D01*
X25322733Y3922369D01*
X25278283Y3922115D01*
X25278283Y3931005D01*
X25278994Y3939997D01*
X25281483Y3946347D01*
X25286563Y3950766D01*
X25294793Y3953865D01*
X25321463Y3960469D01*
X25326340Y3962552D01*
X25329642Y3965854D01*
X25331521Y3970731D01*
X25332131Y3977487D01*
X25331623Y3984498D01*
X25330353Y3990187D01*
G37*
G36*
X25248311Y3880205D02*
G01*
X25218593Y3879189D01*
X25218593Y3787495D01*
X25248311Y3786225D01*
X25248311Y3794607D01*
X25225959Y3799179D01*
X25225959Y3825341D01*
X25248108Y3825595D01*
X25322733Y3825341D01*
X25324511Y3808069D01*
X25330353Y3808069D01*
X25330353Y3858361D01*
X25324511Y3858361D01*
X25322733Y3841343D01*
X25295199Y3840886D01*
X25242570Y3840987D01*
X25225959Y3841343D01*
X25225959Y3867505D01*
X25248311Y3872077D01*
G37*
G36*
X25300635Y3776573D02*
G01*
X25300635Y3768445D01*
X25322987Y3763873D01*
X25322987Y3721201D01*
X25276759Y3720947D01*
X25276759Y3746093D01*
X25293015Y3748379D01*
X25293015Y3755237D01*
X25253645Y3755237D01*
X25253645Y3748379D01*
X25270155Y3746093D01*
X25270155Y3720947D01*
X25225959Y3721201D01*
X25225959Y3760825D01*
X25248057Y3765143D01*
X25248057Y3773525D01*
X25218593Y3772509D01*
X25218593Y3689705D01*
X25224435Y3689705D01*
X25226213Y3705199D01*
X25253645Y3705707D01*
X25306426Y3705606D01*
X25322987Y3705199D01*
X25324511Y3689705D01*
X25330353Y3689705D01*
X25330353Y3775811D01*
G37*
G36*
X25218593Y3674719D02*
G01*
X25218593Y3642461D01*
X25311303Y3606393D01*
X25218593Y3568801D01*
X25218593Y3538321D01*
X25224435Y3538321D01*
X25226213Y3553561D01*
X25322479Y3553307D01*
X25324511Y3538321D01*
X25330353Y3538321D01*
X25330353Y3575659D01*
X25324511Y3575659D01*
X25322479Y3561181D01*
X25265938Y3561079D01*
X25234595Y3560165D01*
X25330353Y3599281D01*
X25330353Y3606393D01*
X25234341Y3643985D01*
X25322987Y3643731D01*
X25324511Y3629253D01*
X25330353Y3629253D01*
X25330353Y3674465D01*
X25324511Y3674465D01*
X25322987Y3659225D01*
X25295199Y3658768D01*
X25259233Y3658768D01*
X25226213Y3659225D01*
X25224435Y3674719D01*
G37*
G36*
X25274473Y3526891D02*
G01*
X25267615Y3526637D01*
X25261163Y3525774D01*
X25255118Y3524453D01*
X25249479Y3522624D01*
X25244298Y3520338D01*
X25239472Y3517646D01*
X25235103Y3514598D01*
X25231191Y3511245D01*
X25227686Y3507536D01*
X25224638Y3503574D01*
X25222047Y3499358D01*
X25219914Y3494989D01*
X25218237Y3490417D01*
X25217018Y3485743D01*
X25216307Y3480968D01*
X25216053Y3476091D01*
X25223419Y3476091D01*
X25223927Y3481628D01*
X25225400Y3486607D01*
X25227737Y3491077D01*
X25230836Y3494989D01*
X25234696Y3498443D01*
X25239167Y3501390D01*
X25244145Y3503879D01*
X25249632Y3505911D01*
X25255474Y3507435D01*
X25261620Y3508501D01*
X25267970Y3509162D01*
X25274473Y3509365D01*
X25281026Y3509162D01*
X25287427Y3508501D01*
X25293624Y3507435D01*
X25299466Y3505911D01*
X25304902Y3503879D01*
X25309931Y3501390D01*
X25314351Y3498443D01*
X25318161Y3494989D01*
X25321260Y3491077D01*
X25323596Y3486607D01*
X25325019Y3481628D01*
X25325527Y3476091D01*
X25325019Y3470554D01*
X25323596Y3465474D01*
X25321260Y3460953D01*
X25318161Y3456940D01*
X25314351Y3453485D01*
X25309931Y3450437D01*
X25304902Y3447948D01*
X25299466Y3445916D01*
X25293624Y3444341D01*
X25287427Y3443224D01*
X25281026Y3442563D01*
X25274473Y3442309D01*
X25267970Y3442563D01*
X25261620Y3443224D01*
X25255474Y3444341D01*
X25249632Y3445916D01*
X25244145Y3447948D01*
X25239167Y3450437D01*
X25234696Y3453485D01*
X25230836Y3456940D01*
X25227737Y3460953D01*
X25225400Y3465474D01*
X25223927Y3470554D01*
X25223419Y3476091D01*
X25216053Y3476091D01*
X25216307Y3471214D01*
X25217069Y3466388D01*
X25218339Y3461664D01*
X25220066Y3457092D01*
X25222250Y3452672D01*
X25224892Y3448456D01*
X25227991Y3444494D01*
X25231547Y3440785D01*
X25235509Y3437382D01*
X25239929Y3434334D01*
X25244704Y3431641D01*
X25249936Y3429355D01*
X25255524Y3427526D01*
X25261468Y3426155D01*
X25267818Y3425342D01*
X25274473Y3425037D01*
X25281382Y3425342D01*
X25287833Y3426155D01*
X25293929Y3427526D01*
X25299568Y3429304D01*
X25304800Y3431590D01*
X25309576Y3434232D01*
X25313944Y3437280D01*
X25317907Y3440684D01*
X25321361Y3444392D01*
X25324409Y3448354D01*
X25326949Y3452571D01*
X25329083Y3456990D01*
X25330759Y3461613D01*
X25331928Y3466337D01*
X25332639Y3471164D01*
X25332893Y3476091D01*
X25332639Y3480968D01*
X25331877Y3485794D01*
X25330658Y3490518D01*
X25328930Y3495090D01*
X25326695Y3499459D01*
X25324054Y3503676D01*
X25320955Y3507638D01*
X25317399Y3511296D01*
X25313436Y3514699D01*
X25309017Y3517747D01*
X25304242Y3520389D01*
X25299060Y3522675D01*
X25293472Y3524453D01*
X25287478Y3525824D01*
X25281178Y3526637D01*
G37*
G36*
X25207417Y3500729D02*
G01*
X25187605Y3478885D01*
X25187605Y3473297D01*
X25207417Y3451453D01*
X25210719Y3453993D01*
X25198273Y3475837D01*
X25210719Y3497935D01*
G37*
G36*
X25218593Y3413353D02*
G01*
X25218593Y3366363D01*
X25224435Y3366363D01*
X25226213Y3381857D01*
X25248108Y3382111D01*
X25322987Y3381857D01*
X25324511Y3366363D01*
X25330353Y3366363D01*
X25330353Y3413353D01*
X25324511Y3413353D01*
X25322733Y3397859D01*
X25295199Y3397402D01*
X25259233Y3397402D01*
X25226213Y3397859D01*
X25224435Y3413353D01*
G37*
G36*
X25300127Y3351885D02*
G01*
X25300127Y3342741D01*
X25321463Y3338677D01*
X25323393Y3333902D01*
X25324663Y3329025D01*
X25325324Y3324199D01*
X25325527Y3319373D01*
X25325171Y3313582D01*
X25324054Y3308096D01*
X25322225Y3302965D01*
X25319685Y3298240D01*
X25316434Y3293973D01*
X25312471Y3290112D01*
X25307848Y3286760D01*
X25302514Y3283965D01*
X25296520Y3281730D01*
X25289814Y3280105D01*
X25282499Y3279089D01*
X25274473Y3278733D01*
X25266497Y3279140D01*
X25259131Y3280206D01*
X25252476Y3281984D01*
X25246431Y3284372D01*
X25241148Y3287318D01*
X25236474Y3290773D01*
X25232512Y3294735D01*
X25229261Y3299155D01*
X25226721Y3303930D01*
X25224892Y3309061D01*
X25223774Y3314496D01*
X25223419Y3320135D01*
X25223673Y3324351D01*
X25224435Y3328568D01*
X25225654Y3332835D01*
X25227483Y3337153D01*
X25248819Y3341217D01*
X25248819Y3350361D01*
X25224181Y3350107D01*
X25220218Y3341878D01*
X25217729Y3333648D01*
X25216459Y3325672D01*
X25216053Y3318103D01*
X25216358Y3312109D01*
X25217170Y3306368D01*
X25218491Y3300831D01*
X25220371Y3295548D01*
X25222708Y3290570D01*
X25225502Y3285896D01*
X25228753Y3281578D01*
X25232410Y3277615D01*
X25236474Y3274009D01*
X25240945Y3270808D01*
X25245720Y3268065D01*
X25250902Y3265779D01*
X25256337Y3263900D01*
X25262128Y3262579D01*
X25268174Y3261766D01*
X25274473Y3261461D01*
X25280874Y3261766D01*
X25286970Y3262528D01*
X25292812Y3263849D01*
X25298298Y3265627D01*
X25303429Y3267862D01*
X25308255Y3270554D01*
X25312674Y3273704D01*
X25316738Y3277209D01*
X25320396Y3281172D01*
X25323596Y3285490D01*
X25326340Y3290112D01*
X25328676Y3295142D01*
X25330505Y3300425D01*
X25331826Y3306064D01*
X25332639Y3311956D01*
X25332893Y3318103D01*
X25332436Y3326942D01*
X25330912Y3335477D01*
X25328422Y3343706D01*
X25324765Y3351631D01*
G37*
G36*
X25218593Y3249777D02*
G01*
X25218593Y3210407D01*
X25224435Y3210407D01*
X25226467Y3228187D01*
X25303937Y3228441D01*
X25218593Y3166719D01*
X25218593Y3141065D01*
X25224435Y3141065D01*
X25225959Y3152749D01*
X25227991Y3154527D01*
X25322479Y3154273D01*
X25324511Y3140303D01*
X25330353Y3140303D01*
X25330353Y3179673D01*
X25324511Y3179673D01*
X25322225Y3161893D01*
X25237897Y3161639D01*
X25331369Y3229711D01*
X25331369Y3235553D01*
X25226467Y3235807D01*
X25224435Y3249777D01*
G37*
G36*
X25300635Y3127603D02*
G01*
X25300635Y3119221D01*
X25322987Y3114903D01*
X25322987Y3071977D01*
X25276759Y3071723D01*
X25276759Y3097123D01*
X25293015Y3099409D01*
X25293015Y3106267D01*
X25253645Y3106267D01*
X25253645Y3099409D01*
X25270155Y3096869D01*
X25270155Y3071723D01*
X25225959Y3071977D01*
X25225959Y3111601D01*
X25248057Y3116173D01*
X25248057Y3124301D01*
X25218593Y3123539D01*
X25218593Y3040735D01*
X25224435Y3040735D01*
X25226213Y3056229D01*
X25248108Y3056483D01*
X25322987Y3056229D01*
X25324511Y3040735D01*
X25330353Y3040735D01*
X25330353Y3126587D01*
G37*
G36*
X25248311Y3029813D02*
G01*
X25218593Y3028797D01*
X25218593Y2937103D01*
X25248311Y2935833D01*
X25248311Y2944215D01*
X25225959Y2948787D01*
X25225959Y2974949D01*
X25248108Y2975203D01*
X25322733Y2974949D01*
X25324511Y2957677D01*
X25330353Y2957677D01*
X25330353Y3007969D01*
X25324511Y3007969D01*
X25322733Y2990951D01*
X25295199Y2990494D01*
X25242570Y2990596D01*
X25225959Y2990951D01*
X25225959Y3017113D01*
X25248311Y3021685D01*
G37*
G36*
X25274473Y2926181D02*
G01*
X25267615Y2925927D01*
X25261163Y2925064D01*
X25255118Y2923743D01*
X25249479Y2921914D01*
X25244298Y2919628D01*
X25239472Y2916936D01*
X25235103Y2913888D01*
X25231191Y2910535D01*
X25227686Y2906826D01*
X25224638Y2902864D01*
X25222047Y2898648D01*
X25219914Y2894279D01*
X25218237Y2889707D01*
X25217018Y2885033D01*
X25216307Y2880258D01*
X25216053Y2875381D01*
X25223419Y2875381D01*
X25223927Y2880918D01*
X25225400Y2885897D01*
X25227737Y2890367D01*
X25230836Y2894279D01*
X25234696Y2897733D01*
X25239167Y2900680D01*
X25244145Y2903169D01*
X25249632Y2905201D01*
X25255474Y2906725D01*
X25261620Y2907792D01*
X25267970Y2908452D01*
X25274473Y2908655D01*
X25281026Y2908452D01*
X25287427Y2907792D01*
X25293624Y2906725D01*
X25299466Y2905201D01*
X25304902Y2903169D01*
X25309931Y2900680D01*
X25314351Y2897733D01*
X25318161Y2894279D01*
X25321260Y2890367D01*
X25323596Y2885897D01*
X25325019Y2880918D01*
X25325527Y2875381D01*
X25325019Y2869844D01*
X25323596Y2864764D01*
X25321260Y2860243D01*
X25318161Y2856230D01*
X25314351Y2852775D01*
X25309931Y2849727D01*
X25304902Y2847238D01*
X25299466Y2845206D01*
X25293624Y2843631D01*
X25287427Y2842514D01*
X25281026Y2841853D01*
X25274473Y2841599D01*
X25267970Y2841853D01*
X25261620Y2842514D01*
X25255474Y2843631D01*
X25249632Y2845206D01*
X25244145Y2847238D01*
X25239167Y2849727D01*
X25234696Y2852775D01*
X25230836Y2856230D01*
X25227737Y2860243D01*
X25225400Y2864764D01*
X25223927Y2869844D01*
X25223419Y2875381D01*
X25216053Y2875381D01*
X25216307Y2870504D01*
X25217069Y2865678D01*
X25218339Y2860954D01*
X25220066Y2856382D01*
X25222250Y2851962D01*
X25224892Y2847746D01*
X25227991Y2843784D01*
X25231547Y2840075D01*
X25235509Y2836672D01*
X25239929Y2833624D01*
X25244704Y2830931D01*
X25249936Y2828645D01*
X25255524Y2826816D01*
X25261468Y2825445D01*
X25267818Y2824632D01*
X25274473Y2824327D01*
X25281382Y2824632D01*
X25287833Y2825445D01*
X25293929Y2826816D01*
X25299568Y2828594D01*
X25304800Y2830880D01*
X25309576Y2833522D01*
X25313944Y2836570D01*
X25317907Y2839974D01*
X25321361Y2843682D01*
X25324409Y2847644D01*
X25326949Y2851861D01*
X25329083Y2856280D01*
X25330759Y2860903D01*
X25331928Y2865628D01*
X25332639Y2870454D01*
X25332893Y2875381D01*
X25332639Y2880258D01*
X25331877Y2885084D01*
X25330658Y2889808D01*
X25328930Y2894380D01*
X25326695Y2898749D01*
X25324054Y2902966D01*
X25320955Y2906928D01*
X25317399Y2910586D01*
X25313436Y2913989D01*
X25309017Y2917037D01*
X25304242Y2919679D01*
X25299060Y2921965D01*
X25293472Y2923743D01*
X25287478Y2925114D01*
X25281178Y2925927D01*
G37*
G36*
X25251613Y2812135D02*
G01*
X25246787Y2811881D01*
X25242316Y2810967D01*
X25238100Y2809544D01*
X25234239Y2807512D01*
X25230785Y2804871D01*
X25227686Y2801670D01*
X25224994Y2797911D01*
X25222758Y2793542D01*
X25220980Y2788564D01*
X25219660Y2783027D01*
X25218847Y2776931D01*
X25218593Y2770225D01*
X25218593Y2756763D01*
X25225197Y2756763D01*
X25225197Y2767431D01*
X25225654Y2774442D01*
X25226975Y2780436D01*
X25229159Y2785414D01*
X25232106Y2789428D01*
X25235916Y2792526D01*
X25240437Y2794711D01*
X25245669Y2795981D01*
X25251613Y2796387D01*
X25257455Y2795981D01*
X25262789Y2794762D01*
X25267462Y2792679D01*
X25271425Y2789631D01*
X25274676Y2785567D01*
X25277064Y2780538D01*
X25278537Y2774442D01*
X25279045Y2767177D01*
X25279045Y2756509D01*
X25218593Y2756763D01*
X25218593Y2725267D01*
X25224435Y2725267D01*
X25226213Y2741015D01*
X25248108Y2741269D01*
X25322987Y2741015D01*
X25324511Y2725267D01*
X25330353Y2725267D01*
X25330353Y2772765D01*
X25324511Y2772765D01*
X25322733Y2756763D01*
X25285649Y2756509D01*
X25285649Y2765399D01*
X25285344Y2773375D01*
X25284430Y2780538D01*
X25282956Y2786888D01*
X25281026Y2792425D01*
X25278588Y2797251D01*
X25275692Y2801366D01*
X25272441Y2804769D01*
X25268783Y2807462D01*
X25264872Y2809544D01*
X25260655Y2811018D01*
X25256236Y2811881D01*
G37*
D35*
X25611874Y7917726D02*
G01*
X25611874Y7723924D01*
X25611874Y7917726D02*
G01*
X25732016Y7917726D01*
X25611874Y7825524D02*
G01*
X25685788Y7825524D01*
X25792976Y7917726D02*
G01*
X25792976Y7723924D01*
X25853936Y7917726D02*
G01*
X25853936Y7723924D01*
X25853936Y7917726D02*
G01*
X25936994Y7917726D01*
X25964680Y7908582D01*
X25974078Y7899438D01*
X25983222Y7880896D01*
X25983222Y7862354D01*
X25974078Y7844066D01*
X25964680Y7834668D01*
X25936994Y7825524D01*
X25853936Y7825524D01*
X25918706Y7825524D02*
G01*
X25983222Y7723924D01*
X26044182Y7917726D02*
G01*
X26044182Y7723924D01*
X26044182Y7917726D02*
G01*
X26164324Y7917726D01*
X26044182Y7825524D02*
G01*
X26118096Y7825524D01*
X26044182Y7723924D02*
G01*
X26164324Y7723924D01*
X26363714Y7871752D02*
G01*
X26354570Y7890040D01*
X26336028Y7908582D01*
X26317486Y7917726D01*
X26280656Y7917726D01*
X26262114Y7908582D01*
X26243826Y7890040D01*
X26234428Y7871752D01*
X26225284Y7844066D01*
X26225284Y7797838D01*
X26234428Y7770152D01*
X26243826Y7751610D01*
X26262114Y7733068D01*
X26280656Y7723924D01*
X26317486Y7723924D01*
X26336028Y7733068D01*
X26354570Y7751610D01*
X26363714Y7770152D01*
X26363714Y7797838D01*
X26317486Y7797838D02*
G01*
X26363714Y7797838D01*
X26480046Y7917726D02*
G01*
X26461758Y7908582D01*
X26443216Y7890040D01*
X26434072Y7871752D01*
X26424674Y7844066D01*
X26424674Y7797838D01*
X26434072Y7770152D01*
X26443216Y7751610D01*
X26461758Y7733068D01*
X26480046Y7723924D01*
X26517130Y7723924D01*
X26535672Y7733068D01*
X26553960Y7751610D01*
X26563358Y7770152D01*
X26572502Y7797838D01*
X26572502Y7844066D01*
X26563358Y7871752D01*
X26553960Y7890040D01*
X26535672Y7908582D01*
X26517130Y7917726D01*
X26480046Y7917726D01*
X26698232Y7917726D02*
G01*
X26698232Y7723924D01*
X26633462Y7917726D02*
G01*
X26762748Y7917726D01*
X26879080Y7917726D02*
G01*
X26860792Y7908582D01*
X26842250Y7890040D01*
X26833106Y7871752D01*
X26823708Y7844066D01*
X26823708Y7797838D01*
X26833106Y7770152D01*
X26842250Y7751610D01*
X26860792Y7733068D01*
X26879080Y7723924D01*
X26916164Y7723924D01*
X26934706Y7733068D01*
X26952994Y7751610D01*
X26962392Y7770152D01*
X26971536Y7797838D01*
X26971536Y7844066D01*
X26962392Y7871752D01*
X26952994Y7890040D01*
X26934706Y7908582D01*
X26916164Y7917726D01*
X26879080Y7917726D01*
X27248650Y7917726D02*
G01*
X27174736Y7723924D01*
X27248650Y7917726D02*
G01*
X27322564Y7723924D01*
X27202422Y7788440D02*
G01*
X27294878Y7788440D01*
X27383524Y7917726D02*
G01*
X27383524Y7723924D01*
X27383524Y7917726D02*
G01*
X27466582Y7917726D01*
X27494268Y7908582D01*
X27503666Y7899438D01*
X27512810Y7880896D01*
X27512810Y7862354D01*
X27503666Y7844066D01*
X27494268Y7834668D01*
X27466582Y7825524D01*
X27383524Y7825524D01*
X27448040Y7825524D02*
G01*
X27512810Y7723924D01*
X27573770Y7917726D02*
G01*
X27573770Y7723924D01*
X27573770Y7917726D02*
G01*
X27647684Y7723924D01*
X27721598Y7917726D02*
G01*
X27647684Y7723924D01*
X27721598Y7917726D02*
G01*
X27721598Y7723924D01*
X27782558Y7806982D02*
G01*
X27948674Y7806982D01*
X28009634Y7917726D02*
G01*
X28083548Y7723924D01*
X28157462Y7917726D02*
G01*
X28083548Y7723924D01*
X28329166Y7917726D02*
G01*
X28236964Y7917726D01*
X28227566Y7834668D01*
X28236964Y7844066D01*
X28264650Y7853210D01*
X28292336Y7853210D01*
X28320022Y7844066D01*
X28338564Y7825524D01*
X28347708Y7797838D01*
X28347708Y7779296D01*
X28338564Y7751610D01*
X28320022Y7733068D01*
X28292336Y7723924D01*
X28264650Y7723924D01*
X28236964Y7733068D01*
X28227566Y7742466D01*
X28218422Y7760754D01*
X29259136Y7503160D02*
G01*
X29259136Y7336789D01*
X29176078Y7420102D02*
G01*
X29342194Y7420102D01*
X29687634Y7420102D02*
G01*
X29854004Y7420102D01*
D38*
X29190441Y5727192D02*
G01*
X29208729Y5736336D01*
X29235908Y5763513D01*
X29235908Y5572760D01*
X29350461Y5763513D02*
G01*
X29323284Y5754623D01*
X29304995Y5727192D01*
X29296106Y5681726D01*
X29296106Y5654547D01*
X29304995Y5609081D01*
X29323284Y5581904D01*
X29350461Y5572760D01*
X29368750Y5572760D01*
X29395927Y5581904D01*
X29414215Y5609081D01*
X29423359Y5654547D01*
X29423359Y5681726D01*
X29414215Y5727192D01*
X29395927Y5754623D01*
X29368750Y5763513D01*
X29350461Y5763513D01*
X29537913Y5763513D02*
G01*
X29510482Y5754623D01*
X29492448Y5727192D01*
X29483304Y5681726D01*
X29483304Y5654547D01*
X29492448Y5609081D01*
X29510482Y5581904D01*
X29537913Y5572760D01*
X29555948Y5572760D01*
X29583379Y5581904D01*
X29601413Y5609081D01*
X29610558Y5654547D01*
X29610558Y5681726D01*
X29601413Y5727192D01*
X29583379Y5754623D01*
X29555948Y5763513D01*
X29537913Y5763513D01*
X29810456Y5700013D02*
G01*
X29810456Y5572760D01*
X29810456Y5663692D02*
G01*
X29837888Y5690870D01*
X29855922Y5700013D01*
X29883354Y5700013D01*
X29901388Y5690870D01*
X29910532Y5663692D01*
X29910532Y5572760D01*
X30043374Y5763513D02*
G01*
X30025086Y5763513D01*
X30006798Y5754623D01*
X29997908Y5727192D01*
X29997908Y5572760D01*
X29970475Y5700013D02*
G01*
X30034229Y5700013D01*
X29514617Y4256692D02*
G01*
X29531127Y4264822D01*
X29555511Y4289206D01*
X29555511Y4117500D01*
X29658635Y4289206D02*
G01*
X29633997Y4281078D01*
X29617741Y4256692D01*
X29609613Y4215800D01*
X29609613Y4191162D01*
X29617741Y4150268D01*
X29633997Y4125630D01*
X29658635Y4117500D01*
X29674891Y4117500D01*
X29699529Y4125630D01*
X29716039Y4150268D01*
X29724167Y4191162D01*
X29724167Y4215800D01*
X29716039Y4256692D01*
X29699529Y4281078D01*
X29674891Y4289206D01*
X29658635Y4289206D01*
X29827291Y4289206D02*
G01*
X29802653Y4281078D01*
X29786397Y4256692D01*
X29778015Y4215800D01*
X29778015Y4191162D01*
X29786397Y4150268D01*
X29802653Y4125630D01*
X29827291Y4117500D01*
X29843547Y4117500D01*
X29868185Y4125630D01*
X29884441Y4150268D01*
X29892569Y4191162D01*
X29892569Y4215800D01*
X29884441Y4256692D01*
X29868185Y4281078D01*
X29843547Y4289206D01*
X29827291Y4289206D01*
X30072655Y4232056D02*
G01*
X30072655Y4150268D01*
X30080783Y4125630D01*
X30097293Y4117500D01*
X30121677Y4117500D01*
X30138187Y4125630D01*
X30162571Y4150268D01*
X30162571Y4232056D02*
G01*
X30162571Y4117500D01*
X30282205Y4289206D02*
G01*
X30265695Y4289206D01*
X30249439Y4281078D01*
X30241311Y4256692D01*
X30241311Y4117500D01*
X30216673Y4232056D02*
G01*
X30273823Y4232056D01*
X28001120Y5004394D02*
G01*
X28017630Y5012519D01*
X28042014Y5036903D01*
X28042014Y4865202D01*
X28145138Y5036903D02*
G01*
X28120500Y5028778D01*
X28104244Y5004394D01*
X28096116Y4963497D01*
X28096116Y4938862D01*
X28104244Y4897968D01*
X28120500Y4873327D01*
X28145138Y4865202D01*
X28161394Y4865202D01*
X28186032Y4873327D01*
X28202542Y4897968D01*
X28210670Y4938862D01*
X28210670Y4963497D01*
X28202542Y5004394D01*
X28186032Y5028778D01*
X28161394Y5036903D01*
X28145138Y5036903D01*
X28313794Y5036903D02*
G01*
X28289156Y5028778D01*
X28272900Y5004394D01*
X28264518Y4963497D01*
X28264518Y4938862D01*
X28272900Y4897968D01*
X28289156Y4873327D01*
X28313794Y4865202D01*
X28330050Y4865202D01*
X28354688Y4873327D01*
X28370944Y4897968D01*
X28379072Y4938862D01*
X28379072Y4963497D01*
X28370944Y5004394D01*
X28354688Y5028778D01*
X28330050Y5036903D01*
X28313794Y5036903D01*
X28559158Y4979753D02*
G01*
X28559158Y4897968D01*
X28567286Y4873327D01*
X28583796Y4865202D01*
X28608180Y4865202D01*
X28624690Y4873327D01*
X28649074Y4897968D01*
X28649074Y4979753D02*
G01*
X28649074Y4865202D01*
X28768708Y5036903D02*
G01*
X28752198Y5036903D01*
X28735942Y5028778D01*
X28727814Y5004394D01*
X28727814Y4865202D01*
X28703176Y4979753D02*
G01*
X28760326Y4979753D01*
X26991937Y4989123D02*
G01*
X27008447Y4997251D01*
X27032831Y5021635D01*
X27032831Y4849931D01*
X27135955Y5021635D02*
G01*
X27111317Y5013507D01*
X27095061Y4989123D01*
X27086933Y4948229D01*
X27086933Y4923591D01*
X27095061Y4882697D01*
X27111317Y4858059D01*
X27135955Y4849931D01*
X27152211Y4849931D01*
X27176849Y4858059D01*
X27193359Y4882697D01*
X27201487Y4923591D01*
X27201487Y4948229D01*
X27193359Y4989123D01*
X27176849Y5013507D01*
X27152211Y5021635D01*
X27135955Y5021635D01*
X27304611Y5021635D02*
G01*
X27279973Y5013507D01*
X27263717Y4989123D01*
X27255335Y4948229D01*
X27255335Y4923591D01*
X27263717Y4882697D01*
X27279973Y4858059D01*
X27304611Y4849931D01*
X27320867Y4849931D01*
X27345505Y4858059D01*
X27361761Y4882697D01*
X27369889Y4923591D01*
X27369889Y4948229D01*
X27361761Y4989123D01*
X27345505Y5013507D01*
X27320867Y5021635D01*
X27304611Y5021635D01*
X27549975Y4964485D02*
G01*
X27549975Y4882697D01*
X27558103Y4858059D01*
X27574613Y4849931D01*
X27598997Y4849931D01*
X27615507Y4858059D01*
X27639891Y4882697D01*
X27639891Y4964485D02*
G01*
X27639891Y4849931D01*
X27759525Y5021635D02*
G01*
X27743015Y5021635D01*
X27726759Y5013507D01*
X27718631Y4989123D01*
X27718631Y4849931D01*
X27693993Y4964485D02*
G01*
X27751143Y4964485D01*
X29219118Y1482001D02*
G01*
X29235631Y1490129D01*
X29260015Y1514513D01*
X29260015Y1342809D01*
X29363136Y1514513D02*
G01*
X29338501Y1506385D01*
X29322245Y1482001D01*
X29314117Y1441107D01*
X29314117Y1416469D01*
X29322245Y1375575D01*
X29338501Y1350937D01*
X29363136Y1342809D01*
X29379395Y1342809D01*
X29404033Y1350937D01*
X29420540Y1375575D01*
X29428668Y1416469D01*
X29428668Y1441107D01*
X29420540Y1482001D01*
X29404033Y1506385D01*
X29379395Y1514513D01*
X29363136Y1514513D01*
X29531795Y1514513D02*
G01*
X29507154Y1506385D01*
X29490901Y1482001D01*
X29482519Y1441107D01*
X29482519Y1416469D01*
X29490901Y1375575D01*
X29507154Y1350937D01*
X29531795Y1342809D01*
X29548051Y1342809D01*
X29572686Y1350937D01*
X29588945Y1375575D01*
X29597070Y1416469D01*
X29597070Y1441107D01*
X29588945Y1482001D01*
X29572686Y1506385D01*
X29548051Y1514513D01*
X29531795Y1514513D01*
X29777156Y1457363D02*
G01*
X29777156Y1375575D01*
X29785284Y1350937D01*
X29801797Y1342809D01*
X29826181Y1342809D01*
X29842688Y1350937D01*
X29867072Y1375575D01*
X29867072Y1457363D02*
G01*
X29867072Y1342809D01*
X29986706Y1514513D02*
G01*
X29970199Y1514513D01*
X29953940Y1506385D01*
X29945815Y1482001D01*
X29945815Y1342809D01*
X29921177Y1457363D02*
G01*
X29978327Y1457363D01*
X27181522Y1490002D02*
G01*
X27198032Y1498130D01*
X27222416Y1522514D01*
X27222416Y1350810D01*
X27325540Y1522514D02*
G01*
X27300902Y1514386D01*
X27284646Y1490002D01*
X27276518Y1449108D01*
X27276518Y1424470D01*
X27284646Y1383576D01*
X27300902Y1358938D01*
X27325540Y1350810D01*
X27341796Y1350810D01*
X27366434Y1358938D01*
X27382944Y1383576D01*
X27391072Y1424470D01*
X27391072Y1449108D01*
X27382944Y1490002D01*
X27366434Y1514386D01*
X27341796Y1522514D01*
X27325540Y1522514D01*
X27494196Y1522514D02*
G01*
X27469558Y1514386D01*
X27453302Y1490002D01*
X27444920Y1449108D01*
X27444920Y1424470D01*
X27453302Y1383576D01*
X27469558Y1358938D01*
X27494196Y1350810D01*
X27510452Y1350810D01*
X27535090Y1358938D01*
X27551346Y1383576D01*
X27559474Y1424470D01*
X27559474Y1449108D01*
X27551346Y1490002D01*
X27535090Y1514386D01*
X27510452Y1522514D01*
X27494196Y1522514D01*
X27739560Y1465364D02*
G01*
X27739560Y1383576D01*
X27747688Y1358938D01*
X27764198Y1350810D01*
X27788582Y1350810D01*
X27805092Y1358938D01*
X27829476Y1383576D01*
X27829476Y1465364D02*
G01*
X27829476Y1350810D01*
X27949110Y1522514D02*
G01*
X27932600Y1522514D01*
X27916344Y1514386D01*
X27908216Y1490002D01*
X27908216Y1350810D01*
X27883578Y1465364D02*
G01*
X27940728Y1465364D01*
D35*
X29222821Y-1389527D02*
G01*
X29222821Y-1583583D01*
X29222821Y-1389527D02*
G01*
X29342963Y-1389527D01*
X29222821Y-1481983D02*
G01*
X29296735Y-1481983D01*
X29403923Y-1389527D02*
G01*
X29403923Y-1583583D01*
X29464883Y-1389527D02*
G01*
X29464883Y-1583583D01*
X29464883Y-1389527D02*
G01*
X29547941Y-1389527D01*
X29575881Y-1398671D01*
X29585025Y-1408069D01*
X29594169Y-1426611D01*
X29594169Y-1444899D01*
X29585025Y-1463441D01*
X29575881Y-1472585D01*
X29547941Y-1481983D01*
X29464883Y-1481983D01*
X29529653Y-1481983D02*
G01*
X29594169Y-1583583D01*
X29655129Y-1389527D02*
G01*
X29655129Y-1583583D01*
X29655129Y-1389527D02*
G01*
X29775271Y-1389527D01*
X29655129Y-1481983D02*
G01*
X29729043Y-1481983D01*
X29655129Y-1583583D02*
G01*
X29775271Y-1583583D01*
X29974661Y-1435755D02*
G01*
X29965517Y-1417213D01*
X29946975Y-1398671D01*
X29928687Y-1389527D01*
X29891603Y-1389527D01*
X29873061Y-1398671D01*
X29854773Y-1417213D01*
X29845375Y-1435755D01*
X29836231Y-1463441D01*
X29836231Y-1509669D01*
X29845375Y-1537355D01*
X29854773Y-1555897D01*
X29873061Y-1574185D01*
X29891603Y-1583583D01*
X29928687Y-1583583D01*
X29946975Y-1574185D01*
X29965517Y-1555897D01*
X29974661Y-1537355D01*
X29974661Y-1509669D01*
X29928687Y-1509669D02*
G01*
X29974661Y-1509669D01*
X30091247Y-1389527D02*
G01*
X30072705Y-1398671D01*
X30054163Y-1417213D01*
X30045019Y-1435755D01*
X30035621Y-1463441D01*
X30035621Y-1509669D01*
X30045019Y-1537355D01*
X30054163Y-1555897D01*
X30072705Y-1574185D01*
X30091247Y-1583583D01*
X30128077Y-1583583D01*
X30146619Y-1574185D01*
X30165161Y-1555897D01*
X30174305Y-1537355D01*
X30183449Y-1509669D01*
X30183449Y-1463441D01*
X30174305Y-1435755D01*
X30165161Y-1417213D01*
X30146619Y-1398671D01*
X30128077Y-1389527D01*
X30091247Y-1389527D01*
X30309179Y-1389527D02*
G01*
X30309179Y-1583583D01*
X30244409Y-1389527D02*
G01*
X30373695Y-1389527D01*
X30490281Y-1389527D02*
G01*
X30471739Y-1398671D01*
X30453197Y-1417213D01*
X30444053Y-1435755D01*
X30434655Y-1463441D01*
X30434655Y-1509669D01*
X30444053Y-1537355D01*
X30453197Y-1555897D01*
X30471739Y-1574185D01*
X30490281Y-1583583D01*
X30527111Y-1583583D01*
X30545653Y-1574185D01*
X30563941Y-1555897D01*
X30573339Y-1537355D01*
X30582483Y-1509669D01*
X30582483Y-1463441D01*
X30573339Y-1435755D01*
X30563941Y-1417213D01*
X30545653Y-1398671D01*
X30527111Y-1389527D01*
X30490281Y-1389527D01*
X30652841Y-1537355D02*
G01*
X30643443Y-1546499D01*
X30652841Y-1555897D01*
X30661985Y-1546499D01*
X30652841Y-1537355D01*
X30861375Y-1435755D02*
G01*
X30852231Y-1417213D01*
X30833689Y-1398671D01*
X30815401Y-1389527D01*
X30778317Y-1389527D01*
X30759775Y-1398671D01*
X30741487Y-1417213D01*
X30732089Y-1435755D01*
X30722945Y-1463441D01*
X30722945Y-1509669D01*
X30732089Y-1537355D01*
X30741487Y-1555897D01*
X30759775Y-1574185D01*
X30778317Y-1583583D01*
X30815401Y-1583583D01*
X30833689Y-1574185D01*
X30852231Y-1555897D01*
X30861375Y-1537355D01*
X30977961Y-1389527D02*
G01*
X30959419Y-1398671D01*
X30940877Y-1417213D01*
X30931733Y-1435755D01*
X30922335Y-1463441D01*
X30922335Y-1509669D01*
X30931733Y-1537355D01*
X30940877Y-1555897D01*
X30959419Y-1574185D01*
X30977961Y-1583583D01*
X31014791Y-1583583D01*
X31033333Y-1574185D01*
X31051621Y-1555897D01*
X31061019Y-1537355D01*
X31070163Y-1509669D01*
X31070163Y-1463441D01*
X31061019Y-1435755D01*
X31051621Y-1417213D01*
X31033333Y-1398671D01*
X31014791Y-1389527D01*
X30977961Y-1389527D01*
X31131123Y-1389527D02*
G01*
X31131123Y-1583583D01*
X31131123Y-1389527D02*
G01*
X31205037Y-1583583D01*
X31278951Y-1389527D02*
G01*
X31205037Y-1583583D01*
X31278951Y-1389527D02*
G01*
X31278951Y-1583583D01*
X31349055Y-1537355D02*
G01*
X31339911Y-1546499D01*
X31349055Y-1555897D01*
X31358453Y-1546499D01*
X31349055Y-1537355D01*
X31419413Y-1389527D02*
G01*
X31419413Y-1583583D01*
X31419413Y-1389527D02*
G01*
X31502471Y-1389527D01*
X31530157Y-1398671D01*
X31539301Y-1408069D01*
X31548699Y-1426611D01*
X31548699Y-1444899D01*
X31539301Y-1463441D01*
X31530157Y-1472585D01*
X31502471Y-1481983D01*
X31419413Y-1481983D02*
G01*
X31502471Y-1481983D01*
X31530157Y-1491127D01*
X31539301Y-1500271D01*
X31548699Y-1518813D01*
X31548699Y-1546499D01*
X31539301Y-1565041D01*
X31530157Y-1574185D01*
X31502471Y-1583583D01*
X31419413Y-1583583D01*
X31609659Y-1389527D02*
G01*
X31609659Y-1583583D01*
X31609659Y-1389527D02*
G01*
X31692717Y-1389527D01*
X31720403Y-1398671D01*
X31729801Y-1408069D01*
X31738945Y-1426611D01*
X31738945Y-1444899D01*
X31729801Y-1463441D01*
X31720403Y-1472585D01*
X31692717Y-1481983D01*
X31609659Y-1481983D01*
X31674175Y-1481983D02*
G01*
X31738945Y-1583583D01*
D38*
X26337006Y-1344927D02*
G01*
X26337006Y-1516885D01*
X26337006Y-1516885D02*
G01*
X26435304Y-1516885D01*
X26489152Y-1344927D02*
G01*
X26489152Y-1516885D01*
X26489152Y-1344927D02*
G01*
X26595577Y-1344927D01*
X26489152Y-1426715D02*
G01*
X26554684Y-1426715D01*
X26489152Y-1516885D02*
G01*
X26595577Y-1516885D01*
X26649679Y-1344927D02*
G01*
X26649679Y-1516885D01*
X26649679Y-1344927D02*
G01*
X26706829Y-1344927D01*
X26731468Y-1353055D01*
X26747724Y-1369565D01*
X26755852Y-1385821D01*
X26764234Y-1410459D01*
X26764234Y-1451353D01*
X26755852Y-1475991D01*
X26747724Y-1492247D01*
X26731468Y-1508503D01*
X26706829Y-1516885D01*
X26649679Y-1516885D01*
X26944065Y-1344927D02*
G01*
X26944065Y-1516885D01*
X27058620Y-1344927D02*
G01*
X26944065Y-1459481D01*
X26984959Y-1418587D02*
G01*
X27058620Y-1516885D01*
X27112722Y-1344927D02*
G01*
X27178254Y-1426715D01*
X27178254Y-1516885D01*
X27243532Y-1344927D02*
G01*
X27178254Y-1426715D01*
X27297634Y-1443225D02*
G01*
X27444954Y-1443225D01*
X27548077Y-1344927D02*
G01*
X27523440Y-1353055D01*
X27506929Y-1377693D01*
X27498802Y-1418587D01*
X27498802Y-1443225D01*
X27506929Y-1484119D01*
X27523440Y-1508503D01*
X27548077Y-1516885D01*
X27564334Y-1516885D01*
X27588972Y-1508503D01*
X27605227Y-1484119D01*
X27613356Y-1443225D01*
X27613356Y-1418587D01*
X27605227Y-1377693D01*
X27588972Y-1353055D01*
X27564334Y-1344927D01*
X27548077Y-1344927D01*
X27667458Y-1377693D02*
G01*
X27683713Y-1369565D01*
X27708352Y-1344927D01*
X27708352Y-1516885D01*
X27860498Y-1369565D02*
G01*
X27852370Y-1353055D01*
X27827732Y-1344927D01*
X27811475Y-1344927D01*
X27786838Y-1353055D01*
X27770582Y-1377693D01*
X27762200Y-1418587D01*
X27762200Y-1459481D01*
X27770582Y-1492247D01*
X27786838Y-1508503D01*
X27811475Y-1516885D01*
X27819604Y-1516885D01*
X27844241Y-1508503D01*
X27860498Y-1492247D01*
X27868625Y-1467609D01*
X27868625Y-1459481D01*
X27860498Y-1434843D01*
X27844241Y-1418587D01*
X27819604Y-1410459D01*
X27811475Y-1410459D01*
X27786838Y-1418587D01*
X27770582Y-1434843D01*
X27762200Y-1459481D01*
X26418067Y-1020638D02*
G01*
X26409685Y-1004382D01*
X26393429Y-987872D01*
X26377173Y-979744D01*
X26344407Y-979744D01*
X26327897Y-987872D01*
X26311641Y-1004382D01*
X26303513Y-1020638D01*
X26295131Y-1045276D01*
X26295131Y-1086170D01*
X26303513Y-1110554D01*
X26311641Y-1127064D01*
X26327897Y-1143320D01*
X26344407Y-1151702D01*
X26377173Y-1151702D01*
X26393429Y-1143320D01*
X26409685Y-1127064D01*
X26418067Y-1110554D01*
X26418067Y-1086170D01*
X26377173Y-1086170D02*
G01*
X26418067Y-1086170D01*
X26471915Y-979744D02*
G01*
X26471915Y-1151702D01*
X26471915Y-979744D02*
G01*
X26586469Y-1151702D01*
X26586469Y-979744D02*
G01*
X26586469Y-1151702D01*
X26640571Y-979744D02*
G01*
X26640571Y-1151702D01*
X26640571Y-979744D02*
G01*
X26697721Y-979744D01*
X26722359Y-987872D01*
X26738615Y-1004382D01*
X26746997Y-1020638D01*
X26755125Y-1045276D01*
X26755125Y-1086170D01*
X26746997Y-1110554D01*
X26738615Y-1127064D01*
X26722359Y-1143320D01*
X26697721Y-1151702D01*
X26640571Y-1151702D01*
X26934957Y-979744D02*
G01*
X26934957Y-1151702D01*
X26934957Y-979744D02*
G01*
X27008617Y-979744D01*
X27033255Y-987872D01*
X27041383Y-996000D01*
X27049511Y-1012510D01*
X27049511Y-1028766D01*
X27041383Y-1045276D01*
X27033255Y-1053404D01*
X27008617Y-1061532D01*
X26934957Y-1061532D01*
X26992361Y-1061532D02*
G01*
X27049511Y-1151702D01*
X27352279Y-1020638D02*
G01*
X27344151Y-1004382D01*
X27327895Y-987872D01*
X27311385Y-979744D01*
X27278619Y-979744D01*
X27262363Y-987872D01*
X27245853Y-1004382D01*
X27237725Y-1020638D01*
X27229597Y-1045276D01*
X27229597Y-1086170D01*
X27237725Y-1110554D01*
X27245853Y-1127064D01*
X27262363Y-1143320D01*
X27278619Y-1151702D01*
X27311385Y-1151702D01*
X27327895Y-1143320D01*
X27344151Y-1127064D01*
X27352279Y-1110554D01*
X27352279Y-1086170D01*
X27311385Y-1086170D02*
G01*
X27352279Y-1086170D01*
X27532365Y-979744D02*
G01*
X27532365Y-1151702D01*
X27532365Y-979744D02*
G01*
X27606025Y-979744D01*
X27630409Y-987872D01*
X27638791Y-996000D01*
X27646919Y-1012510D01*
X27646919Y-1028766D01*
X27638791Y-1045276D01*
X27630409Y-1053404D01*
X27606025Y-1061532D01*
X27532365Y-1061532D02*
G01*
X27606025Y-1061532D01*
X27630409Y-1069660D01*
X27638791Y-1078042D01*
X27646919Y-1094298D01*
X27646919Y-1118936D01*
X27638791Y-1135192D01*
X27630409Y-1143320D01*
X27606025Y-1151702D01*
X27532365Y-1151702D01*
X29488991Y-961174D02*
G01*
X29482387Y-947458D01*
X29468671Y-933742D01*
X29454955Y-927138D01*
X29427777Y-927138D01*
X29414061Y-933742D01*
X29400599Y-947458D01*
X29393741Y-961174D01*
X29386883Y-981494D01*
X29386883Y-1015784D01*
X29393741Y-1036104D01*
X29400599Y-1049820D01*
X29414061Y-1063282D01*
X29427777Y-1070140D01*
X29454955Y-1070140D01*
X29468671Y-1063282D01*
X29482387Y-1049820D01*
X29488991Y-1036104D01*
X29534203Y-927138D02*
G01*
X29534203Y-1070140D01*
X29629453Y-927138D02*
G01*
X29629453Y-1070140D01*
X29534203Y-995210D02*
G01*
X29629453Y-995210D01*
X29729021Y-927138D02*
G01*
X29674665Y-1070140D01*
X29729021Y-927138D02*
G01*
X29783631Y-1070140D01*
X29694985Y-1022388D02*
G01*
X29763311Y-1022388D01*
X29828589Y-927138D02*
G01*
X29883199Y-1070140D01*
X29937809Y-927138D02*
G01*
X29883199Y-1070140D01*
X29982767Y-927138D02*
G01*
X29982767Y-1070140D01*
X29982767Y-927138D02*
G01*
X30071413Y-927138D01*
X29982767Y-995210D02*
G01*
X30037377Y-995210D01*
X29982767Y-1070140D02*
G01*
X30071413Y-1070140D01*
X30116371Y-954316D02*
G01*
X30130087Y-947458D01*
X30150407Y-927138D01*
X30150407Y-1070140D01*
X30843220Y-1010920D02*
G01*
X30836361Y-997204D01*
X30822645Y-983487D01*
X30808929Y-976629D01*
X30781752Y-976629D01*
X30768036Y-983487D01*
X30754574Y-997204D01*
X30747715Y-1010920D01*
X30740858Y-1031239D01*
X30740858Y-1065276D01*
X30747715Y-1085850D01*
X30754574Y-1099565D01*
X30768036Y-1113028D01*
X30781752Y-1119886D01*
X30808929Y-1119886D01*
X30822645Y-1113028D01*
X30836361Y-1099565D01*
X30843220Y-1085850D01*
X30888177Y-976629D02*
G01*
X30888177Y-1119886D01*
X30983682Y-976629D02*
G01*
X30983682Y-1119886D01*
X30888177Y-1044955D02*
G01*
X30983682Y-1044955D01*
X31082995Y-976629D02*
G01*
X31028640Y-1119886D01*
X31082995Y-976629D02*
G01*
X31137606Y-1119886D01*
X31048959Y-1072134D02*
G01*
X31117286Y-1072134D01*
X31182563Y-976629D02*
G01*
X31237174Y-1119886D01*
X31291784Y-976629D02*
G01*
X31237174Y-1119886D01*
X31336741Y-976629D02*
G01*
X31336741Y-1119886D01*
X31336741Y-976629D02*
G01*
X31425388Y-976629D01*
X31336741Y-1044955D02*
G01*
X31391352Y-1044955D01*
X31336741Y-1119886D02*
G01*
X31425388Y-1119886D01*
X31477204Y-1010920D02*
G01*
X31477204Y-1004062D01*
X31484061Y-990345D01*
X31490920Y-983487D01*
X31504382Y-976629D01*
X31531813Y-976629D01*
X31545275Y-983487D01*
X31552134Y-990345D01*
X31558991Y-1004062D01*
X31558991Y-1017523D01*
X31552134Y-1031239D01*
X31538672Y-1051813D01*
X31470345Y-1119886D01*
X31565850Y-1119886D01*
X26422604Y7502652D02*
G01*
X26422604Y7359395D01*
X26422604Y7502652D02*
G01*
X26484072Y7502652D01*
X26504391Y7495794D01*
X26511250Y7488936D01*
X26518108Y7475220D01*
X26518108Y7461758D01*
X26511250Y7448042D01*
X26504391Y7441184D01*
X26484072Y7434326D01*
X26422604Y7434326D01*
X26470356Y7434326D02*
G01*
X26518108Y7359395D01*
X26563065Y7502652D02*
G01*
X26563065Y7359395D01*
X26563065Y7502652D02*
G01*
X26651711Y7502652D01*
X26563065Y7434326D02*
G01*
X26617675Y7434326D01*
X26563065Y7359395D02*
G01*
X26651711Y7359395D01*
X26792174Y7482078D02*
G01*
X26778458Y7495794D01*
X26758138Y7502652D01*
X26730706Y7502652D01*
X26710386Y7495794D01*
X26696670Y7482078D01*
X26696670Y7468362D01*
X26703527Y7454900D01*
X26710386Y7448042D01*
X26724102Y7441184D01*
X26764995Y7427468D01*
X26778458Y7420610D01*
X26785315Y7414005D01*
X26792174Y7400289D01*
X26792174Y7379715D01*
X26778458Y7366254D01*
X26758138Y7359395D01*
X26730706Y7359395D01*
X26710386Y7366254D01*
X26696670Y7379715D01*
X26837132Y7502652D02*
G01*
X26837132Y7359395D01*
X26837132Y7502652D02*
G01*
X26925777Y7502652D01*
X26837132Y7434326D02*
G01*
X26891741Y7434326D01*
X26837132Y7359395D02*
G01*
X26925777Y7359395D01*
X27018488Y7502652D02*
G01*
X27018488Y7359395D01*
X26970736Y7502652D02*
G01*
X27066240Y7502652D01*
D39*
X31943281Y7501272D02*
G01*
X31953695Y7511432D01*
X31959029Y7527180D01*
X31959029Y7548008D01*
X31953695Y7563502D01*
X31943281Y7573916D01*
X31933121Y7573916D01*
X31922707Y7568582D01*
X31917373Y7563502D01*
X31912293Y7553088D01*
X31901879Y7521846D01*
X31896545Y7511432D01*
X31891465Y7506352D01*
X31881051Y7501272D01*
X31865557Y7501272D01*
X31855143Y7511432D01*
X31849809Y7527180D01*
X31849809Y7548008D01*
X31855143Y7563502D01*
X31865557Y7573916D01*
X31933121Y7389004D02*
G01*
X31943281Y7394084D01*
X31953695Y7404498D01*
X31959029Y7414912D01*
X31959029Y7435740D01*
X31953695Y7446154D01*
X31943281Y7456568D01*
X31933121Y7461648D01*
X31917373Y7466982D01*
X31891465Y7466982D01*
X31875971Y7461648D01*
X31865557Y7456568D01*
X31855143Y7446154D01*
X31849809Y7435740D01*
X31849809Y7414912D01*
X31855143Y7404498D01*
X31865557Y7394084D01*
X31875971Y7389004D01*
X31959029Y7354714D02*
G01*
X31849809Y7354714D01*
X31849809Y7354714D02*
G01*
X31849809Y7292230D01*
X31943281Y7105286D02*
G01*
X31953695Y7115700D01*
X31959029Y7131194D01*
X31959029Y7152022D01*
X31953695Y7167516D01*
X31943281Y7177930D01*
X31933121Y7177930D01*
X31922707Y7172850D01*
X31917373Y7167516D01*
X31912293Y7157102D01*
X31901879Y7126114D01*
X31896545Y7115700D01*
X31891465Y7110366D01*
X31881051Y7105286D01*
X31865557Y7105286D01*
X31855143Y7115700D01*
X31849809Y7131194D01*
X31849809Y7152022D01*
X31855143Y7167516D01*
X31865557Y7177930D01*
X31959029Y7070996D02*
G01*
X31849809Y7070996D01*
X31959029Y7070996D02*
G01*
X31959029Y7034674D01*
X31953695Y7018926D01*
X31943281Y7008512D01*
X31933121Y7003432D01*
X31917373Y6998352D01*
X31891465Y6998352D01*
X31875971Y7003432D01*
X31865557Y7008512D01*
X31855143Y7018926D01*
X31849809Y7034674D01*
X31849809Y7070996D01*
X31959029Y6922406D02*
G01*
X31849809Y6964062D01*
X31959029Y6922406D02*
G01*
X31849809Y6880750D01*
X31886131Y6948314D02*
G01*
X31886131Y6896498D01*
X31959029Y6704220D02*
G01*
X31959029Y6756036D01*
X31912293Y6761370D01*
X31917373Y6756036D01*
X31922707Y6740542D01*
X31922707Y6725048D01*
X31917373Y6709300D01*
X31906959Y6698886D01*
X31891465Y6693806D01*
X31881051Y6693806D01*
X31865557Y6698886D01*
X31855143Y6709300D01*
X31849809Y6725048D01*
X31849809Y6740542D01*
X31855143Y6756036D01*
X31860223Y6761370D01*
X31870637Y6766450D01*
X31959029Y6659516D02*
G01*
X31849809Y6617860D01*
X31959029Y6576458D02*
G01*
X31849809Y6617860D01*
X31933121Y6384180D02*
G01*
X31943281Y6389260D01*
X31953695Y6399674D01*
X31959029Y6410088D01*
X31959029Y6430916D01*
X31953695Y6441330D01*
X31943281Y6451744D01*
X31933121Y6456824D01*
X31917373Y6462158D01*
X31891465Y6462158D01*
X31875971Y6456824D01*
X31865557Y6451744D01*
X31855143Y6441330D01*
X31849809Y6430916D01*
X31849809Y6410088D01*
X31855143Y6399674D01*
X31865557Y6389260D01*
X31875971Y6384180D01*
X31891465Y6384180D01*
X31891465Y6410088D02*
G01*
X31891465Y6384180D01*
X31959029Y6349890D02*
G01*
X31849809Y6349890D01*
X31959029Y6349890D02*
G01*
X31849809Y6276992D01*
X31959029Y6276992D02*
G01*
X31849809Y6276992D01*
X31959029Y6242702D02*
G01*
X31849809Y6242702D01*
X31959029Y6242702D02*
G01*
X31959029Y6206380D01*
X31953695Y6190886D01*
X31943281Y6180472D01*
X31933121Y6175392D01*
X31917373Y6170058D01*
X31891465Y6170058D01*
X31875971Y6175392D01*
X31865557Y6180472D01*
X31855143Y6190886D01*
X31849809Y6206380D01*
X31849809Y6242702D01*
X31878955Y3937030D02*
G01*
X31769989Y3937030D01*
X31878955Y3937030D02*
G01*
X31878955Y3890294D01*
X31873875Y3874546D01*
X31868541Y3869466D01*
X31858127Y3864132D01*
X31847713Y3864132D01*
X31837299Y3869466D01*
X31832219Y3874546D01*
X31827139Y3890294D01*
X31827139Y3937030D01*
X31827139Y3900708D02*
G01*
X31769989Y3864132D01*
X31878955Y3829842D02*
G01*
X31769989Y3757198D01*
X31878955Y3757198D02*
G01*
X31769989Y3829842D01*
X31878955Y3686586D02*
G01*
X31769989Y3686586D01*
X31878955Y3722908D02*
G01*
X31878955Y3650264D01*
X31878955Y3615974D02*
G01*
X31769989Y3543076D01*
X31878955Y3543076D02*
G01*
X31769989Y3615974D01*
X31853047Y3431062D02*
G01*
X31863461Y3436142D01*
X31873875Y3446556D01*
X31878955Y3456970D01*
X31878955Y3477798D01*
X31873875Y3488212D01*
X31863461Y3498372D01*
X31853047Y3503706D01*
X31837299Y3508786D01*
X31811391Y3508786D01*
X31795897Y3503706D01*
X31785483Y3498372D01*
X31775069Y3488212D01*
X31769989Y3477798D01*
X31769989Y3456970D01*
X31775069Y3446556D01*
X31785483Y3436142D01*
X31795897Y3431062D01*
X31811391Y3431062D01*
X31811391Y3456970D02*
G01*
X31811391Y3431062D01*
X31878955Y3396772D02*
G01*
X31769989Y3396772D01*
X31878955Y3396772D02*
G01*
X31769989Y3323874D01*
X31878955Y3323874D02*
G01*
X31769989Y3323874D01*
X31878955Y3289584D02*
G01*
X31769989Y3289584D01*
X31878955Y3289584D02*
G01*
X31878955Y3253262D01*
X31873875Y3237768D01*
X31863461Y3227354D01*
X31853047Y3222020D01*
X31837299Y3216940D01*
X31811391Y3216940D01*
X31795897Y3222020D01*
X31785483Y3227354D01*
X31775069Y3237768D01*
X31769989Y3253262D01*
X31769989Y3289584D01*
X31878955Y3120166D02*
G01*
X31878955Y3172236D01*
X31832219Y3177316D01*
X31837299Y3172236D01*
X31842633Y3156742D01*
X31842633Y3140994D01*
X31837299Y3125500D01*
X31827139Y3115086D01*
X31811391Y3109752D01*
X31800977Y3109752D01*
X31785483Y3115086D01*
X31775069Y3125500D01*
X31769989Y3140994D01*
X31769989Y3156742D01*
X31775069Y3172236D01*
X31780149Y3177316D01*
X31790563Y3182650D01*
X31878955Y3075462D02*
G01*
X31769989Y3034060D01*
X31878955Y2992404D02*
G01*
X31769989Y3034060D01*
X32588296Y4334799D02*
G01*
X32479076Y4334799D01*
X32588296Y4334799D02*
G01*
X32588296Y4287809D01*
X32582962Y4272315D01*
X32577882Y4267235D01*
X32567468Y4261901D01*
X32557054Y4261901D01*
X32546640Y4267235D01*
X32541560Y4272315D01*
X32536226Y4287809D01*
X32536226Y4334799D02*
G01*
X32536226Y4287809D01*
X32531146Y4272315D01*
X32525812Y4267235D01*
X32515652Y4261901D01*
X32499904Y4261901D01*
X32489490Y4267235D01*
X32484410Y4272315D01*
X32479076Y4287809D01*
X32479076Y4334799D01*
X32588296Y4227611D02*
G01*
X32479076Y4227611D01*
X32479076Y4227611D02*
G01*
X32479076Y4165381D01*
X32588296Y4131091D02*
G01*
X32510318Y4131091D01*
X32494824Y4125757D01*
X32484410Y4115343D01*
X32479076Y4099849D01*
X32479076Y4089435D01*
X32484410Y4073941D01*
X32494824Y4063527D01*
X32510318Y4058193D01*
X32588296Y4058193D01*
X32588296Y4023903D02*
G01*
X32479076Y4023903D01*
X32588296Y4023903D02*
G01*
X32588296Y3956339D01*
X32536226Y4023903D02*
G01*
X32536226Y3982501D01*
X32479076Y4023903D02*
G01*
X32479076Y3956339D01*
X32588296Y3885727D02*
G01*
X32479076Y3885727D01*
X32588296Y3922049D02*
G01*
X32588296Y3849405D01*
X32588296Y3783873D02*
G01*
X32582962Y3794287D01*
X32572802Y3804701D01*
X32562388Y3810035D01*
X32546640Y3815115D01*
X32520732Y3815115D01*
X32505238Y3810035D01*
X32494824Y3804701D01*
X32484410Y3794287D01*
X32479076Y3783873D01*
X32479076Y3763299D01*
X32484410Y3752885D01*
X32494824Y3742471D01*
X32505238Y3737137D01*
X32520732Y3732057D01*
X32546640Y3732057D01*
X32562388Y3737137D01*
X32572802Y3742471D01*
X32582962Y3752885D01*
X32588296Y3763299D01*
X32588296Y3783873D01*
X32588296Y3666525D02*
G01*
X32582962Y3676939D01*
X32572802Y3687353D01*
X32562388Y3692433D01*
X32546640Y3697767D01*
X32520732Y3697767D01*
X32505238Y3692433D01*
X32494824Y3687353D01*
X32484410Y3676939D01*
X32479076Y3666525D01*
X32479076Y3645697D01*
X32484410Y3635283D01*
X32494824Y3624869D01*
X32505238Y3619789D01*
X32520732Y3614709D01*
X32546640Y3614709D01*
X32562388Y3619789D01*
X32572802Y3624869D01*
X32582962Y3635283D01*
X32588296Y3645697D01*
X32588296Y3666525D01*
X32588296Y3543843D02*
G01*
X32479076Y3543843D01*
X32588296Y3580419D02*
G01*
X32588296Y3507521D01*
X32588296Y3473231D02*
G01*
X32479076Y3473231D01*
X32588296Y3400587D02*
G01*
X32479076Y3400587D01*
X32536226Y3473231D02*
G01*
X32536226Y3400587D01*
X32588296Y3286287D02*
G01*
X32479076Y3286287D01*
X32588296Y3213389D02*
G01*
X32479076Y3213389D01*
X32536226Y3286287D02*
G01*
X32536226Y3213389D01*
X32562388Y3101375D02*
G01*
X32572802Y3106455D01*
X32582962Y3116869D01*
X32588296Y3127283D01*
X32588296Y3148111D01*
X32582962Y3158525D01*
X32572802Y3168939D01*
X32562388Y3174019D01*
X32546640Y3179099D01*
X32520732Y3179099D01*
X32505238Y3174019D01*
X32494824Y3168939D01*
X32484410Y3158525D01*
X32479076Y3148111D01*
X32479076Y3127283D01*
X32484410Y3116869D01*
X32494824Y3106455D01*
X32505238Y3101375D01*
X32525812Y3067085D02*
G01*
X32525812Y2973359D01*
X32588296Y2908081D02*
G01*
X32582962Y2923575D01*
X32567468Y2933989D01*
X32541560Y2939069D01*
X32525812Y2939069D01*
X32499904Y2933989D01*
X32484410Y2923575D01*
X32479076Y2908081D01*
X32479076Y2897667D01*
X32484410Y2881919D01*
X32499904Y2871759D01*
X32525812Y2866425D01*
X32541560Y2866425D01*
X32567468Y2871759D01*
X32582962Y2881919D01*
X32588296Y2897667D01*
X32588296Y2908081D01*
X32572802Y2769905D02*
G01*
X32582962Y2774985D01*
X32588296Y2790479D01*
X32588296Y2800893D01*
X32582962Y2816641D01*
X32567468Y2827055D01*
X32541560Y2832135D01*
X32515652Y2832135D01*
X32494824Y2827055D01*
X32484410Y2816641D01*
X32479076Y2800893D01*
X32479076Y2795813D01*
X32484410Y2780319D01*
X32494824Y2769905D01*
X32510318Y2764571D01*
X32515652Y2764571D01*
X32531146Y2769905D01*
X32541560Y2780319D01*
X32546640Y2795813D01*
X32546640Y2800893D01*
X32541560Y2816641D01*
X32531146Y2827055D01*
X32515652Y2832135D01*
D38*
X25419649Y2848183D02*
G01*
X25405933Y2841325D01*
X25392217Y2827609D01*
X25385613Y2814147D01*
X25385613Y2786715D01*
X25392217Y2773253D01*
X25405933Y2759537D01*
X25419649Y2752679D01*
X25439969Y2745821D01*
X25474005Y2745821D01*
X25494579Y2752679D01*
X25508295Y2759537D01*
X25521757Y2773253D01*
X25528615Y2786715D01*
X25528615Y2814147D01*
X25521757Y2827609D01*
X25508295Y2841325D01*
X25494579Y2848183D01*
X25474005Y2848183D01*
X25474005Y2814147D02*
G01*
X25474005Y2848183D01*
X25385613Y2893141D02*
G01*
X25528615Y2893141D01*
X25385613Y2893141D02*
G01*
X25528615Y2988645D01*
X25385613Y2988645D02*
G01*
X25528615Y2988645D01*
X25385613Y3033603D02*
G01*
X25528615Y3033603D01*
X25385613Y3033603D02*
G01*
X25385613Y3081355D01*
X25392217Y3101929D01*
X25405933Y3115391D01*
X25419649Y3122249D01*
X25439969Y3129107D01*
X25474005Y3129107D01*
X25494579Y3122249D01*
X25508295Y3115391D01*
X25521757Y3101929D01*
X25528615Y3081355D01*
X25528615Y3033603D01*
X25385613Y3438733D02*
G01*
X25528615Y3384123D01*
X25385613Y3438733D02*
G01*
X25528615Y3493089D01*
X25480863Y3404443D02*
G01*
X25480863Y3472769D01*
X25385613Y3551763D02*
G01*
X25385613Y3626693D01*
X25439969Y3585799D01*
X25439969Y3606373D01*
X25446827Y3620089D01*
X25453685Y3626693D01*
X25474005Y3633551D01*
X25487721Y3633551D01*
X25508295Y3626693D01*
X25521757Y3613231D01*
X25528615Y3592657D01*
X25528615Y3572337D01*
X25521757Y3551763D01*
X25515153Y3544905D01*
X25501437Y3538047D01*
X25385613Y3797381D02*
G01*
X25385613Y3872311D01*
X25439969Y3831417D01*
X25439969Y3851737D01*
X25446827Y3865453D01*
X25453685Y3872311D01*
X25474005Y3879169D01*
X25487721Y3879169D01*
X25508295Y3872311D01*
X25521757Y3858595D01*
X25528615Y3838275D01*
X25528615Y3817701D01*
X25521757Y3797381D01*
X25515153Y3790523D01*
X25501437Y3783665D01*
X25501437Y3937589D02*
G01*
X25508295Y3930985D01*
X25501437Y3924127D01*
X25494579Y3930985D01*
X25501437Y3937589D01*
X25515153Y3937589D01*
X25528615Y3924127D01*
X25385613Y3996263D02*
G01*
X25385613Y4071447D01*
X25439969Y4030553D01*
X25439969Y4050873D01*
X25446827Y4064589D01*
X25453685Y4071447D01*
X25474005Y4078051D01*
X25487721Y4078051D01*
X25508295Y4071447D01*
X25521757Y4057731D01*
X25528615Y4037157D01*
X25528615Y4016837D01*
X25521757Y3996263D01*
X25515153Y3989405D01*
X25501437Y3982801D01*
X25385613Y4123263D02*
G01*
X25528615Y4177619D01*
X25385613Y4232229D02*
G01*
X25528615Y4177619D01*
X27082259Y3033252D02*
G01*
X27082259Y2861294D01*
X27082259Y3033252D02*
G01*
X27147537Y2861294D01*
X27213069Y3033252D02*
G01*
X27147537Y2861294D01*
X27213069Y3033252D02*
G01*
X27213069Y2861294D01*
X27316193Y3033252D02*
G01*
X27299683Y3025124D01*
X27283427Y3008614D01*
X27275299Y2992358D01*
X27267171Y2967720D01*
X27267171Y2926826D01*
X27275299Y2902442D01*
X27283427Y2885932D01*
X27299683Y2869676D01*
X27316193Y2861294D01*
X27348959Y2861294D01*
X27365215Y2869676D01*
X27381725Y2885932D01*
X27389853Y2902442D01*
X27397981Y2926826D01*
X27397981Y2967720D01*
X27389853Y2992358D01*
X27381725Y3008614D01*
X27365215Y3025124D01*
X27348959Y3033252D01*
X27316193Y3033252D01*
X27509233Y3033252D02*
G01*
X27509233Y2861294D01*
X27452083Y3033252D02*
G01*
X27566383Y3033252D01*
X27669507Y3033252D02*
G01*
X27653251Y3025124D01*
X27636995Y3008614D01*
X27628613Y2992358D01*
X27620485Y2967720D01*
X27620485Y2926826D01*
X27628613Y2902442D01*
X27636995Y2885932D01*
X27653251Y2869676D01*
X27669507Y2861294D01*
X27702273Y2861294D01*
X27718783Y2869676D01*
X27735039Y2885932D01*
X27743167Y2902442D01*
X27751295Y2926826D01*
X27751295Y2967720D01*
X27743167Y2992358D01*
X27735039Y3008614D01*
X27718783Y3025124D01*
X27702273Y3033252D01*
X27669507Y3033252D01*
X27805397Y3033252D02*
G01*
X27805397Y2861294D01*
X27805397Y3033252D02*
G01*
X27879057Y3033252D01*
X27903695Y3025124D01*
X27911823Y3016742D01*
X27919951Y3000486D01*
X27919951Y2984230D01*
X27911823Y2967720D01*
X27903695Y2959592D01*
X27879057Y2951464D01*
X27805397Y2951464D01*
X27862801Y2951464D02*
G01*
X27919951Y2861294D01*
X28100037Y3000486D02*
G01*
X28116293Y3008614D01*
X28140931Y3033252D01*
X28140931Y2861294D01*
X27130623Y2784475D02*
G01*
X27086935Y2669920D01*
X27130623Y2784475D02*
G01*
X27174311Y2669920D01*
X27103191Y2708020D02*
G01*
X27157801Y2708020D01*
X27210125Y2762630D02*
G01*
X27221047Y2768219D01*
X27237557Y2784475D01*
X27237557Y2669920D01*
X27401133Y2784475D02*
G01*
X27357445Y2669920D01*
X27401133Y2784475D02*
G01*
X27444821Y2669920D01*
X27373955Y2708020D02*
G01*
X27428311Y2708020D01*
X27486223Y2757296D02*
G01*
X27486223Y2762630D01*
X27491557Y2773553D01*
X27497145Y2779140D01*
X27508067Y2784475D01*
X27529911Y2784475D01*
X27540833Y2779140D01*
X27546167Y2773553D01*
X27551755Y2762630D01*
X27551755Y2751709D01*
X27546167Y2740787D01*
X27535245Y2724530D01*
X27480889Y2669920D01*
X27557089Y2669920D01*
X27677231Y2784475D02*
G01*
X27677231Y2669920D01*
X27677231Y2784475D02*
G01*
X27726253Y2784475D01*
X27742509Y2779140D01*
X27748097Y2773553D01*
X27753431Y2762630D01*
X27753431Y2751709D01*
X27748097Y2740787D01*
X27742509Y2735453D01*
X27726253Y2729864D01*
X27677231Y2729864D02*
G01*
X27726253Y2729864D01*
X27742509Y2724530D01*
X27748097Y2718943D01*
X27753431Y2708020D01*
X27753431Y2691764D01*
X27748097Y2680843D01*
X27742509Y2675509D01*
X27726253Y2669920D01*
X27677231Y2669920D01*
X27789499Y2762630D02*
G01*
X27800421Y2768219D01*
X27816677Y2784475D01*
X27816677Y2669920D01*
X27936819Y2784475D02*
G01*
X27936819Y2669920D01*
X27936819Y2784475D02*
G01*
X27985841Y2784475D01*
X28002097Y2779140D01*
X28007685Y2773553D01*
X28013019Y2762630D01*
X28013019Y2751709D01*
X28007685Y2740787D01*
X28002097Y2735453D01*
X27985841Y2729864D01*
X27936819Y2729864D02*
G01*
X27985841Y2729864D01*
X28002097Y2724530D01*
X28007685Y2718943D01*
X28013019Y2708020D01*
X28013019Y2691764D01*
X28007685Y2680843D01*
X28002097Y2675509D01*
X27985841Y2669920D01*
X27936819Y2669920D01*
X28054675Y2757296D02*
G01*
X28054675Y2762630D01*
X28060009Y2773553D01*
X28065597Y2779140D01*
X28076519Y2784475D01*
X28098109Y2784475D01*
X28109031Y2779140D01*
X28114619Y2773553D01*
X28119953Y2762630D01*
X28119953Y2751709D01*
X28114619Y2740787D01*
X28103697Y2724530D01*
X28049087Y2669920D01*
X28125541Y2669920D01*
X29133038Y3006089D02*
G01*
X29133038Y2834131D01*
X29133038Y3006089D02*
G01*
X29198315Y2834131D01*
X29263848Y3006089D02*
G01*
X29198315Y2834131D01*
X29263848Y3006089D02*
G01*
X29263848Y2834131D01*
X29366972Y3006089D02*
G01*
X29350461Y2997962D01*
X29334206Y2981452D01*
X29326077Y2965195D01*
X29317950Y2940557D01*
X29317950Y2899663D01*
X29326077Y2875026D01*
X29334206Y2858770D01*
X29350461Y2842513D01*
X29366972Y2834131D01*
X29399738Y2834131D01*
X29415993Y2842513D01*
X29432504Y2858770D01*
X29440632Y2875026D01*
X29448759Y2899663D01*
X29448759Y2940557D01*
X29440632Y2965195D01*
X29432504Y2981452D01*
X29415993Y2997962D01*
X29399738Y3006089D01*
X29366972Y3006089D01*
X29560011Y3006089D02*
G01*
X29560011Y2834131D01*
X29502861Y3006089D02*
G01*
X29617415Y3006089D01*
X29720286Y3006089D02*
G01*
X29704029Y2997962D01*
X29687774Y2981452D01*
X29679391Y2965195D01*
X29671263Y2940557D01*
X29671263Y2899663D01*
X29679391Y2875026D01*
X29687774Y2858770D01*
X29704029Y2842513D01*
X29720286Y2834131D01*
X29753052Y2834131D01*
X29769561Y2842513D01*
X29785818Y2858770D01*
X29793945Y2875026D01*
X29802327Y2899663D01*
X29802327Y2940557D01*
X29793945Y2965195D01*
X29785818Y2981452D01*
X29769561Y2997962D01*
X29753052Y3006089D01*
X29720286Y3006089D01*
X29856175Y3006089D02*
G01*
X29856175Y2834131D01*
X29856175Y3006089D02*
G01*
X29929836Y3006089D01*
X29954474Y2997962D01*
X29962602Y2989579D01*
X29970729Y2973323D01*
X29970729Y2957068D01*
X29962602Y2940557D01*
X29954474Y2932429D01*
X29929836Y2924302D01*
X29856175Y2924302D01*
X29913579Y2924302D02*
G01*
X29970729Y2834131D01*
X30158943Y2965195D02*
G01*
X30158943Y2973323D01*
X30167072Y2989579D01*
X30175200Y2997962D01*
X30191709Y3006089D01*
X30224475Y3006089D01*
X30240732Y2997962D01*
X30248859Y2989579D01*
X30257241Y2973323D01*
X30257241Y2957068D01*
X30248859Y2940557D01*
X30232604Y2915920D01*
X30150815Y2834131D01*
X30265370Y2834131D01*
X29181419Y2757276D02*
G01*
X29137731Y2642722D01*
X29181419Y2757276D02*
G01*
X29225107Y2642722D01*
X29153987Y2680822D02*
G01*
X29208597Y2680822D01*
X29260921Y2735432D02*
G01*
X29271843Y2741020D01*
X29288353Y2757276D01*
X29288353Y2642722D01*
X29451929Y2757276D02*
G01*
X29408241Y2642722D01*
X29451929Y2757276D02*
G01*
X29495617Y2642722D01*
X29424751Y2680822D02*
G01*
X29479107Y2680822D01*
X29537019Y2730098D02*
G01*
X29537019Y2735432D01*
X29542353Y2746354D01*
X29547941Y2751942D01*
X29558863Y2757276D01*
X29580707Y2757276D01*
X29591629Y2751942D01*
X29596963Y2746354D01*
X29602551Y2735432D01*
X29602551Y2724510D01*
X29596963Y2713588D01*
X29586041Y2697332D01*
X29531685Y2642722D01*
X29607885Y2642722D01*
X29728027Y2757276D02*
G01*
X29728027Y2642722D01*
X29728027Y2757276D02*
G01*
X29777049Y2757276D01*
X29793305Y2751942D01*
X29798893Y2746354D01*
X29804227Y2735432D01*
X29804227Y2724510D01*
X29798893Y2713588D01*
X29793305Y2708254D01*
X29777049Y2702666D01*
X29728027Y2702666D02*
G01*
X29777049Y2702666D01*
X29793305Y2697332D01*
X29798893Y2691744D01*
X29804227Y2680822D01*
X29804227Y2664566D01*
X29798893Y2653644D01*
X29793305Y2648310D01*
X29777049Y2642722D01*
X29728027Y2642722D01*
X29840295Y2735432D02*
G01*
X29851217Y2741020D01*
X29867473Y2757276D01*
X29867473Y2642722D01*
X29987615Y2757276D02*
G01*
X29987615Y2642722D01*
X29987615Y2757276D02*
G01*
X30036637Y2757276D01*
X30052893Y2751942D01*
X30058481Y2746354D01*
X30063815Y2735432D01*
X30063815Y2724510D01*
X30058481Y2713588D01*
X30052893Y2708254D01*
X30036637Y2702666D01*
X29987615Y2702666D02*
G01*
X30036637Y2702666D01*
X30052893Y2697332D01*
X30058481Y2691744D01*
X30063815Y2680822D01*
X30063815Y2664566D01*
X30058481Y2653644D01*
X30052893Y2648310D01*
X30036637Y2642722D01*
X29987615Y2642722D01*
X30105471Y2730098D02*
G01*
X30105471Y2735432D01*
X30110805Y2746354D01*
X30116393Y2751942D01*
X30127315Y2757276D01*
X30148905Y2757276D01*
X30159827Y2751942D01*
X30165415Y2746354D01*
X30170749Y2735432D01*
X30170749Y2724510D01*
X30165415Y2713588D01*
X30154493Y2697332D01*
X30099883Y2642722D01*
X30176337Y2642722D01*
X28171907Y3532779D02*
G01*
X28343611Y3532779D01*
X28171907Y3532779D02*
G01*
X28343611Y3598311D01*
X28171907Y3663589D02*
G01*
X28343611Y3598311D01*
X28171907Y3663589D02*
G01*
X28343611Y3663589D01*
X28171907Y3766713D02*
G01*
X28180035Y3750457D01*
X28196545Y3733947D01*
X28212801Y3725819D01*
X28237439Y3717691D01*
X28278333Y3717691D01*
X28302717Y3725819D01*
X28319227Y3733947D01*
X28335483Y3750457D01*
X28343611Y3766713D01*
X28343611Y3799479D01*
X28335483Y3815989D01*
X28319227Y3832245D01*
X28302717Y3840373D01*
X28278333Y3848501D01*
X28237439Y3848501D01*
X28212801Y3840373D01*
X28196545Y3832245D01*
X28180035Y3815989D01*
X28171907Y3799479D01*
X28171907Y3766713D01*
X28171907Y3960007D02*
G01*
X28343611Y3960007D01*
X28171907Y3902603D02*
G01*
X28171907Y4017157D01*
X28171907Y4120281D02*
G01*
X28180035Y4103771D01*
X28196545Y4087515D01*
X28212801Y4079387D01*
X28237439Y4071259D01*
X28278333Y4071259D01*
X28302717Y4079387D01*
X28319227Y4087515D01*
X28335483Y4103771D01*
X28343611Y4120281D01*
X28343611Y4153047D01*
X28335483Y4169303D01*
X28319227Y4185813D01*
X28302717Y4193941D01*
X28278333Y4202069D01*
X28237439Y4202069D01*
X28212801Y4193941D01*
X28196545Y4185813D01*
X28180035Y4169303D01*
X28171907Y4153047D01*
X28171907Y4120281D01*
X28171907Y4256171D02*
G01*
X28343611Y4256171D01*
X28171907Y4256171D02*
G01*
X28171907Y4329577D01*
X28180035Y4354215D01*
X28188163Y4362343D01*
X28204673Y4370725D01*
X28220929Y4370725D01*
X28237439Y4362343D01*
X28245567Y4354215D01*
X28253695Y4329577D01*
X28253695Y4256171D01*
X28253695Y4313321D02*
G01*
X28343611Y4370725D01*
X28171907Y4567067D02*
G01*
X28171907Y4656983D01*
X28237439Y4607961D01*
X28237439Y4632345D01*
X28245567Y4648855D01*
X28253695Y4656983D01*
X28278333Y4665111D01*
X28294589Y4665111D01*
X28319227Y4656983D01*
X28335483Y4640727D01*
X28343611Y4616089D01*
X28343611Y4591451D01*
X28335483Y4567067D01*
X28327355Y4558685D01*
X28311099Y4550557D01*
X28420644Y3628072D02*
G01*
X28535203Y3584381D01*
X28420644Y3628072D02*
G01*
X28535203Y3671763D01*
X28497103Y3600640D02*
G01*
X28497103Y3655250D01*
X28442493Y3707574D02*
G01*
X28436905Y3718493D01*
X28420644Y3735006D01*
X28535203Y3735006D01*
X28420644Y3898582D02*
G01*
X28535203Y3854891D01*
X28420644Y3898582D02*
G01*
X28535203Y3942267D01*
X28497103Y3871401D02*
G01*
X28497103Y3925763D01*
X28447827Y3983672D02*
G01*
X28442493Y3983672D01*
X28431571Y3989006D01*
X28425978Y3994591D01*
X28420644Y4005516D01*
X28420644Y4027363D01*
X28425978Y4038282D01*
X28431571Y4043616D01*
X28442493Y4049201D01*
X28453412Y4049201D01*
X28464337Y4043616D01*
X28480593Y4032691D01*
X28535203Y3978335D01*
X28535203Y4054535D01*
X28420644Y4174677D02*
G01*
X28535203Y4174677D01*
X28420644Y4174677D02*
G01*
X28420644Y4223699D01*
X28425978Y4239958D01*
X28431571Y4245543D01*
X28442493Y4250877D01*
X28453412Y4250877D01*
X28464337Y4245543D01*
X28469671Y4239958D01*
X28475259Y4223699D01*
X28475259Y4174677D02*
G01*
X28475259Y4223699D01*
X28480593Y4239958D01*
X28486178Y4245543D01*
X28497103Y4250877D01*
X28513359Y4250877D01*
X28524278Y4245543D01*
X28529612Y4239958D01*
X28535203Y4223699D01*
X28535203Y4174677D01*
X28442493Y4286948D02*
G01*
X28436905Y4297867D01*
X28420644Y4314126D01*
X28535203Y4314126D01*
X28420644Y4434265D02*
G01*
X28535203Y4434265D01*
X28420644Y4434265D02*
G01*
X28420644Y4483290D01*
X28425978Y4499543D01*
X28431571Y4505131D01*
X28442493Y4510465D01*
X28453412Y4510465D01*
X28464337Y4505131D01*
X28469671Y4499543D01*
X28475259Y4483290D01*
X28475259Y4434265D02*
G01*
X28475259Y4483290D01*
X28480593Y4499543D01*
X28486178Y4505131D01*
X28497103Y4510465D01*
X28513359Y4510465D01*
X28524278Y4505131D01*
X28529612Y4499543D01*
X28535203Y4483290D01*
X28535203Y4434265D01*
X28447827Y4552124D02*
G01*
X28442493Y4552124D01*
X28431571Y4557458D01*
X28425978Y4563043D01*
X28420644Y4573965D01*
X28420644Y4595558D01*
X28425978Y4606477D01*
X28431571Y4612065D01*
X28442493Y4617399D01*
X28453412Y4617399D01*
X28464337Y4612065D01*
X28480593Y4601143D01*
X28535203Y4546533D01*
X28535203Y4622990D01*
X27108878Y3468176D02*
G01*
X27239688Y3468176D01*
X27264326Y3460048D01*
X27272454Y3451666D01*
X27280582Y3435410D01*
X27280582Y3418900D01*
X27272454Y3402644D01*
X27264326Y3394516D01*
X27239688Y3386388D01*
X27223432Y3386388D01*
X27166028Y3562918D02*
G01*
X27174156Y3546662D01*
X27190666Y3530406D01*
X27215050Y3522024D01*
X27231560Y3522024D01*
X27256198Y3530406D01*
X27272454Y3546662D01*
X27280582Y3562918D01*
X27280582Y3587556D01*
X27272454Y3603812D01*
X27256198Y3620322D01*
X27231560Y3628450D01*
X27215050Y3628450D01*
X27190666Y3620322D01*
X27174156Y3603812D01*
X27166028Y3587556D01*
X27166028Y3562918D01*
X27166028Y3690680D02*
G01*
X27280582Y3739702D01*
X27166028Y3788724D02*
G01*
X27280582Y3739702D01*
X27313348Y3723446D01*
X27329604Y3706936D01*
X27337986Y3690680D01*
X27337986Y3682552D01*
X27190666Y3932742D02*
G01*
X27174156Y3924614D01*
X27166028Y3900230D01*
X27166028Y3875592D01*
X27174156Y3850954D01*
X27190666Y3842826D01*
X27206922Y3850954D01*
X27215050Y3867464D01*
X27223432Y3908358D01*
X27231560Y3924614D01*
X27247816Y3932742D01*
X27256198Y3932742D01*
X27272454Y3924614D01*
X27280582Y3900230D01*
X27280582Y3875592D01*
X27272454Y3850954D01*
X27256198Y3842826D01*
X27108878Y4011482D02*
G01*
X27247816Y4011482D01*
X27272454Y4019610D01*
X27280582Y4035866D01*
X27280582Y4052376D01*
X27166028Y3986844D02*
G01*
X27166028Y4043994D01*
X27108878Y4106224D02*
G01*
X27117006Y4114352D01*
X27108878Y4122734D01*
X27100750Y4114352D01*
X27108878Y4106224D01*
X27166028Y4114352D02*
G01*
X27280582Y4114352D01*
X27190666Y4274880D02*
G01*
X27174156Y4258370D01*
X27166028Y4242114D01*
X27166028Y4217476D01*
X27174156Y4201220D01*
X27190666Y4184710D01*
X27215050Y4176582D01*
X27231560Y4176582D01*
X27256198Y4184710D01*
X27272454Y4201220D01*
X27280582Y4217476D01*
X27280582Y4242114D01*
X27272454Y4258370D01*
X27256198Y4274880D01*
X27108878Y4328728D02*
G01*
X27280582Y4328728D01*
X27166028Y4410770D02*
G01*
X27247816Y4328728D01*
X27215050Y4361494D02*
G01*
X27280582Y4418898D01*
X26958371Y3294687D02*
G01*
X26949227Y3290115D01*
X26940083Y3280971D01*
X26935511Y3271827D01*
X26935511Y3253793D01*
X26940083Y3244649D01*
X26949227Y3235505D01*
X26958371Y3230933D01*
X26972087Y3226615D01*
X26994693Y3226615D01*
X27008409Y3230933D01*
X27017553Y3235505D01*
X27026443Y3244649D01*
X27031015Y3253793D01*
X27031015Y3271827D01*
X27026443Y3280971D01*
X27017553Y3290115D01*
X27008409Y3294687D01*
X26994693Y3294687D01*
X26994693Y3271827D02*
G01*
X26994693Y3294687D01*
X26935511Y3324659D02*
G01*
X27031015Y3324659D01*
X26935511Y3324659D02*
G01*
X27031015Y3388413D01*
X26935511Y3388413D02*
G01*
X27031015Y3388413D01*
X26935511Y3418385D02*
G01*
X27031015Y3418385D01*
X26935511Y3418385D02*
G01*
X26935511Y3450135D01*
X26940083Y3463851D01*
X26949227Y3472741D01*
X26958371Y3477313D01*
X26972087Y3481885D01*
X26994693Y3481885D01*
X27008409Y3477313D01*
X27017553Y3472741D01*
X27026443Y3463851D01*
X27031015Y3450135D01*
X27031015Y3418385D01*
X26949227Y3645461D02*
G01*
X26940083Y3636571D01*
X26935511Y3622855D01*
X26935511Y3604567D01*
X26940083Y3591105D01*
X26949227Y3581961D01*
X26958371Y3581961D01*
X26967515Y3586533D01*
X26972087Y3591105D01*
X26976659Y3600249D01*
X26985549Y3627427D01*
X26990121Y3636571D01*
X26994693Y3641143D01*
X27003837Y3645461D01*
X27017553Y3645461D01*
X27026443Y3636571D01*
X27031015Y3622855D01*
X27031015Y3604567D01*
X27026443Y3591105D01*
X27017553Y3581961D01*
X26935511Y3675687D02*
G01*
X27031015Y3675687D01*
X27031015Y3675687D02*
G01*
X27031015Y3730043D01*
X26935511Y3830119D02*
G01*
X27031015Y3830119D01*
X26935511Y3893873D02*
G01*
X27031015Y3893873D01*
X26980977Y3830119D02*
G01*
X26980977Y3893873D01*
X26935511Y3923845D02*
G01*
X27031015Y3923845D01*
X26935511Y3923845D02*
G01*
X26935511Y3964739D01*
X26940083Y3978201D01*
X26944655Y3982773D01*
X26953799Y3987345D01*
X26962943Y3987345D01*
X26972087Y3982773D01*
X26976659Y3978201D01*
X26980977Y3964739D01*
X26980977Y3923845D01*
X26980977Y3955595D02*
G01*
X27031015Y3987345D01*
X26935511Y4087421D02*
G01*
X27031015Y4123743D01*
X26935511Y4160065D02*
G01*
X27031015Y4123743D01*
X26935511Y4222041D02*
G01*
X27031015Y4222041D01*
X26935511Y4190037D02*
G01*
X26935511Y4253791D01*
X26935511Y4362757D02*
G01*
X26935511Y4412795D01*
X26972087Y4385617D01*
X26972087Y4399333D01*
X26976659Y4408223D01*
X26980977Y4412795D01*
X26994693Y4417367D01*
X27003837Y4417367D01*
X27017553Y4412795D01*
X27026443Y4403651D01*
X27031015Y4390189D01*
X27031015Y4376473D01*
X27026443Y4362757D01*
X27022125Y4358185D01*
X27012981Y4353867D01*
X27012981Y4456483D02*
G01*
X27017553Y4451911D01*
X27012981Y4447339D01*
X27008409Y4451911D01*
X27012981Y4456483D01*
X27022125Y4456483D01*
X27031015Y4447339D01*
X26935511Y4495599D02*
G01*
X26935511Y4545637D01*
X26972087Y4518205D01*
X26972087Y4531921D01*
X26976659Y4541065D01*
X26980977Y4545637D01*
X26994693Y4550209D01*
X27003837Y4550209D01*
X27017553Y4545637D01*
X27026443Y4536493D01*
X27031015Y4522777D01*
X27031015Y4509315D01*
X27026443Y4495599D01*
X27022125Y4491027D01*
X27012981Y4486455D01*
X26935511Y4580181D02*
G01*
X27031015Y4616503D01*
X26935511Y4652825D02*
G01*
X27031015Y4616503D01*
D39*
X32690417Y1680436D02*
G01*
X32581197Y1654528D01*
X32690417Y1628366D02*
G01*
X32581197Y1654528D01*
X32690417Y1628366D02*
G01*
X32581197Y1602458D01*
X32690417Y1576550D02*
G01*
X32581197Y1602458D01*
X32690417Y1542260D02*
G01*
X32581197Y1542260D01*
X32690417Y1507970D02*
G01*
X32581197Y1507970D01*
X32690417Y1507970D02*
G01*
X32690417Y1440406D01*
X32638347Y1507970D02*
G01*
X32638347Y1466314D01*
X32690417Y1406116D02*
G01*
X32581197Y1406116D01*
X32690417Y1291816D02*
G01*
X32581197Y1291816D01*
X32690417Y1291816D02*
G01*
X32690417Y1224252D01*
X32638347Y1291816D02*
G01*
X32638347Y1250160D01*
X32581197Y1291816D02*
G01*
X32581197Y1224252D01*
X32674669Y1117318D02*
G01*
X32685083Y1127478D01*
X32690417Y1143226D01*
X32690417Y1164054D01*
X32685083Y1179548D01*
X32674669Y1189962D01*
X32664509Y1189962D01*
X32654095Y1184628D01*
X32648761Y1179548D01*
X32643681Y1169134D01*
X32633267Y1137892D01*
X32627933Y1127478D01*
X32622853Y1122398D01*
X32612439Y1117318D01*
X32596945Y1117318D01*
X32586531Y1127478D01*
X32581197Y1143226D01*
X32581197Y1164054D01*
X32586531Y1179548D01*
X32596945Y1189962D01*
X32690417Y1083028D02*
G01*
X32581197Y1083028D01*
X32690417Y1083028D02*
G01*
X32690417Y1036038D01*
X32685083Y1020544D01*
X32680003Y1015464D01*
X32669589Y1010130D01*
X32654095Y1010130D01*
X32643681Y1015464D01*
X32638347Y1020544D01*
X32633267Y1036038D01*
X32633267Y1083028D01*
X32627933Y975840D02*
G01*
X32627933Y882368D01*
X32690417Y822170D02*
G01*
X32685083Y837664D01*
X32674669Y842998D01*
X32664509Y842998D01*
X32654095Y837664D01*
X32648761Y827250D01*
X32643681Y806422D01*
X32638347Y790928D01*
X32627933Y780514D01*
X32617519Y775434D01*
X32602025Y775434D01*
X32591611Y780514D01*
X32586531Y785848D01*
X32581197Y801342D01*
X32581197Y822170D01*
X32586531Y837664D01*
X32591611Y842998D01*
X32602025Y848078D01*
X32617519Y848078D01*
X32627933Y842998D01*
X32638347Y832584D01*
X32643681Y816836D01*
X32648761Y796008D01*
X32654095Y785848D01*
X32664509Y780514D01*
X32674669Y780514D01*
X32685083Y785848D01*
X32690417Y801342D01*
X32690417Y822170D01*
X32664509Y735810D02*
G01*
X32669589Y735810D01*
X32680003Y730730D01*
X32685083Y725396D01*
X32690417Y714982D01*
X32690417Y694408D01*
X32685083Y683994D01*
X32680003Y678660D01*
X32669589Y673580D01*
X32659175Y673580D01*
X32648761Y678660D01*
X32633267Y689074D01*
X32581197Y741144D01*
X32581197Y668246D01*
X32674669Y571726D02*
G01*
X32685083Y576806D01*
X32690417Y592554D01*
X32690417Y602968D01*
X32685083Y618462D01*
X32669589Y628876D01*
X32643681Y633956D01*
X32617519Y633956D01*
X32596945Y628876D01*
X32586531Y618462D01*
X32581197Y602968D01*
X32581197Y597634D01*
X32586531Y582140D01*
X32596945Y571726D01*
X32612439Y566392D01*
X32617519Y566392D01*
X32633267Y571726D01*
X32643681Y582140D01*
X32648761Y597634D01*
X32648761Y602968D01*
X32643681Y618462D01*
X32633267Y628876D01*
X32617519Y633956D01*
X32674669Y469872D02*
G01*
X32685083Y474952D01*
X32690417Y490700D01*
X32690417Y501114D01*
X32685083Y516608D01*
X32669589Y527022D01*
X32643681Y532102D01*
X32617519Y532102D01*
X32596945Y527022D01*
X32586531Y516608D01*
X32581197Y501114D01*
X32581197Y495780D01*
X32586531Y480286D01*
X32596945Y469872D01*
X32612439Y464538D01*
X32617519Y464538D01*
X32633267Y469872D01*
X32643681Y480286D01*
X32648761Y495780D01*
X32648761Y501114D01*
X32643681Y516608D01*
X32633267Y527022D01*
X32617519Y532102D01*
X32627933Y430248D02*
G01*
X32627933Y336776D01*
X32669589Y302486D02*
G01*
X32674669Y292072D01*
X32690417Y276578D01*
X32581197Y276578D01*
X31405829Y1594104D02*
G01*
X31405829Y1498600D01*
X31373825Y1594104D02*
G01*
X31437579Y1594104D01*
X31467552Y1594104D02*
G01*
X31531306Y1498600D01*
X31531306Y1594104D02*
G01*
X31467552Y1498600D01*
X31769304Y1571497D02*
G01*
X31764732Y1580387D01*
X31755841Y1589531D01*
X31746698Y1594104D01*
X31728409Y1594104D01*
X31719265Y1589531D01*
X31710375Y1580387D01*
X31705804Y1571497D01*
X31701232Y1557781D01*
X31701232Y1534921D01*
X31705804Y1521460D01*
X31710375Y1512315D01*
X31719265Y1503171D01*
X31728409Y1498600D01*
X31746698Y1498600D01*
X31755841Y1503171D01*
X31764732Y1512315D01*
X31769304Y1521460D01*
X31769304Y1534921D01*
X31746698Y1534921D02*
G01*
X31769304Y1534921D01*
X31799275Y1594104D02*
G01*
X31799275Y1498600D01*
X31799275Y1594104D02*
G01*
X31863029Y1498600D01*
X31863029Y1594104D02*
G01*
X31863029Y1498600D01*
X31893002Y1594104D02*
G01*
X31893002Y1498600D01*
X31893002Y1594104D02*
G01*
X31924752Y1594104D01*
X31938468Y1589531D01*
X31947611Y1580387D01*
X31952184Y1571497D01*
X31956756Y1557781D01*
X31956756Y1534921D01*
X31952184Y1521460D01*
X31947611Y1512315D01*
X31938468Y1503171D01*
X31924752Y1498600D01*
X31893002Y1498600D01*
X31361888Y342137D02*
G01*
X31411672Y342137D01*
X31384493Y305815D01*
X31398209Y305815D01*
X31407100Y301244D01*
X31411672Y296926D01*
X31416243Y283210D01*
X31416243Y274065D01*
X31411672Y260350D01*
X31402782Y251460D01*
X31389065Y246887D01*
X31375350Y246887D01*
X31361888Y251460D01*
X31357315Y255778D01*
X31352743Y264921D01*
X31455359Y264921D02*
G01*
X31450788Y260350D01*
X31446215Y264921D01*
X31450788Y269494D01*
X31455359Y264921D01*
X31455359Y255778D01*
X31446215Y246887D01*
X31494475Y342137D02*
G01*
X31544513Y342137D01*
X31517336Y305815D01*
X31530798Y305815D01*
X31539941Y301244D01*
X31544513Y296926D01*
X31549086Y283210D01*
X31549086Y274065D01*
X31544513Y260350D01*
X31535370Y251460D01*
X31521654Y246887D01*
X31508191Y246887D01*
X31494475Y251460D01*
X31489904Y255778D01*
X31485332Y264921D01*
X31579058Y342137D02*
G01*
X31615379Y246887D01*
X31651702Y342137D02*
G01*
X31615379Y246887D01*
X31821882Y342137D02*
G01*
X31821882Y246887D01*
X31821882Y342137D02*
G01*
X31862775Y342137D01*
X31876238Y337820D01*
X31880809Y333247D01*
X31885382Y324104D01*
X31885382Y314960D01*
X31880809Y305815D01*
X31876238Y301244D01*
X31862775Y296926D01*
X31821882Y296926D01*
X31853632Y296926D02*
G01*
X31885382Y246887D01*
X31915354Y342137D02*
G01*
X31979108Y246887D01*
X31979108Y342137D02*
G01*
X31915354Y246887D01*
X28482543Y5994654D02*
G01*
X28477209Y6004813D01*
X28466795Y6015228D01*
X28456382Y6020562D01*
X28435808Y6020562D01*
X28425393Y6015228D01*
X28414979Y6004813D01*
X28409645Y5994654D01*
X28404565Y5978905D01*
X28404565Y5952997D01*
X28409645Y5937504D01*
X28414979Y5927089D01*
X28425393Y5916676D01*
X28435808Y5911342D01*
X28456382Y5911342D01*
X28466795Y5916676D01*
X28477209Y5927089D01*
X28482543Y5937504D01*
X28521913Y5994654D02*
G01*
X28521913Y5999734D01*
X28527248Y6010147D01*
X28532327Y6015228D01*
X28542741Y6020562D01*
X28563570Y6020562D01*
X28573984Y6015228D01*
X28579063Y6010147D01*
X28584398Y5999734D01*
X28584398Y5989320D01*
X28579063Y5978905D01*
X28568650Y5963412D01*
X28516834Y5911342D01*
X28589477Y5911342D01*
X29639006Y6279895D02*
G01*
X29633672Y6290310D01*
X29623258Y6300723D01*
X29612843Y6305804D01*
X29592015Y6305804D01*
X29581856Y6300723D01*
X29571441Y6290310D01*
X29566108Y6279895D01*
X29561027Y6264147D01*
X29561027Y6238239D01*
X29566108Y6222745D01*
X29571441Y6212331D01*
X29581856Y6201918D01*
X29592015Y6196837D01*
X29612843Y6196837D01*
X29623258Y6201918D01*
X29633672Y6212331D01*
X29639006Y6222745D01*
X29673295Y6284976D02*
G01*
X29683456Y6290310D01*
X29699204Y6305804D01*
X29699204Y6196837D01*
X27939105Y6053267D02*
G01*
X27991175Y6162233D01*
X28012003Y6053267D02*
G01*
X27939105Y6053267D01*
X27878907Y6053267D02*
G01*
X27894401Y6058347D01*
X27899735Y6068761D01*
X27899735Y6079175D01*
X27894401Y6089589D01*
X27884241Y6094669D01*
X27863413Y6100003D01*
X27847665Y6105083D01*
X27837251Y6115497D01*
X27832171Y6125911D01*
X27832171Y6141405D01*
X27837251Y6151819D01*
X27842585Y6157153D01*
X27858079Y6162233D01*
X27878907Y6162233D01*
X27894401Y6157153D01*
X27899735Y6151819D01*
X27904815Y6141405D01*
X27904815Y6125911D01*
X27899735Y6115497D01*
X27889321Y6105083D01*
X27873827Y6100003D01*
X27852999Y6094669D01*
X27842585Y6089589D01*
X27837251Y6079175D01*
X27837251Y6068761D01*
X27842585Y6058347D01*
X27858079Y6053267D01*
X27878907Y6053267D01*
X27766639Y6053267D02*
G01*
X27782387Y6058347D01*
X27792801Y6073841D01*
X27797881Y6100003D01*
X27797881Y6115497D01*
X27792801Y6141405D01*
X27782387Y6157153D01*
X27766639Y6162233D01*
X27756225Y6162233D01*
X27740731Y6157153D01*
X27730317Y6141405D01*
X27725237Y6115497D01*
X27725237Y6100003D01*
X27730317Y6073841D01*
X27740731Y6058347D01*
X27756225Y6053267D01*
X27766639Y6053267D01*
X27623383Y6089589D02*
G01*
X27628463Y6105083D01*
X27638877Y6115497D01*
X27654371Y6120577D01*
X27659705Y6120577D01*
X27675199Y6115497D01*
X27685613Y6105083D01*
X27690947Y6089589D01*
X27690947Y6084255D01*
X27685613Y6068761D01*
X27675199Y6058347D01*
X27659705Y6053267D01*
X27654371Y6053267D01*
X27638877Y6058347D01*
X27628463Y6068761D01*
X27623383Y6089589D01*
X27623383Y6115497D01*
X27628463Y6141405D01*
X27638877Y6157153D01*
X27654371Y6162233D01*
X27664785Y6162233D01*
X27680533Y6157153D01*
X27685613Y6146739D01*
X32085480Y903706D02*
G01*
X32007548Y903706D01*
X31991962Y898512D01*
X31981571Y888121D01*
X31976377Y872533D01*
X31976377Y862142D01*
X31981571Y846556D01*
X31991962Y836165D01*
X32007548Y830971D01*
X32085480Y830971D01*
X32069895Y734334D02*
G01*
X32080286Y739531D01*
X32085480Y755116D01*
X32085480Y765507D01*
X32080286Y781093D01*
X32064698Y791484D01*
X32038721Y796681D01*
X32012745Y796681D01*
X31991962Y791484D01*
X31981571Y781093D01*
X31976377Y765507D01*
X31976377Y760310D01*
X31981571Y744725D01*
X31991962Y734334D01*
X32007548Y729140D01*
X32012745Y729140D01*
X32028330Y734334D01*
X32038721Y744725D01*
X32043916Y760310D01*
X32043916Y765507D01*
X32038721Y781093D01*
X32028330Y791484D01*
X32012745Y796681D01*
X32059504Y689653D02*
G01*
X32064698Y689653D01*
X32075089Y684458D01*
X32080286Y679262D01*
X32085480Y668870D01*
X32085480Y648091D01*
X32080286Y637700D01*
X32075089Y632503D01*
X32064698Y627308D01*
X32054307Y627308D01*
X32043916Y632503D01*
X32028330Y642894D01*
X31976377Y694850D01*
X31976377Y622112D01*
X27228241Y1215948D02*
G01*
X27238401Y1221028D01*
X27248815Y1231442D01*
X27254149Y1241856D01*
X27254149Y1262684D01*
X27248815Y1273098D01*
X27238401Y1283512D01*
X27228241Y1288592D01*
X27212493Y1293672D01*
X27186585Y1293672D01*
X27171091Y1288592D01*
X27160677Y1283512D01*
X27150263Y1273098D01*
X27144929Y1262684D01*
X27144929Y1241856D01*
X27150263Y1231442D01*
X27160677Y1221028D01*
X27171091Y1215948D01*
X27238401Y1119174D02*
G01*
X27248815Y1124508D01*
X27254149Y1140002D01*
X27254149Y1150416D01*
X27248815Y1165910D01*
X27233321Y1176324D01*
X27207413Y1181658D01*
X27181251Y1181658D01*
X27160677Y1176324D01*
X27150263Y1165910D01*
X27144929Y1150416D01*
X27144929Y1145082D01*
X27150263Y1129588D01*
X27160677Y1119174D01*
X27176171Y1114094D01*
X27181251Y1114094D01*
X27196999Y1119174D01*
X27207413Y1129588D01*
X27212493Y1145082D01*
X27212493Y1150416D01*
X27207413Y1165910D01*
X27196999Y1176324D01*
X27181251Y1181658D01*
X29279316Y1209522D02*
G01*
X29289730Y1214602D01*
X29300144Y1225016D01*
X29305478Y1235430D01*
X29305478Y1256258D01*
X29300144Y1266672D01*
X29289730Y1277086D01*
X29279316Y1282166D01*
X29263822Y1287500D01*
X29237914Y1287500D01*
X29222166Y1282166D01*
X29211752Y1277086D01*
X29201338Y1266672D01*
X29196258Y1256258D01*
X29196258Y1235430D01*
X29201338Y1225016D01*
X29211752Y1214602D01*
X29222166Y1209522D01*
X29305478Y1112748D02*
G01*
X29305478Y1164818D01*
X29258488Y1169898D01*
X29263822Y1164818D01*
X29268902Y1149324D01*
X29268902Y1133576D01*
X29263822Y1118082D01*
X29253408Y1107668D01*
X29237914Y1102334D01*
X29227500Y1102334D01*
X29211752Y1107668D01*
X29201338Y1118082D01*
X29196258Y1133576D01*
X29196258Y1149324D01*
X29201338Y1164818D01*
X29206672Y1169898D01*
X29217086Y1175232D01*
X27261276Y4989291D02*
G01*
X27266356Y4978877D01*
X27276770Y4968463D01*
X27287184Y4963383D01*
X27308012Y4963383D01*
X27318426Y4968463D01*
X27328840Y4978877D01*
X27333920Y4989291D01*
X27339254Y5004785D01*
X27339254Y5030693D01*
X27333920Y5046441D01*
X27328840Y5056855D01*
X27318426Y5067269D01*
X27308012Y5072349D01*
X27287184Y5072349D01*
X27276770Y5067269D01*
X27266356Y5056855D01*
X27261276Y5046441D01*
X27216572Y4963383D02*
G01*
X27159422Y4963383D01*
X27190664Y5004785D01*
X27174916Y5004785D01*
X27164502Y5010119D01*
X27159422Y5015199D01*
X27154088Y5030693D01*
X27154088Y5041107D01*
X27159422Y5056855D01*
X27169836Y5067269D01*
X27185330Y5072349D01*
X27201078Y5072349D01*
X27216572Y5067269D01*
X27221652Y5061935D01*
X27226986Y5051521D01*
X29806041Y4231086D02*
G01*
X29811121Y4220672D01*
X29821535Y4210258D01*
X29831949Y4205178D01*
X29852777Y4205178D01*
X29863191Y4210258D01*
X29873605Y4220672D01*
X29878685Y4231086D01*
X29884019Y4246580D01*
X29884019Y4272488D01*
X29878685Y4288236D01*
X29873605Y4298650D01*
X29863191Y4309064D01*
X29852777Y4314144D01*
X29831949Y4314144D01*
X29821535Y4309064D01*
X29811121Y4298650D01*
X29806041Y4288236D01*
X29719681Y4205178D02*
G01*
X29771751Y4277822D01*
X29693773Y4277822D01*
X29719681Y4205178D02*
G01*
X29719681Y4314144D01*
X29292567Y7646926D02*
G01*
X29292567Y7537706D01*
X29292567Y7646926D02*
G01*
X29359877Y7646926D01*
X29292567Y7594856D02*
G01*
X29333969Y7594856D01*
X29425409Y7646926D02*
G01*
X29414995Y7641846D01*
X29404581Y7631432D01*
X29399501Y7621018D01*
X29394167Y7605270D01*
X29394167Y7579362D01*
X29399501Y7563868D01*
X29404581Y7553454D01*
X29414995Y7543040D01*
X29425409Y7537706D01*
X29446237Y7537706D01*
X29456651Y7543040D01*
X29467065Y7553454D01*
X29472145Y7563868D01*
X29477479Y7579362D01*
X29477479Y7605270D01*
X29472145Y7621018D01*
X29467065Y7631432D01*
X29456651Y7641846D01*
X29446237Y7646926D01*
X29425409Y7646926D01*
X29511769Y7646926D02*
G01*
X29511769Y7537706D01*
X29511769Y7646926D02*
G01*
X29584413Y7537706D01*
X29584413Y7646926D02*
G01*
X29584413Y7537706D01*
X29655025Y7646926D02*
G01*
X29655025Y7537706D01*
X29618703Y7646926D02*
G01*
X29691347Y7646926D01*
X29725637Y7646926D02*
G01*
X29725637Y7537706D01*
X29725637Y7646926D02*
G01*
X29793201Y7646926D01*
X29725637Y7594856D02*
G01*
X29767293Y7594856D01*
X29725637Y7537706D02*
G01*
X29793201Y7537706D01*
X32181165Y7032665D02*
G01*
X32071945Y7032665D01*
X32071945Y7032665D02*
G01*
X32071945Y6970435D01*
X32155002Y6858167D02*
G01*
X32165416Y6863501D01*
X32175831Y6873915D01*
X32181165Y6884075D01*
X32181165Y6904903D01*
X32175831Y6915317D01*
X32165416Y6925731D01*
X32155002Y6931065D01*
X32139509Y6936145D01*
X32113600Y6936145D01*
X32097852Y6931065D01*
X32087438Y6925731D01*
X32077279Y6915317D01*
X32071945Y6904903D01*
X32071945Y6884075D01*
X32077279Y6873915D01*
X32087438Y6863501D01*
X32097852Y6858167D01*
X32181165Y6823877D02*
G01*
X32071945Y6823877D01*
X32181165Y6823877D02*
G01*
X32181165Y6787555D01*
X32175831Y6772061D01*
X32165416Y6761647D01*
X32155002Y6756313D01*
X32139509Y6751233D01*
X32113600Y6751233D01*
X32097852Y6756313D01*
X32087438Y6761647D01*
X32077279Y6772061D01*
X32071945Y6787555D01*
X32071945Y6823877D01*
G36*
X28679546Y5798769D02*
G01*
X28679546Y5198770D01*
X28692297Y5212791D01*
X28704438Y5227269D01*
X28715919Y5242306D01*
X28726688Y5257850D01*
X28736848Y5273802D01*
X28746297Y5290210D01*
X28754984Y5306974D01*
X28762960Y5324144D01*
X28770173Y5341620D01*
X28776625Y5359400D01*
X28779571Y5368391D01*
X28784803Y5386578D01*
X28789325Y5404967D01*
X28792982Y5423509D01*
X28795827Y5442204D01*
X28797910Y5461000D01*
X28799129Y5479897D01*
X28799536Y5498795D01*
X28799129Y5517692D01*
X28797910Y5536590D01*
X28795827Y5555386D01*
X28792982Y5574080D01*
X28789325Y5592622D01*
X28784803Y5611012D01*
X28779571Y5629148D01*
X28773475Y5647080D01*
X28766668Y5664708D01*
X28759048Y5682030D01*
X28750717Y5699048D01*
X28741674Y5715609D01*
X28731870Y5731814D01*
X28721405Y5747562D01*
X28710229Y5762853D01*
X28698444Y5777636D01*
X28685998Y5791860D01*
G37*
G36*
X26432357Y1018794D02*
G01*
X26446327Y1006043D01*
X26460856Y993952D01*
X26475893Y982421D01*
X26491387Y971651D01*
X26507389Y961491D01*
X26523746Y952042D01*
X26540561Y943356D01*
X26557732Y935380D01*
X26575207Y928166D01*
X26592987Y921715D01*
X26611021Y916076D01*
X26629309Y911199D01*
X26638503Y909015D01*
X26657046Y905357D01*
X26675740Y902512D01*
X26685138Y901344D01*
X26703985Y899718D01*
X26722882Y898906D01*
X26741831Y898906D01*
X26760728Y899718D01*
X26779524Y901344D01*
X26798320Y903833D01*
X26816913Y907084D01*
X26826210Y909015D01*
X26844548Y913536D01*
X26862735Y918819D01*
X26871726Y921715D01*
X26889506Y928166D01*
X26906982Y935380D01*
X26924152Y943356D01*
X26940916Y952042D01*
X26957324Y961491D01*
X26973326Y971651D01*
X26988820Y982421D01*
X27003857Y993952D01*
X27018386Y1006043D01*
X27032356Y1018794D01*
G37*
G36*
X28483661Y1012393D02*
G01*
X28497631Y999642D01*
X28504794Y993495D01*
X28519577Y981710D01*
X28534868Y970534D01*
X28550615Y960069D01*
X28566821Y950315D01*
X28575050Y945642D01*
X28591865Y936955D01*
X28608985Y928979D01*
X28626511Y921766D01*
X28644291Y915314D01*
X28662325Y909675D01*
X28680613Y904798D01*
X28689808Y902614D01*
X28708350Y898956D01*
X28727044Y896112D01*
X28745840Y894029D01*
X28764738Y892810D01*
X28783635Y892403D01*
X28802533Y892810D01*
X28821430Y894029D01*
X28840226Y896112D01*
X28858921Y898956D01*
X28877463Y902614D01*
X28895852Y907135D01*
X28914039Y912418D01*
X28923030Y915314D01*
X28940810Y921766D01*
X28958286Y928979D01*
X28975456Y936955D01*
X28992220Y945642D01*
X29008628Y955090D01*
X29024580Y965250D01*
X29040124Y976020D01*
X29055161Y987552D01*
X29069690Y999642D01*
X29083660Y1012393D01*
G37*
G36*
X27064157Y5785002D02*
G01*
X27051406Y5771032D01*
X27039265Y5756503D01*
X27027784Y5741466D01*
X27016964Y5725922D01*
X27006854Y5709970D01*
X26997406Y5693562D01*
X26988719Y5676798D01*
X26980743Y5659628D01*
X26973530Y5642152D01*
X26967078Y5624372D01*
X26961388Y5606338D01*
X26956512Y5588050D01*
X26952448Y5569559D01*
X26949196Y5550916D01*
X26947825Y5541568D01*
X26945793Y5522772D01*
X26944574Y5503875D01*
X26944167Y5484977D01*
X26944574Y5466080D01*
X26945793Y5447182D01*
X26947825Y5428386D01*
X26950720Y5409692D01*
X26954378Y5391150D01*
X26958848Y5372760D01*
X26964132Y5354624D01*
X26970227Y5336692D01*
X26977035Y5319064D01*
X26984655Y5301742D01*
X26992986Y5284724D01*
X27002028Y5268163D01*
X27011833Y5251958D01*
X27022298Y5236210D01*
X27033474Y5220919D01*
X27045259Y5206136D01*
X27057705Y5191912D01*
X27064157Y5185003D01*
G37*
G36*
X29608932Y5026812D02*
G01*
X29596181Y5012791D01*
X29584091Y4998313D01*
X29572610Y4983276D01*
X29567073Y4975555D01*
X29556608Y4959807D01*
X29546854Y4943602D01*
X29537761Y4927041D01*
X29529430Y4910074D01*
X29521810Y4892751D01*
X29515003Y4875072D01*
X29511853Y4866182D01*
X29506214Y4848098D01*
X29501338Y4829860D01*
X29497223Y4811369D01*
X29493972Y4792726D01*
X29491482Y4773980D01*
X29489857Y4755134D01*
X29489044Y4736236D01*
X29489044Y4717338D01*
X29489857Y4698441D01*
X29491482Y4679594D01*
X29493972Y4660849D01*
X29497223Y4642205D01*
X29501338Y4623714D01*
X29506214Y4605477D01*
X29511853Y4587392D01*
X29518305Y4569612D01*
X29525518Y4552137D01*
X29533494Y4535017D01*
X29542232Y4518202D01*
X29551630Y4501794D01*
X29561789Y4485843D01*
X29567073Y4478020D01*
X29578249Y4462729D01*
X29590034Y4447946D01*
X29602480Y4433722D01*
X29608932Y4426813D01*
G37*
D10*
X31929224Y73997D02*
G01*
X31903032Y4038D01*
X31965343Y45239D01*
X31890715Y48531D01*
X31949156Y2004D01*
X31929224Y73997D01*
X32126986Y-78265D02*
G01*
X32166214Y-141683D01*
X31888490Y-191188D02*
G01*
X31903062Y-199633D01*
X31936512Y-198661D01*
X31978145Y-187970D01*
X32024071Y-169484D01*
X32067604Y-145882D01*
X32102391Y-120624D01*
X32124456Y-95478D01*
X32126986Y-78265D01*
X32126676Y-77663D02*
G01*
X32112117Y-69217D01*
X32078668Y-70190D01*
X32037007Y-80881D01*
X31991094Y-99367D01*
X31947573Y-122956D01*
X31910243Y-150477D01*
X31889755Y-175214D01*
X32191081Y-171747D02*
G01*
X32198350Y-153088D01*
X32228426Y-153088D01*
X32280268Y-144790D01*
X32314471Y-174853D01*
X32271957Y-201810D01*
X32271957Y-230850D01*
X32248109Y-246402D01*
X32211830Y-239140D01*
X32271957Y-201810D02*
G01*
X32228426Y-153088D01*
X32271957Y-201810D02*
G01*
X32240865Y-209072D01*
X32161030Y-190406D02*
G01*
X32164144Y-212178D01*
X32181766Y-239140D01*
X32211830Y-239140D01*
X32240865Y-209072D01*
X32219099Y-171747D01*
X32191081Y-171747D01*
X32161030Y-190406D01*
X32079112Y-1315336D02*
G01*
X32143407Y-1315336D01*
X32079112Y-1512328D02*
G01*
X32079112Y-1315336D01*
X32143407Y-1315336D02*
G01*
X32143407Y-1359915D01*
X32126826Y-1408658D02*
G01*
X32079112Y-1408658D01*
X32182810Y-1318455D02*
G01*
X32182810Y-1499895D01*
X32226354Y-1318455D02*
G01*
X32226354Y-1499895D01*
X32226354Y-1318455D02*
G01*
X32269899Y-1318455D01*
X32295820Y-1340228D01*
X32295820Y-1405544D01*
X32267827Y-1434566D01*
X32226354Y-1434566D01*
X32409846Y-1328823D02*
G01*
X32321741Y-1328823D01*
X32321741Y-1487449D01*
X32408830Y-1487449D01*
X32267827Y-1434566D02*
G01*
X32291665Y-1500931D01*
X32497989Y-1368214D02*
G01*
X32497989Y-1348519D01*
X32481408Y-1335044D01*
X32450303Y-1335044D01*
X32433709Y-1350596D01*
X32433709Y-1467749D01*
X32453417Y-1489527D01*
X32474141Y-1489527D01*
X32501103Y-1470855D01*
X32501103Y-1406580D01*
X32474141Y-1406580D01*
X32368398Y-1409687D02*
G01*
X32321741Y-1409687D01*
X32540506Y-1353703D02*
G01*
X32540506Y-1424211D01*
X32553973Y-1441833D01*
X32578852Y-1441833D01*
X32596490Y-1426281D01*
X32596490Y-1352661D01*
X32581966Y-1338150D01*
X32558116Y-1338150D01*
X32540506Y-1353703D01*
X32754087Y-1350596D02*
G01*
X32754087Y-1421096D01*
X32767554Y-1438714D01*
X32792433Y-1438714D01*
X32810071Y-1423162D01*
X32810071Y-1349547D01*
X32795547Y-1335044D01*
X32771709Y-1335044D01*
X32754087Y-1350596D01*
X32718839Y-1329860D02*
G01*
X32631738Y-1329860D01*
X32676312Y-1489527D02*
G01*
X32676312Y-1334007D01*
X32741633Y-1482265D02*
G01*
X32824582Y-1482265D01*
X32531154Y-1484342D02*
G01*
X32602703Y-1484342D01*
X32912712Y-800056D02*
G01*
X32912712Y-1621190D01*
X31977500Y-1621190D01*
X31977500Y-800056D01*
X32100893Y-800056D01*
X32308878Y-691182D02*
G01*
X32248406Y-697984D01*
X32232566Y-715037D01*
X32188873Y-783003D01*
X32165173Y-849157D01*
X32100893Y-800056D01*
X32114373Y-764796D01*
X32191081Y-681855D01*
X32220128Y-661118D01*
X32249051Y-697296D01*
X32099849Y-1038509D02*
G01*
X32169328Y-1118344D01*
X32511471Y-1118344D01*
X32515614Y-736810D01*
X32496960Y-693259D01*
X32471400Y-693259D01*
X32099849Y-1038509D02*
G01*
X32100893Y-800056D01*
X32181766Y-1118344D02*
G01*
X32165173Y-849157D01*
X32070829Y-1026076D02*
G01*
X32070829Y-1106939D01*
X32078084Y-1125611D01*
X32124517Y-1173584D01*
X32172442Y-1186779D01*
X32530138Y-1186779D01*
X32557087Y-1176411D01*
X32565385Y-1165001D01*
X32561156Y-1129065D01*
X32536350Y-1152568D02*
G01*
X32182810Y-1152568D01*
X32150649Y-1147384D01*
X32110230Y-1113160D01*
X32073928Y-1062360D01*
X32070829Y-1026076D01*
X32099986Y-1009507D01*
X32552944Y-1070650D02*
G01*
X32512538Y-1019850D01*
X32529630Y-1006251D01*
X32619284Y-989787D02*
G01*
X32659716Y-956604D01*
X32529630Y-1006251D02*
G01*
X32561242Y-1006251D01*
X32619284Y-989787D01*
X32659716Y-956604D02*
G01*
X32677366Y-928618D01*
X32677366Y-900620D01*
X32252262Y-274388D01*
X32912712Y-800056D02*
G01*
X32609078Y-800056D01*
X32220128Y-661118D02*
G01*
X31889209Y-192328D01*
D13*
X32053204Y-1320520D02*
G01*
X32053204Y-1374439D01*
X32053204Y-1204396D02*
G01*
X32053204Y-1261430D01*
X32024159Y-1291498D02*
G01*
X31969229Y-1291498D01*
X32082239Y-1291498D02*
G01*
X32142353Y-1291498D01*
D36*
X31297636Y1711797D02*
G01*
X32901933Y1711797D01*
X32901933Y219999D01*
X32138134Y224299D01*
X31292637Y227898D01*
X31291037Y334799D01*
X31291037Y1710697D01*
X26540846Y4699990D02*
G01*
X26540846Y3185393D01*
X27443945Y3185393D01*
X27547445Y3288893D01*
X27547445Y4695291D01*
X26540846Y4695291D01*
X26020247Y2195494D02*
G01*
X26424750Y2195494D01*
X26424750Y130596D01*
X26010847Y130596D01*
X26010847Y2204892D01*
X26026148Y4443089D02*
G01*
X26430650Y4443089D01*
X26430650Y2378191D01*
X26016747Y2378191D01*
X26016747Y4452487D01*
X26544148Y225498D02*
G01*
X31236437Y225498D01*
X31236437Y-375998D01*
X26544148Y-375998D01*
X26544148Y218800D01*
X26563546Y480098D02*
G01*
X26563546Y884598D01*
X28628444Y884598D01*
X28628444Y470697D01*
X26554148Y470697D01*
X28638500Y482345D02*
G01*
X28638500Y886846D01*
X30703398Y886846D01*
X30703398Y472945D01*
X28629102Y472945D01*
X28638502Y1776844D02*
G01*
X28638502Y2181344D01*
X30703400Y2181344D01*
X30703400Y1767441D01*
X28629104Y1767441D01*
X26593040Y1775272D02*
G01*
X26593040Y2179772D01*
X28657938Y2179772D01*
X28657938Y1765871D01*
X26583642Y1765871D01*
X30850837Y2682394D02*
G01*
X31255337Y2682394D01*
X31255337Y617496D01*
X30841436Y617496D01*
X30841436Y2691792D01*
X30847538Y7672781D02*
G01*
X31252038Y7672781D01*
X31252038Y5607883D01*
X31258436Y5103289D01*
X30838338Y5104988D01*
X30838137Y5607883D01*
X30838137Y7682181D01*
X30851243Y4987991D02*
G01*
X31255741Y4987991D01*
X31255741Y2923092D01*
X30841845Y2923092D01*
X30841845Y4997389D01*
X26030247Y6772287D02*
G01*
X26434747Y6772287D01*
X26434747Y4707389D01*
X26020847Y4707389D01*
X26020847Y6781685D01*
D37*
X26593038Y482345D02*
G01*
X28638500Y482345D01*
X26593040Y482302D02*
G01*
X26593040Y2166830D01*
X28638502Y2166830D01*
X28638502Y502368D01*
X28639142Y477796D02*
G01*
X28639142Y2162324D01*
X30684604Y2162324D01*
X30684604Y497862D01*
X28679274Y457730D02*
G01*
X30677746Y457730D01*
X29034232Y5095747D02*
G01*
X29034232Y3097276D01*
X29054298Y5135879D02*
G01*
X30738825Y5135879D01*
X30738825Y3090418D01*
X29074363Y3090418D01*
X28080726Y3443295D02*
G01*
X28080726Y4779091D01*
X28955629Y4779091D01*
X28955629Y3438591D01*
X28076029Y3438591D01*
X28996642Y3097194D02*
G01*
X30332438Y3097194D01*
X30332438Y2222296D01*
X28991940Y2222296D01*
X28991940Y3101896D01*
X26945846Y3124393D02*
G01*
X28281642Y3124393D01*
X28281642Y2249495D01*
X26941145Y2249495D01*
X26941145Y3129094D01*
X25124951Y4323392D02*
G01*
X25941047Y4323392D01*
X25941047Y2552095D01*
X25132350Y2552095D01*
X25132350Y4323392D01*
X26183843Y-511810D02*
G01*
X28008834Y-512571D01*
X28014422Y-1605279D01*
X26182827Y-1606295D01*
X26183843Y-519176D01*
X31537236Y4371190D02*
G01*
X32176935Y4371190D01*
X32840134Y4375891D01*
X32844833Y2706095D01*
X31537236Y2706095D01*
X31527836Y4374591D01*
X31314390Y7723631D02*
G01*
X32074358Y7727695D01*
X32271461Y7721092D01*
X32281622Y6020815D01*
X31308802Y6029960D01*
X31315659Y7722362D01*
X26259048Y7581684D02*
G01*
X27349958Y7579105D01*
X27349958Y6838695D01*
X26254709Y6838695D01*
X26254709Y7580884D01*
X26254709Y7578344D01*
X30690040Y-471109D02*
G01*
X31605837Y-471109D01*
X31605837Y-1219807D01*
X30670040Y-1219807D01*
X30670040Y-469110D01*
X30693438Y-469110D01*
X29329641Y-467898D02*
G01*
X30245438Y-467898D01*
X30245438Y-1216596D01*
X29309641Y-1216596D01*
X29309641Y-465899D01*
X29333040Y-465899D01*
D10*
X28122859Y5572450D02*
G01*
X28122859Y5707070D01*
X28186359Y5641030D02*
G01*
X28061904Y5641030D01*
X29200932Y6162291D02*
G01*
X29920925Y6162288D01*
X29920925Y6162291D02*
G01*
X29920925Y5812287D01*
X29920925Y5812284D02*
G01*
X29200932Y5812287D01*
X29200932Y5812284D02*
G01*
X29200932Y6162288D01*
X27469246Y6294089D02*
G01*
X28529239Y6294089D01*
X28529340Y6244178D02*
G01*
X27469144Y6244178D01*
X27469144Y6723984D01*
X28529340Y6723984D01*
X28529340Y6244686D01*
X28529340Y6244178D01*
X31944736Y372699D02*
G01*
X31436736Y372699D01*
X31944736Y1434698D02*
G01*
X31944736Y372699D01*
X31691442Y1434698D02*
G01*
X31691442Y1157698D01*
X31436736Y1157698D01*
X31436736Y1434698D02*
G01*
X31436736Y372699D01*
X31944736Y1434698D02*
G01*
X31436736Y1434698D01*
X26806009Y1575475D02*
G01*
X26940626Y1575475D01*
X26874589Y1511975D02*
G01*
X26874589Y1636435D01*
X28857305Y1569074D02*
G01*
X28991923Y1569074D01*
X28925885Y1505574D02*
G01*
X28925885Y1630034D01*
X27620826Y5411325D02*
G01*
X27620826Y5276707D01*
X27557326Y5342747D02*
G01*
X27681788Y5342747D01*
X30165621Y4653130D02*
G01*
X30165621Y4518510D01*
X30102121Y4584550D02*
G01*
X30226581Y4584550D01*
X30047542Y7275586D02*
G01*
X30047542Y6295588D01*
X29031542Y7041702D02*
G01*
X30047542Y7041702D01*
X30047542Y7275586D02*
G01*
X29031542Y7275586D01*
X29031542Y6533702D02*
G01*
X30047542Y6533702D01*
X29031542Y7275586D02*
G01*
X29031542Y6295588D01*
X30047542Y6295588D02*
G01*
X29031542Y6295588D01*
G75*
G01*
X28404795Y5898840D02*
G03*
X28411909Y5898840I3557J-399984D01*
D37*
G75*
G01*
X28276103Y6770467D02*
G03*
X28275849Y6770467I-127J19999D01*
D10*
G75*
G01*
X27132397Y1293541D02*
G03*
X27132397Y1286431I-399984J-3555D01*
G75*
G01*
X29183693Y1287140D02*
G03*
X29183693Y1280030I-399984J-3555D01*
G75*
G01*
X27338891Y5084938D02*
G03*
X27331779Y5084938I-3556J399984D01*
G75*
G01*
X29883687Y4326740D02*
G03*
X29876575Y4326740I-3556J399984D01*
G75*
G01*
X32552927Y-1070658D02*
G02*
X32536346Y-1152566I-31284J-36299D01*
D13*
G75*
G01
X32102984Y-1291488D02*
G03X32102984Y-1291488I-48743J0D01*
G75*
G01
X32065062Y-1291488D02*
G03X32065062Y-1291488I-10820J0D01*
G75*
G01
X32122466Y-1291488D02*
G03X32122466Y-1291488I-68224J0D01*
D10*
G75*
G01
X32471436Y-691159D02*
G03X32471436Y-691159I-81280J0D01*
M02*
