G04 Layer: BottomLayer*
G04 EasyEDA v6.4.17, 2021-03-30T11:05:58--3:00*
G04 e54f85b4d2414f64907e96423a573e64,e32968b322094deeae1279e20ae9dd51,10*
G04 Gerber Generator version 0.2*
G04 Scale: 100 percent, Rotated: No, Reflected: No *
G04 Dimensions in millimeters *
G04 leading zeros omitted , absolute positions ,4 integer and 5 decimal *
%FSLAX45Y45*%
%MOMM*%

%ADD11C,1.1000*%
%ADD12C,1.2000*%
%ADD14C,3.0000*%
%ADD15C,2.5000*%
%ADD16R,1.8000X2.9000*%
%ADD18R,2.9000X1.5000*%
%ADD19R,2.9000X1.8000*%
%ADD20R,1.8000X1.1000*%
%ADD21R,2.5000X1.8000*%
%ADD22C,1.8000*%
%ADD24C,1.7000*%
%ADD27C,1.5000*%
%ADD28C,2.0000*%
%ADD30C,1.5240*%
%ADD33C,1.6000*%
%ADD34C,1.0000*%
%ADD35C,0.2032*%

%LPD*%
D35*
X25724302Y1866295D02*
G01*
X25918264Y1866295D01*
X25724302Y1866295D02*
G01*
X25724302Y1746222D01*
X25816664Y1866295D02*
G01*
X25816664Y1792404D01*
X25724302Y1685262D02*
G01*
X25918264Y1685262D01*
X25724302Y1624302D02*
G01*
X25918264Y1624302D01*
X25724302Y1624302D02*
G01*
X25724302Y1541175D01*
X25733537Y1513466D01*
X25742773Y1504231D01*
X25761246Y1494993D01*
X25779719Y1494993D01*
X25798193Y1504231D01*
X25807428Y1513466D01*
X25816664Y1541175D01*
X25816664Y1624302D01*
X25816664Y1559648D02*
G01*
X25918264Y1494993D01*
X25724302Y1434033D02*
G01*
X25918264Y1434033D01*
X25724302Y1434033D02*
G01*
X25724302Y1313959D01*
X25816664Y1434033D02*
G01*
X25816664Y1360142D01*
X25918264Y1434033D02*
G01*
X25918264Y1313959D01*
X25770484Y1114455D02*
G01*
X25752010Y1123690D01*
X25733537Y1142164D01*
X25724302Y1160637D01*
X25724302Y1197582D01*
X25733537Y1216055D01*
X25752010Y1234528D01*
X25770484Y1243764D01*
X25798193Y1252999D01*
X25844373Y1252999D01*
X25872084Y1243764D01*
X25890555Y1234528D01*
X25909028Y1216055D01*
X25918264Y1197582D01*
X25918264Y1160637D01*
X25909028Y1142164D01*
X25890555Y1123690D01*
X25872084Y1114455D01*
X25844373Y1114455D01*
X25844373Y1160637D02*
G01*
X25844373Y1114455D01*
X25724302Y998077D02*
G01*
X25733537Y1016551D01*
X25752010Y1035022D01*
X25770484Y1044260D01*
X25798193Y1053495D01*
X25844373Y1053495D01*
X25872084Y1044260D01*
X25890555Y1035022D01*
X25909028Y1016551D01*
X25918264Y998077D01*
X25918264Y961130D01*
X25909028Y942660D01*
X25890555Y924186D01*
X25872084Y914951D01*
X25844373Y905713D01*
X25798193Y905713D01*
X25770484Y914951D01*
X25752010Y924186D01*
X25733537Y942660D01*
X25724302Y961130D01*
X25724302Y998077D01*
X25724302Y780100D02*
G01*
X25918264Y780100D01*
X25724302Y844753D02*
G01*
X25724302Y715444D01*
X25724302Y599066D02*
G01*
X25733537Y617540D01*
X25752010Y636010D01*
X25770484Y645248D01*
X25798193Y654484D01*
X25844373Y654484D01*
X25872084Y645248D01*
X25890555Y636010D01*
X25909028Y617540D01*
X25918264Y599066D01*
X25918264Y562119D01*
X25909028Y543648D01*
X25890555Y525175D01*
X25872084Y515940D01*
X25844373Y506702D01*
X25798193Y506702D01*
X25770484Y515940D01*
X25752010Y525175D01*
X25733537Y543648D01*
X25724302Y562119D01*
X25724302Y599066D01*
X25724302Y229610D02*
G01*
X25918264Y303502D01*
X25724302Y229610D02*
G01*
X25918264Y155719D01*
X25853610Y275793D02*
G01*
X25853610Y183431D01*
X25724302Y94759D02*
G01*
X25918264Y94759D01*
X25724302Y94759D02*
G01*
X25724302Y11633D01*
X25733537Y-16075D01*
X25742773Y-25311D01*
X25761246Y-34549D01*
X25779719Y-34549D01*
X25798193Y-25311D01*
X25807428Y-16075D01*
X25816664Y11633D01*
X25816664Y94759D01*
X25816664Y30106D02*
G01*
X25918264Y-34549D01*
X25724302Y-95509D02*
G01*
X25918264Y-95509D01*
X25724302Y-95509D02*
G01*
X25918264Y-169400D01*
X25724302Y-243288D02*
G01*
X25918264Y-169400D01*
X25724302Y-243288D02*
G01*
X25918264Y-243288D01*
X25835137Y-304248D02*
G01*
X25835137Y-470504D01*
X25724302Y-531464D02*
G01*
X25918264Y-605355D01*
X25724302Y-679246D02*
G01*
X25918264Y-605355D01*
X25724302Y-851042D02*
G01*
X25724302Y-758680D01*
X25807428Y-749442D01*
X25798193Y-758680D01*
X25788955Y-786389D01*
X25788955Y-814097D01*
X25798193Y-841806D01*
X25816664Y-860280D01*
X25844373Y-869515D01*
X25862846Y-869515D01*
X25890555Y-860280D01*
X25909028Y-841806D01*
X25918264Y-814097D01*
X25918264Y-786389D01*
X25909028Y-758680D01*
X25899793Y-749442D01*
X25881319Y-740206D01*
G36*
X26369264Y4389780D02*
G01*
X26369264Y4270451D01*
X26371854Y4267860D01*
X26432764Y4267860D01*
X26554633Y4145991D01*
X26572464Y4145991D01*
X26572464Y4229760D01*
X26412444Y4389780D01*
G37*
G36*
X26062431Y3655110D02*
G01*
X26033323Y3626002D01*
X25688645Y3626002D01*
X25664871Y3610914D01*
X25796544Y3551174D01*
X25798424Y3491941D01*
X25797764Y3481679D01*
X25735381Y3356203D01*
X25816458Y3418687D01*
X25920954Y3493617D01*
X25922732Y3491788D01*
X26062431Y3491788D01*
G37*
G36*
X27238960Y2331974D02*
G01*
X27164944Y2300986D01*
X27163877Y1984959D01*
X27250237Y1997710D01*
X27302256Y1973630D01*
X27312416Y2318258D01*
X27287067Y2303780D01*
X27256232Y2316480D01*
G37*
G36*
X30499812Y-289204D02*
G01*
X30340350Y-492404D01*
X30170424Y-550621D01*
X29969409Y-579120D01*
X29976826Y-670509D01*
X30166106Y-577443D01*
X30176215Y-577596D01*
X30198110Y-575919D01*
X30540452Y-663498D01*
G37*
G36*
X30842153Y-443128D02*
G01*
X30840832Y-525729D01*
X30828132Y-641197D01*
X30954624Y-650240D01*
X31030113Y-596849D01*
G37*
G36*
X27491944Y2334666D02*
G01*
X27417928Y2303678D01*
X27416861Y1987702D01*
X27503272Y2000402D01*
X27555240Y1976323D01*
X27565451Y2321001D01*
X27540051Y2306472D01*
X27509266Y2319172D01*
G37*
G36*
X27743454Y2330907D02*
G01*
X27669439Y2299919D01*
X27668372Y1983892D01*
X27754732Y1996592D01*
X27806751Y1972513D01*
X27816962Y2317191D01*
X27791562Y2302713D01*
X27760777Y2315413D01*
G37*
G36*
X28004668Y2333701D02*
G01*
X27930652Y2302713D01*
X27929535Y1986686D01*
X28015946Y1999386D01*
X28067965Y1975307D01*
X28078125Y2319985D01*
X28052725Y2305507D01*
X28021940Y2318207D01*
G37*
G36*
X29271569Y2334260D02*
G01*
X29197553Y2303272D01*
X29196436Y1987296D01*
X29282847Y1999996D01*
X29334866Y1975916D01*
X29345026Y2320594D01*
X29319626Y2306066D01*
X29288841Y2318766D01*
G37*
G36*
X29521759Y2334260D02*
G01*
X29447744Y2303272D01*
X29446677Y1987296D01*
X29533037Y1999996D01*
X29585056Y1975916D01*
X29595267Y2320594D01*
X29569867Y2306066D01*
X29539082Y2318766D01*
G37*
G36*
X29777080Y2335580D02*
G01*
X29703064Y2304592D01*
X29701947Y1988616D01*
X29788358Y2001316D01*
X29840377Y1977237D01*
X29850537Y2321915D01*
X29825137Y2307386D01*
X29794352Y2320086D01*
G37*
G36*
X30035753Y2329383D02*
G01*
X29961738Y2298395D01*
X29960671Y1982419D01*
X30047031Y1995119D01*
X30099050Y1971039D01*
X30109261Y2315667D01*
X30083861Y2301189D01*
X30053076Y2313889D01*
G37*
G36*
X26370026Y4138015D02*
G01*
X26370026Y4018686D01*
X26372667Y4016095D01*
X26433526Y4016095D01*
X26555446Y3894175D01*
X26573226Y3894175D01*
X26573226Y3977995D01*
X26413256Y4138015D01*
G37*
G36*
X26372464Y3881069D02*
G01*
X26372464Y3761790D01*
X26375055Y3759200D01*
X26435964Y3759200D01*
X26557833Y3637279D01*
X26575664Y3637279D01*
X26575664Y3721100D01*
X26415644Y3881069D01*
G37*
G36*
X28671418Y1958492D02*
G01*
X28628441Y1534515D01*
X28786531Y1540967D01*
X28876142Y1468678D01*
X28850742Y1949196D01*
X28817773Y1900377D01*
X28780638Y1887677D01*
X28748075Y1887931D01*
G37*
G36*
X29991862Y7365187D02*
G01*
X27180743Y7361580D01*
X27123948Y7282078D01*
X27219554Y7222896D01*
X27173072Y6998309D01*
X27178050Y6744868D01*
X27313331Y6777888D01*
X27446122Y6775297D01*
X27908453Y6770878D01*
X27907081Y6581190D01*
X28102153Y6569506D01*
X28103779Y6768947D01*
X28790646Y6768185D01*
X28794049Y7080503D01*
X29543959Y7084212D01*
X29588358Y6975094D01*
X29989119Y6959396D01*
X29975556Y6603593D01*
X29764329Y6602577D01*
X29761434Y6119114D01*
X29892142Y6113881D01*
X29900321Y5964275D01*
X29907077Y5879693D01*
X29745330Y5877712D01*
X29749445Y5742279D01*
X28775152Y5731611D01*
X28479750Y5641492D01*
X28654552Y5626912D01*
X28667049Y5402072D01*
X28500832Y5365496D01*
X28385465Y4715306D01*
X28389834Y3407105D01*
X29128059Y3407460D01*
X29130853Y3528669D01*
X28485947Y3528720D01*
X28489757Y4595114D01*
X28586836Y4765497D01*
X28687725Y5276088D01*
X28688944Y5479389D01*
X28976726Y5617413D01*
X30123231Y5647690D01*
X30133036Y7062419D01*
G37*
G36*
X27649068Y6647484D02*
G01*
X27366366Y6646214D01*
X27367280Y6181699D01*
X27415032Y5949594D01*
X27410867Y5556554D01*
X27603754Y5576011D01*
X27609850Y5849416D01*
X27684679Y5995771D01*
X27840177Y6400190D01*
X27657348Y6402171D01*
G37*
G36*
X29121049Y6839864D02*
G01*
X28905708Y6634175D01*
X28303474Y6629349D01*
X28411627Y6538264D01*
X28327451Y6454495D01*
X28237230Y6425590D01*
X28154376Y6491071D01*
X28153055Y6178956D01*
X28151277Y5887872D01*
X28100070Y5747816D01*
X28112262Y5481218D01*
X28168041Y5584799D01*
X28333953Y5537809D01*
X28335579Y5758789D01*
X28744468Y5918809D01*
X29035857Y5923788D01*
X29233520Y5876798D01*
X29242461Y6117386D01*
X29371645Y6124295D01*
X29449979Y6225082D01*
X29449166Y6593992D01*
X29096919Y6622897D01*
G37*
G36*
X25587350Y4545584D02*
G01*
X25589636Y4009390D01*
X25703174Y4106824D01*
X25755142Y4082694D01*
X25850850Y3992778D01*
X25946557Y4475175D01*
X25753466Y4497578D01*
G37*
D22*
X28229559Y5498845D02*
G01*
X28077144Y5336390D01*
X28080715Y5092700D01*
X28080715Y3217418D01*
X28760674Y3217418D01*
D34*
X29268420Y4990084D02*
G01*
X30274768Y4990084D01*
X30276538Y2986095D01*
X30197739Y2862193D01*
X30055840Y2784094D01*
X29009340Y2787395D01*
X29011242Y1943496D01*
X29011542Y1945794D01*
X29708939Y4726782D02*
G01*
X29708939Y4990084D01*
D27*
X29268420Y3466084D02*
G01*
X29708856Y3468115D01*
X29708856Y4726686D01*
X26728450Y3411585D02*
G01*
X26725145Y2321295D01*
X26984147Y2321295D01*
X26981348Y1944893D01*
D12*
X26482791Y2321542D02*
G01*
X26481747Y12999D01*
X26728455Y15410D01*
X26732229Y1118870D02*
G01*
X26500447Y1121397D01*
X26732229Y1118870D02*
G01*
X28783534Y1112265D01*
X26481747Y12999D02*
G01*
X26446045Y12999D01*
X26322746Y-110299D01*
X26322746Y-1192197D01*
X31402736Y-1192197D01*
X31391837Y-720097D01*
X31393122Y-721319D01*
D11*
X32089343Y3385820D02*
G01*
X32553909Y3385820D01*
X32553909Y-722376D01*
X31393129Y-721360D01*
X29584141Y-718820D02*
G01*
X29584141Y-1192276D01*
X31046420Y15494D02*
G01*
X32254190Y15494D01*
X32375093Y136144D01*
X32375093Y3128518D01*
X32371791Y3131820D01*
X32089343Y3131820D01*
X31046529Y2555300D02*
G01*
X31470942Y2555300D01*
X31565237Y2729494D01*
X31560536Y3862191D01*
X31579538Y3913792D01*
X32089343Y3893779D01*
X31046529Y2301300D02*
G01*
X31749936Y2301300D01*
X31749936Y3636393D01*
X31753322Y3639779D01*
X32089343Y3639779D01*
D12*
X29268420Y4736084D02*
G01*
X28933140Y4736084D01*
X28933140Y5241544D01*
X28980638Y5289042D01*
X28983940Y5289042D01*
X29109161Y5414263D01*
X30270958Y5414263D01*
X30524958Y5668263D01*
X30524958Y7835900D01*
X26220648Y5600484D02*
G01*
X26834645Y5600484D01*
X26834645Y7835884D01*
X31990835Y7835884D01*
X31990835Y6763885D01*
D34*
X26220674Y5600445D02*
G01*
X25893013Y5600445D01*
X25893013Y4653026D01*
X27183334Y4653026D01*
X26728420Y4427473D02*
G01*
X26575765Y4427473D01*
X26493470Y4510023D01*
X25639013Y4510023D01*
X25639013Y5854445D01*
X26220674Y5854445D01*
D27*
X27174545Y2802295D02*
G01*
X27183445Y4607389D01*
X28251348Y1944893D02*
G01*
X28251348Y2802295D01*
X27174545Y2802295D01*
X26220674Y5092445D02*
G01*
X27042872Y5101589D01*
X27160982Y5236210D01*
X27164029Y5484876D01*
X27166824Y7145020D02*
G01*
X27141424Y6931405D01*
X27164029Y5484876D01*
D12*
X29013404Y1944878D02*
G01*
X29014165Y1115060D01*
X30537404Y1944878D02*
G01*
X30544515Y1109218D01*
X28783534Y1112265D01*
D27*
X25711404Y2973831D02*
G01*
X25709148Y2322296D01*
X26725118Y2321305D01*
D34*
X30536344Y3468786D02*
G01*
X31046435Y3317382D01*
D27*
X26220648Y6108484D02*
G01*
X26553147Y6106787D01*
X26554945Y6944586D01*
X26448748Y7141585D01*
D34*
X31047949Y6771881D02*
G01*
X31305136Y6768185D01*
X31305136Y6509186D01*
X31555827Y6510677D01*
X31047943Y7279894D02*
G01*
X31304229Y7279894D01*
X31305500Y7019544D01*
X31555943Y7018781D01*
X31047949Y7533881D02*
G01*
X31553536Y7533083D01*
X31555827Y7272677D01*
X29269850Y676097D02*
G01*
X29270104Y490677D01*
X29359258Y394411D01*
X29513451Y176248D01*
X29522326Y15443D01*
X30539850Y676097D02*
G01*
X30540104Y490677D01*
X30629258Y394411D01*
X30783451Y176248D01*
X30792326Y15443D01*
X30285850Y676097D02*
G01*
X30286104Y490677D01*
X30375258Y394411D01*
X30529451Y176248D01*
X30538326Y15443D01*
X30031850Y676097D02*
G01*
X30032104Y490677D01*
X30121258Y394411D01*
X30275451Y176248D01*
X30284326Y15443D01*
X29777850Y676097D02*
G01*
X29778104Y490677D01*
X29867258Y394411D01*
X30021451Y176248D01*
X30030326Y15443D01*
X29523850Y676097D02*
G01*
X29524104Y490677D01*
X29613258Y394411D01*
X29767451Y176248D01*
X29776326Y15443D01*
X29015850Y676097D02*
G01*
X29016104Y490677D01*
X29105258Y394411D01*
X29259451Y176248D01*
X29268326Y15443D01*
X28761850Y676097D02*
G01*
X28762104Y490677D01*
X28851258Y394411D01*
X29005451Y176248D01*
X29014326Y15443D01*
X28507850Y676097D02*
G01*
X28508104Y490677D01*
X28597258Y394411D01*
X28751451Y176248D01*
X28760326Y15443D01*
X28253850Y676097D02*
G01*
X28254104Y490677D01*
X28343258Y394411D01*
X28497451Y176248D01*
X28506326Y15443D01*
X27999850Y676097D02*
G01*
X28000104Y490677D01*
X28089258Y394411D01*
X28243451Y176248D01*
X28252326Y15443D01*
X27745850Y676097D02*
G01*
X27746104Y490677D01*
X27835258Y394411D01*
X27989451Y176248D01*
X27998326Y15443D01*
X27491850Y676097D02*
G01*
X27492104Y490677D01*
X27581258Y394411D01*
X27735451Y176248D01*
X27744326Y15443D01*
X27237850Y676097D02*
G01*
X27238104Y490677D01*
X27327258Y394411D01*
X27481451Y176248D01*
X27490326Y15443D01*
X26983850Y676097D02*
G01*
X26984104Y490677D01*
X27073258Y394411D01*
X27227451Y176248D01*
X27236326Y15443D01*
X26729943Y676147D02*
G01*
X26730198Y490728D01*
X26819352Y394462D01*
X26973545Y176298D01*
X26982420Y15494D01*
X30536344Y3214786D02*
G01*
X31046435Y3063382D01*
X30536344Y3722786D02*
G01*
X31046435Y3571382D01*
X30536344Y3976786D02*
G01*
X31046435Y3825382D01*
X30536344Y4230786D02*
G01*
X31046435Y4079382D01*
X30536344Y4484786D02*
G01*
X31046435Y4333382D01*
X30536344Y4738786D02*
G01*
X31046435Y4587382D01*
D27*
X27514041Y5484876D02*
G01*
X27514041Y5067807D01*
X27284934Y4838445D01*
X26220674Y4838445D01*
D34*
X31046420Y1539239D02*
G01*
X30753050Y1537207D01*
X30756606Y507492D01*
X31123836Y258198D01*
X31816735Y257799D01*
X31817835Y522698D01*
D12*
X30283348Y1944893D02*
G01*
X30293640Y2373294D01*
X30588137Y2369794D01*
X30589639Y2820093D01*
X31360638Y2820995D01*
X31359236Y5775787D01*
X31990235Y5775088D01*
X31981134Y6763885D01*
X31555827Y6764677D01*
D27*
X27999242Y6524086D02*
G01*
X27998343Y6070488D01*
X27762045Y5660189D01*
X27774445Y3010593D01*
X28505942Y3010593D01*
X28505348Y1944893D01*
D34*
X30536344Y4992786D02*
G01*
X31046435Y4841382D01*
X31046420Y1285239D02*
G01*
X31339027Y1284986D01*
X31561237Y1286497D01*
D22*
X26727404Y1944878D02*
G01*
X26727404Y1473707D01*
X26732229Y1468881D01*
X26732229Y1468881D02*
G01*
X28783534Y1462278D01*
X28759404Y1944878D02*
G01*
X28760674Y3212084D01*
X29268420Y3212084D01*
X30058868Y4726686D02*
G01*
X30058613Y3212084D01*
X29268420Y3212084D01*
G36*
X28902431Y4537862D02*
G01*
X29134739Y4537862D01*
X29134739Y4427270D01*
X28902431Y4427270D01*
G37*
G36*
X28900653Y4280280D02*
G01*
X29147465Y4280280D01*
X29147465Y4164177D01*
X28900653Y4164177D01*
G37*
G36*
X28891839Y4044061D02*
G01*
X29142232Y4044061D01*
X29142232Y3900754D01*
X28891839Y3900754D01*
G37*
G36*
X28880943Y3786479D02*
G01*
X29160343Y3786479D01*
X29160343Y3644976D01*
X28880943Y3644976D01*
G37*
G36*
X30465928Y-289229D02*
G01*
X30614924Y-289229D01*
X30614924Y-722731D01*
X30465928Y-722731D01*
G37*
G36*
X30090033Y-560120D02*
G01*
X30618328Y-560120D01*
X30618328Y-837819D01*
X30090033Y-837819D01*
G37*
G36*
X30729047Y-286512D02*
G01*
X30857748Y-286512D01*
X30857748Y-791108D01*
X30729047Y-791108D01*
G37*
G36*
X26651153Y-286308D02*
G01*
X26803146Y-286308D01*
X26803146Y-709421D01*
X26651153Y-709421D01*
G37*
G36*
X26906651Y-294589D02*
G01*
X27049552Y-294589D01*
X27049552Y-690498D01*
X26906651Y-690498D01*
G37*
G36*
X27166341Y-293496D02*
G01*
X27309241Y-293496D01*
X27309241Y-713003D01*
X27166341Y-713003D01*
G37*
G36*
X27414347Y-289991D02*
G01*
X27557247Y-289991D01*
X27557247Y-709498D01*
X27414347Y-709498D01*
G37*
D14*
G01*
X29584040Y-718794D03*
G01*
X30034052Y-708888D03*
G01*
X30906237Y-708507D03*
G01*
X31393129Y-721309D03*
G01*
X26380744Y7240092D03*
G01*
X27102638Y7253376D03*
G01*
X25701243Y3978300D03*
G01*
X25698450Y3509390D03*
G01*
X25701243Y3098698D03*
D15*
G01*
X28229534Y5498769D03*
D16*
G01*
X28579546Y5498795D03*
G36*
X29720941Y6132288D02*
G01*
X29900940Y6132288D01*
X29900940Y5842287D01*
X29720941Y5842287D01*
G37*
G36*
X29220942Y6132288D02*
G01*
X29400941Y6132288D01*
X29400941Y5842287D01*
X29220942Y5842287D01*
G37*
G36*
X28353318Y6399118D02*
G01*
X28153166Y6399118D01*
X28153166Y6649054D01*
X28353318Y6649054D01*
G37*
D18*
G01*
X26728445Y4427575D03*
G36*
X26873446Y3321593D02*
G01*
X26873446Y3501593D01*
X26583444Y3501593D01*
X26583444Y3321593D01*
G37*
G36*
X26873446Y3575593D02*
G01*
X26873446Y3755593D01*
X26583444Y3755593D01*
X26583444Y3575593D01*
G37*
G36*
X26873446Y3829593D02*
G01*
X26873446Y4009593D01*
X26583444Y4009593D01*
X26583444Y3829593D01*
G37*
G36*
X26873446Y4083593D02*
G01*
X26873446Y4263593D01*
X26583444Y4263593D01*
X26583444Y4083593D01*
G37*
D19*
G01*
X31046547Y777290D03*
G01*
X31046547Y2555290D03*
G01*
X31046547Y2301290D03*
D20*
G01*
X31046521Y2047290D03*
G01*
X31046521Y1793290D03*
D19*
G01*
X31046547Y1539290D03*
G01*
X31046547Y1285290D03*
G01*
X31046547Y1031290D03*
G01*
X29268547Y3212084D03*
G01*
X29268547Y4990084D03*
G01*
X29268547Y4736084D03*
G01*
X29268547Y4482084D03*
G01*
X29268547Y4228084D03*
G01*
X29268547Y3974084D03*
G01*
X29268547Y3720084D03*
G01*
X29268547Y3466084D03*
G01*
X31046445Y4841392D03*
G01*
X31046445Y3063392D03*
G01*
X31046445Y3317392D03*
G01*
X31046445Y3571392D03*
G01*
X31046445Y3825392D03*
G01*
X31046445Y4079392D03*
G01*
X31046445Y4333392D03*
G01*
X31046445Y4587392D03*
G01*
X30536337Y4992801D03*
G01*
X30536337Y3214801D03*
G01*
X30536337Y3468801D03*
G01*
X30536337Y3722801D03*
G01*
X30536337Y3976801D03*
G01*
X30536337Y4230801D03*
G01*
X30536337Y4484801D03*
G01*
X30536337Y4738801D03*
D21*
G01*
X26220648Y2047392D03*
G01*
X26220648Y269392D03*
G01*
X26220648Y523392D03*
G01*
X26220648Y777392D03*
G01*
X26220648Y1031392D03*
G01*
X26220648Y1285392D03*
G01*
X26220648Y1539392D03*
G01*
X26220648Y1793392D03*
D18*
G01*
X26220648Y4333697D03*
D19*
G01*
X26220648Y2555697D03*
G01*
X26220648Y2809697D03*
G01*
X26220648Y3063697D03*
G01*
X26220648Y3317697D03*
G01*
X26220648Y3571697D03*
G01*
X26220648Y3825697D03*
G01*
X26220648Y4079697D03*
G36*
X28903340Y4394390D02*
G01*
X28903340Y4574392D01*
X28613343Y4574392D01*
X28613343Y4394390D01*
G37*
G36*
X28903340Y3632390D02*
G01*
X28903340Y3812392D01*
X28613343Y3812392D01*
X28613343Y3632390D01*
G37*
G36*
X28903340Y3886390D02*
G01*
X28903340Y4066392D01*
X28613343Y4066392D01*
X28613343Y3886390D01*
G37*
G36*
X28903340Y4140390D02*
G01*
X28903340Y4320392D01*
X28613343Y4320392D01*
X28613343Y4140390D01*
G37*
G36*
X32234337Y2787792D02*
G01*
X32234337Y2967791D01*
X31944335Y2967791D01*
X31944335Y2787792D01*
G37*
D22*
G01*
X32089343Y4147769D03*
G36*
X32234337Y3803792D02*
G01*
X32234337Y3983791D01*
X31944335Y3983791D01*
X31944335Y3803792D01*
G37*
G36*
X32234337Y3579792D02*
G01*
X32234337Y3699791D01*
X31944335Y3699791D01*
X31944335Y3579792D01*
G37*
G36*
X32234337Y3325792D02*
G01*
X32234337Y3445791D01*
X31944335Y3445791D01*
X31944335Y3325792D01*
G37*
G36*
X32234337Y3041792D02*
G01*
X32234337Y3221791D01*
X31944335Y3221791D01*
X31944335Y3041792D01*
G37*
D24*
G01*
X31817741Y522706D03*
G36*
X31653736Y1199697D02*
G01*
X31653736Y1369697D01*
X31473736Y1369697D01*
X31473736Y1199697D01*
G37*
G36*
X31907741Y1194706D02*
G01*
X31907741Y1374706D01*
X31727741Y1374706D01*
X31727741Y1194706D01*
G37*
G01*
X31563741Y1030706D03*
G01*
X31817741Y1030706D03*
D27*
G01*
X31563741Y776706D03*
D24*
G01*
X31817741Y776706D03*
G36*
X31653741Y432706D02*
G01*
X31653741Y612706D01*
X31473741Y612706D01*
X31473741Y432706D01*
G37*
D15*
G01*
X26732357Y1468805D03*
G36*
X26587345Y1208791D02*
G01*
X26877347Y1208791D01*
X26877347Y1028788D01*
X26587345Y1028788D01*
G37*
D28*
G01*
X28783635Y1462404D03*
G36*
X28638642Y1202390D02*
G01*
X28928644Y1202390D01*
X28928644Y1022388D01*
X28638642Y1022388D01*
G37*
D15*
G01*
X27514168Y5485003D03*
D16*
G01*
X27164131Y5484977D03*
D28*
G01*
X30058944Y4726787D03*
D16*
G01*
X29708932Y4726787D03*
G36*
X31192939Y5157884D02*
G01*
X31192939Y5337881D01*
X30902937Y5337881D01*
X30902937Y5157884D01*
G37*
G36*
X31192939Y7443884D02*
G01*
X31192939Y7623881D01*
X30902937Y7623881D01*
X30902937Y7443884D01*
G37*
G36*
X31192939Y7189884D02*
G01*
X31192939Y7369881D01*
X30902937Y7369881D01*
X30902937Y7189884D01*
G37*
G36*
X31192939Y6935884D02*
G01*
X31192939Y7115881D01*
X30902937Y7115881D01*
X30902937Y6935884D01*
G37*
G36*
X31192939Y6681884D02*
G01*
X31192939Y6861881D01*
X30902937Y6861881D01*
X30902937Y6681884D01*
G37*
G36*
X31192939Y6427884D02*
G01*
X31192939Y6607881D01*
X30902937Y6607881D01*
X30902937Y6427884D01*
G37*
G36*
X31192939Y6173884D02*
G01*
X31192939Y6353881D01*
X30902937Y6353881D01*
X30902937Y6173884D01*
G37*
G36*
X31192939Y5919884D02*
G01*
X31192939Y6099881D01*
X30902937Y6099881D01*
X30902937Y5919884D01*
G37*
G36*
X31192939Y5665884D02*
G01*
X31192939Y5845881D01*
X30902937Y5845881D01*
X30902937Y5665884D01*
G37*
G36*
X31192939Y5411884D02*
G01*
X31192939Y5591881D01*
X30902937Y5591881D01*
X30902937Y5411884D01*
G37*
G36*
X29593542Y6985586D02*
G01*
X29993541Y6985586D01*
X29993541Y6585587D01*
X29593542Y6585587D01*
G37*
G36*
X29085542Y6985586D02*
G01*
X29485541Y6985586D01*
X29485541Y6585587D01*
X29085542Y6585587D01*
G37*
G36*
X29940740Y2307394D02*
G01*
X30120739Y2307394D01*
X30120739Y2597396D01*
X29940740Y2597396D01*
G37*
G36*
X29178740Y2307394D02*
G01*
X29358739Y2307394D01*
X29358739Y2597396D01*
X29178740Y2597396D01*
G37*
G36*
X29432740Y2307394D02*
G01*
X29612739Y2307394D01*
X29612739Y2597396D01*
X29432740Y2597396D01*
G37*
G36*
X29686740Y2307394D02*
G01*
X29866739Y2307394D01*
X29866739Y2597396D01*
X29686740Y2597396D01*
G37*
D30*
G01*
X26727353Y1944903D03*
G36*
X30613543Y2021095D02*
G01*
X30461143Y2021095D01*
X30461143Y1868695D01*
X30613543Y1868695D01*
G37*
G01*
X30283353Y1944903D03*
G01*
X30029353Y1944903D03*
G01*
X29775353Y1944903D03*
G01*
X29521353Y1944903D03*
G01*
X29267353Y1944903D03*
G01*
X29013353Y1944903D03*
G01*
X28759353Y1944903D03*
G01*
X28505353Y1944903D03*
G01*
X28251353Y1944903D03*
G01*
X27997353Y1944903D03*
G01*
X27743353Y1944903D03*
G01*
X27489353Y1944903D03*
G01*
X27235353Y1944903D03*
G01*
X26981353Y1944903D03*
G01*
X26729842Y676097D03*
G36*
X30616042Y752299D02*
G01*
X30463642Y752299D01*
X30463642Y599899D01*
X30616042Y599899D01*
G37*
G01*
X30285842Y676097D03*
G01*
X30031842Y676097D03*
G01*
X29777842Y676097D03*
G01*
X29523842Y676097D03*
G01*
X29269842Y676097D03*
G01*
X29015842Y676097D03*
G01*
X28761842Y676097D03*
G01*
X28507842Y676097D03*
G01*
X28253842Y676097D03*
G01*
X27999842Y676097D03*
G01*
X27745842Y676097D03*
G01*
X27491842Y676097D03*
G01*
X27237842Y676097D03*
G01*
X26983842Y676097D03*
G36*
X26628455Y140411D02*
G01*
X26828455Y140411D01*
X26828455Y-109590D01*
X26628455Y-109590D01*
G37*
G36*
X31126442Y-158600D02*
G01*
X30966443Y-158600D01*
X30966443Y-318599D01*
X31126442Y-318599D01*
G37*
D33*
G01*
X31046445Y15417D03*
G01*
X30792445Y-238582D03*
G01*
X30792445Y15417D03*
G01*
X30538445Y-238582D03*
G01*
X30538445Y15417D03*
G01*
X30284445Y-238582D03*
G01*
X30284445Y15417D03*
G01*
X30030445Y-238582D03*
G01*
X30030445Y15417D03*
G01*
X29776445Y-238582D03*
G01*
X29776445Y15417D03*
G01*
X29522445Y-238582D03*
G01*
X29522445Y15417D03*
G01*
X29268445Y-238582D03*
G01*
X29268445Y15417D03*
G01*
X29014445Y-238582D03*
G01*
X29014445Y15417D03*
G01*
X28760445Y-238582D03*
G01*
X28760445Y15417D03*
G01*
X28506445Y-238582D03*
G01*
X28506445Y15417D03*
G01*
X28252445Y-238582D03*
G01*
X28252445Y15417D03*
G01*
X27998445Y-238582D03*
G01*
X27998445Y15417D03*
G01*
X27744445Y-238582D03*
G01*
X27744445Y15417D03*
G01*
X27490445Y-238582D03*
G01*
X27490445Y15417D03*
G01*
X27236445Y-238582D03*
G01*
X27236445Y15417D03*
G01*
X26982445Y-238582D03*
G01*
X26982445Y15417D03*
G01*
X26728445Y-238582D03*
G36*
X31700838Y7182685D02*
G01*
X31700838Y7362685D01*
X31410836Y7362685D01*
X31410836Y7182685D01*
G37*
G36*
X31700838Y6420685D02*
G01*
X31700838Y6600685D01*
X31410836Y6600685D01*
X31410836Y6420685D01*
G37*
G36*
X31700838Y6674685D02*
G01*
X31700838Y6854685D01*
X31410836Y6854685D01*
X31410836Y6674685D01*
G37*
G36*
X31700838Y6928685D02*
G01*
X31700838Y7108685D01*
X31410836Y7108685D01*
X31410836Y6928685D01*
G37*
D19*
G01*
X26220648Y6616496D03*
D18*
G01*
X26220648Y4838471D03*
D19*
G01*
X26220648Y5092496D03*
G01*
X26220648Y5346496D03*
G01*
X26220648Y5600496D03*
G01*
X26220648Y5854496D03*
G01*
X26220648Y6108496D03*
G01*
X26220648Y6362496D03*
G36*
X27908044Y2297394D02*
G01*
X28088043Y2297394D01*
X28088043Y2587393D01*
X27908044Y2587393D01*
G37*
G36*
X27146044Y2297394D02*
G01*
X27326043Y2297394D01*
X27326043Y2587393D01*
X27146044Y2587393D01*
G37*
G36*
X27400044Y2297394D02*
G01*
X27580043Y2297394D01*
X27580043Y2587393D01*
X27400044Y2587393D01*
G37*
G36*
X27654044Y2297394D02*
G01*
X27834043Y2297394D01*
X27834043Y2587393D01*
X27654044Y2587393D01*
G37*
G36*
X27396346Y-936691D02*
G01*
X27576345Y-936691D01*
X27576345Y-646691D01*
X27396346Y-646691D01*
G37*
G36*
X26634346Y-936691D02*
G01*
X26814345Y-936691D01*
X26814345Y-646691D01*
X26634346Y-646691D01*
G37*
G36*
X26888346Y-936691D02*
G01*
X27068345Y-936691D01*
X27068345Y-646691D01*
X26888346Y-646691D01*
G37*
G36*
X27142346Y-936691D02*
G01*
X27322345Y-936691D01*
X27322345Y-646691D01*
X27142346Y-646691D01*
G37*
D28*
X27999232Y6499090D02*
G01*
X27999232Y6549090D01*
X27745232Y6499090D02*
G01*
X27745232Y6549090D01*
M02*
