G04 Layer: TopLayer*
G04 EasyEDA v6.4.17, 2021-03-30T11:05:58--3:00*
G04 e54f85b4d2414f64907e96423a573e64,e32968b322094deeae1279e20ae9dd51,10*
G04 Gerber Generator version 0.2*
G04 Scale: 100 percent, Rotated: No, Reflected: No *
G04 Dimensions in millimeters *
G04 leading zeros omitted , absolute positions ,4 integer and 5 decimal *
%FSLAX45Y45*%
%MOMM*%

%ADD10C,0.2540*%
%ADD11C,1.1000*%
%ADD12C,1.2000*%
%ADD13C,0.1000*%
%ADD14C,3.0000*%
%ADD15C,2.5000*%
%ADD16R,1.8000X2.9000*%
%ADD18R,2.9000X1.5000*%
%ADD19R,2.9000X1.8000*%
%ADD20R,1.8000X1.1000*%
%ADD21R,2.5000X1.8000*%
%ADD22C,1.8000*%
%ADD24C,1.7000*%
%ADD27C,1.5000*%
%ADD28C,2.0000*%
%ADD30C,1.5240*%
%ADD33C,1.6000*%

%LPD*%
D11*
X31574635Y239999D02*
G01*
X30986729Y243586D01*
X30986737Y243199D01*
X30765750Y528828D01*
X30765750Y1720850D01*
X26489659Y1720850D01*
X26489659Y2962402D01*
X27449018Y2957321D01*
X27448256Y4427473D01*
X26728420Y4427473D01*
D10*
X29395526Y6162408D02*
G01*
X29493865Y6162408D01*
X26442466Y2388473D02*
G01*
X26443137Y2388473D01*
X26443137Y2388473D02*
G01*
X26442466Y2388473D01*
D12*
X31570437Y522698D02*
G01*
X31570236Y245498D01*
D11*
X30537348Y1944893D02*
G01*
X30537348Y2825094D01*
X31390638Y2825094D01*
X31825237Y2390495D01*
X31817731Y2382989D01*
X31817736Y1291498D01*
D10*
G75*
G01
X32124447Y2877769D02*
G03X32124447Y2877769I-35001J0D01*
G75*
G01
X32124447Y3131769D02*
G03X32124447Y3131769I-35001J0D01*
G75*
G01
X32124447Y3385769D02*
G03X32124447Y3385769I-35001J0D01*
G75*
G01
X32124447Y3639769D02*
G03X32124447Y3639769I-35001J0D01*
D13*
G75*
G01
X32134454Y3893769D02*
G03X32134454Y3893769I-45009J0D01*
D10*
G75*
G01
X32124447Y2877769D02*
G03X32124447Y2877769I-35001J0D01*
D14*
G01*
X29584040Y-718794D03*
G01*
X30034052Y-708888D03*
G01*
X30906237Y-708507D03*
G01*
X31393129Y-721309D03*
G01*
X26380744Y7240092D03*
G01*
X27102638Y7253376D03*
G01*
X25701243Y3978300D03*
G01*
X25698450Y3509390D03*
G01*
X25701243Y3098698D03*
D15*
G01*
X28229534Y5498769D03*
D16*
G01*
X28579546Y5498795D03*
G36*
X29720941Y6132288D02*
G01*
X29900940Y6132288D01*
X29900940Y5842287D01*
X29720941Y5842287D01*
G37*
G36*
X29220942Y6132288D02*
G01*
X29400941Y6132288D01*
X29400941Y5842287D01*
X29220942Y5842287D01*
G37*
G36*
X28353318Y6399118D02*
G01*
X28153166Y6399118D01*
X28153166Y6649054D01*
X28353318Y6649054D01*
G37*
D18*
G01*
X26728445Y4427575D03*
G36*
X26873446Y3321593D02*
G01*
X26873446Y3501593D01*
X26583444Y3501593D01*
X26583444Y3321593D01*
G37*
G36*
X26873446Y3575593D02*
G01*
X26873446Y3755593D01*
X26583444Y3755593D01*
X26583444Y3575593D01*
G37*
G36*
X26873446Y3829593D02*
G01*
X26873446Y4009593D01*
X26583444Y4009593D01*
X26583444Y3829593D01*
G37*
G36*
X26873446Y4083593D02*
G01*
X26873446Y4263593D01*
X26583444Y4263593D01*
X26583444Y4083593D01*
G37*
D19*
G01*
X31046547Y777290D03*
G01*
X31046547Y2555290D03*
G01*
X31046547Y2301290D03*
D20*
G01*
X31046521Y2047290D03*
G01*
X31046521Y1793290D03*
D19*
G01*
X31046547Y1539290D03*
G01*
X31046547Y1285290D03*
G01*
X31046547Y1031290D03*
G01*
X29268547Y3212084D03*
G01*
X29268547Y4990084D03*
G01*
X29268547Y4736084D03*
G01*
X29268547Y4482084D03*
G01*
X29268547Y4228084D03*
G01*
X29268547Y3974084D03*
G01*
X29268547Y3720084D03*
G01*
X29268547Y3466084D03*
G01*
X31046445Y4841392D03*
G01*
X31046445Y3063392D03*
G01*
X31046445Y3317392D03*
G01*
X31046445Y3571392D03*
G01*
X31046445Y3825392D03*
G01*
X31046445Y4079392D03*
G01*
X31046445Y4333392D03*
G01*
X31046445Y4587392D03*
G01*
X30536337Y4992801D03*
G01*
X30536337Y3214801D03*
G01*
X30536337Y3468801D03*
G01*
X30536337Y3722801D03*
G01*
X30536337Y3976801D03*
G01*
X30536337Y4230801D03*
G01*
X30536337Y4484801D03*
G01*
X30536337Y4738801D03*
D21*
G01*
X26220648Y2047392D03*
G01*
X26220648Y269392D03*
G01*
X26220648Y523392D03*
G01*
X26220648Y777392D03*
G01*
X26220648Y1031392D03*
G01*
X26220648Y1285392D03*
G01*
X26220648Y1539392D03*
G01*
X26220648Y1793392D03*
D18*
G01*
X26220648Y4333697D03*
D19*
G01*
X26220648Y2555697D03*
G01*
X26220648Y2809697D03*
G01*
X26220648Y3063697D03*
G01*
X26220648Y3317697D03*
G01*
X26220648Y3571697D03*
G01*
X26220648Y3825697D03*
G01*
X26220648Y4079697D03*
G36*
X28903340Y4394390D02*
G01*
X28903340Y4574392D01*
X28613343Y4574392D01*
X28613343Y4394390D01*
G37*
G36*
X28903340Y3632390D02*
G01*
X28903340Y3812392D01*
X28613343Y3812392D01*
X28613343Y3632390D01*
G37*
G36*
X28903340Y3886390D02*
G01*
X28903340Y4066392D01*
X28613343Y4066392D01*
X28613343Y3886390D01*
G37*
G36*
X28903340Y4140390D02*
G01*
X28903340Y4320392D01*
X28613343Y4320392D01*
X28613343Y4140390D01*
G37*
G36*
X32234337Y2787792D02*
G01*
X32234337Y2967791D01*
X31944335Y2967791D01*
X31944335Y2787792D01*
G37*
D22*
G01*
X32089343Y4147769D03*
G36*
X32234337Y3803792D02*
G01*
X32234337Y3983791D01*
X31944335Y3983791D01*
X31944335Y3803792D01*
G37*
G36*
X32234337Y3579792D02*
G01*
X32234337Y3699791D01*
X31944335Y3699791D01*
X31944335Y3579792D01*
G37*
G36*
X32234337Y3325792D02*
G01*
X32234337Y3445791D01*
X31944335Y3445791D01*
X31944335Y3325792D01*
G37*
G36*
X32234337Y3041792D02*
G01*
X32234337Y3221791D01*
X31944335Y3221791D01*
X31944335Y3041792D01*
G37*
D24*
G01*
X31817741Y522706D03*
G36*
X31653736Y1199697D02*
G01*
X31653736Y1369697D01*
X31473736Y1369697D01*
X31473736Y1199697D01*
G37*
G36*
X31907741Y1194706D02*
G01*
X31907741Y1374706D01*
X31727741Y1374706D01*
X31727741Y1194706D01*
G37*
G01*
X31563741Y1030706D03*
G01*
X31817741Y1030706D03*
D27*
G01*
X31563741Y776706D03*
D24*
G01*
X31817741Y776706D03*
G36*
X31653741Y432706D02*
G01*
X31653741Y612706D01*
X31473741Y612706D01*
X31473741Y432706D01*
G37*
D15*
G01*
X26732357Y1468805D03*
G36*
X26587345Y1208791D02*
G01*
X26877347Y1208791D01*
X26877347Y1028788D01*
X26587345Y1028788D01*
G37*
D28*
G01*
X28783635Y1462404D03*
G36*
X28638642Y1202390D02*
G01*
X28928644Y1202390D01*
X28928644Y1022388D01*
X28638642Y1022388D01*
G37*
D15*
G01*
X27514168Y5485003D03*
D16*
G01*
X27164131Y5484977D03*
D28*
G01*
X30058944Y4726787D03*
D16*
G01*
X29708932Y4726787D03*
G36*
X31192939Y5157884D02*
G01*
X31192939Y5337881D01*
X30902937Y5337881D01*
X30902937Y5157884D01*
G37*
G36*
X31192939Y7443884D02*
G01*
X31192939Y7623881D01*
X30902937Y7623881D01*
X30902937Y7443884D01*
G37*
G36*
X31192939Y7189884D02*
G01*
X31192939Y7369881D01*
X30902937Y7369881D01*
X30902937Y7189884D01*
G37*
G36*
X31192939Y6935884D02*
G01*
X31192939Y7115881D01*
X30902937Y7115881D01*
X30902937Y6935884D01*
G37*
G36*
X31192939Y6681884D02*
G01*
X31192939Y6861881D01*
X30902937Y6861881D01*
X30902937Y6681884D01*
G37*
G36*
X31192939Y6427884D02*
G01*
X31192939Y6607881D01*
X30902937Y6607881D01*
X30902937Y6427884D01*
G37*
G36*
X31192939Y6173884D02*
G01*
X31192939Y6353881D01*
X30902937Y6353881D01*
X30902937Y6173884D01*
G37*
G36*
X31192939Y5919884D02*
G01*
X31192939Y6099881D01*
X30902937Y6099881D01*
X30902937Y5919884D01*
G37*
G36*
X31192939Y5665884D02*
G01*
X31192939Y5845881D01*
X30902937Y5845881D01*
X30902937Y5665884D01*
G37*
G36*
X31192939Y5411884D02*
G01*
X31192939Y5591881D01*
X30902937Y5591881D01*
X30902937Y5411884D01*
G37*
G36*
X29593542Y6985586D02*
G01*
X29993541Y6985586D01*
X29993541Y6585587D01*
X29593542Y6585587D01*
G37*
G36*
X29085542Y6985586D02*
G01*
X29485541Y6985586D01*
X29485541Y6585587D01*
X29085542Y6585587D01*
G37*
G36*
X29940740Y2307394D02*
G01*
X30120739Y2307394D01*
X30120739Y2597396D01*
X29940740Y2597396D01*
G37*
G36*
X29178740Y2307394D02*
G01*
X29358739Y2307394D01*
X29358739Y2597396D01*
X29178740Y2597396D01*
G37*
G36*
X29432740Y2307394D02*
G01*
X29612739Y2307394D01*
X29612739Y2597396D01*
X29432740Y2597396D01*
G37*
G36*
X29686740Y2307394D02*
G01*
X29866739Y2307394D01*
X29866739Y2597396D01*
X29686740Y2597396D01*
G37*
D30*
G01*
X26727353Y1944903D03*
G36*
X30613543Y2021095D02*
G01*
X30461143Y2021095D01*
X30461143Y1868695D01*
X30613543Y1868695D01*
G37*
G01*
X30283353Y1944903D03*
G01*
X30029353Y1944903D03*
G01*
X29775353Y1944903D03*
G01*
X29521353Y1944903D03*
G01*
X29267353Y1944903D03*
G01*
X29013353Y1944903D03*
G01*
X28759353Y1944903D03*
G01*
X28505353Y1944903D03*
G01*
X28251353Y1944903D03*
G01*
X27997353Y1944903D03*
G01*
X27743353Y1944903D03*
G01*
X27489353Y1944903D03*
G01*
X27235353Y1944903D03*
G01*
X26981353Y1944903D03*
G01*
X26729842Y676097D03*
G36*
X30616042Y752299D02*
G01*
X30463642Y752299D01*
X30463642Y599899D01*
X30616042Y599899D01*
G37*
G01*
X30285842Y676097D03*
G01*
X30031842Y676097D03*
G01*
X29777842Y676097D03*
G01*
X29523842Y676097D03*
G01*
X29269842Y676097D03*
G01*
X29015842Y676097D03*
G01*
X28761842Y676097D03*
G01*
X28507842Y676097D03*
G01*
X28253842Y676097D03*
G01*
X27999842Y676097D03*
G01*
X27745842Y676097D03*
G01*
X27491842Y676097D03*
G01*
X27237842Y676097D03*
G01*
X26983842Y676097D03*
G36*
X26628455Y140411D02*
G01*
X26828455Y140411D01*
X26828455Y-109590D01*
X26628455Y-109590D01*
G37*
G36*
X31126442Y-158600D02*
G01*
X30966443Y-158600D01*
X30966443Y-318599D01*
X31126442Y-318599D01*
G37*
D33*
G01*
X31046445Y15417D03*
G01*
X30792445Y-238582D03*
G01*
X30792445Y15417D03*
G01*
X30538445Y-238582D03*
G01*
X30538445Y15417D03*
G01*
X30284445Y-238582D03*
G01*
X30284445Y15417D03*
G01*
X30030445Y-238582D03*
G01*
X30030445Y15417D03*
G01*
X29776445Y-238582D03*
G01*
X29776445Y15417D03*
G01*
X29522445Y-238582D03*
G01*
X29522445Y15417D03*
G01*
X29268445Y-238582D03*
G01*
X29268445Y15417D03*
G01*
X29014445Y-238582D03*
G01*
X29014445Y15417D03*
G01*
X28760445Y-238582D03*
G01*
X28760445Y15417D03*
G01*
X28506445Y-238582D03*
G01*
X28506445Y15417D03*
G01*
X28252445Y-238582D03*
G01*
X28252445Y15417D03*
G01*
X27998445Y-238582D03*
G01*
X27998445Y15417D03*
G01*
X27744445Y-238582D03*
G01*
X27744445Y15417D03*
G01*
X27490445Y-238582D03*
G01*
X27490445Y15417D03*
G01*
X27236445Y-238582D03*
G01*
X27236445Y15417D03*
G01*
X26982445Y-238582D03*
G01*
X26982445Y15417D03*
G01*
X26728445Y-238582D03*
G36*
X31700838Y7182685D02*
G01*
X31700838Y7362685D01*
X31410836Y7362685D01*
X31410836Y7182685D01*
G37*
G36*
X31700838Y6420685D02*
G01*
X31700838Y6600685D01*
X31410836Y6600685D01*
X31410836Y6420685D01*
G37*
G36*
X31700838Y6674685D02*
G01*
X31700838Y6854685D01*
X31410836Y6854685D01*
X31410836Y6674685D01*
G37*
G36*
X31700838Y6928685D02*
G01*
X31700838Y7108685D01*
X31410836Y7108685D01*
X31410836Y6928685D01*
G37*
D19*
G01*
X26220648Y6616496D03*
D18*
G01*
X26220648Y4838471D03*
D19*
G01*
X26220648Y5092496D03*
G01*
X26220648Y5346496D03*
G01*
X26220648Y5600496D03*
G01*
X26220648Y5854496D03*
G01*
X26220648Y6108496D03*
G01*
X26220648Y6362496D03*
G36*
X27908044Y2297394D02*
G01*
X28088043Y2297394D01*
X28088043Y2587393D01*
X27908044Y2587393D01*
G37*
G36*
X27146044Y2297394D02*
G01*
X27326043Y2297394D01*
X27326043Y2587393D01*
X27146044Y2587393D01*
G37*
G36*
X27400044Y2297394D02*
G01*
X27580043Y2297394D01*
X27580043Y2587393D01*
X27400044Y2587393D01*
G37*
G36*
X27654044Y2297394D02*
G01*
X27834043Y2297394D01*
X27834043Y2587393D01*
X27654044Y2587393D01*
G37*
G36*
X27396346Y-936691D02*
G01*
X27576345Y-936691D01*
X27576345Y-646691D01*
X27396346Y-646691D01*
G37*
G36*
X26634346Y-936691D02*
G01*
X26814345Y-936691D01*
X26814345Y-646691D01*
X26634346Y-646691D01*
G37*
G36*
X26888346Y-936691D02*
G01*
X27068345Y-936691D01*
X27068345Y-646691D01*
X26888346Y-646691D01*
G37*
G36*
X27142346Y-936691D02*
G01*
X27322345Y-936691D01*
X27322345Y-646691D01*
X27142346Y-646691D01*
G37*
D28*
X27999232Y6499090D02*
G01*
X27999232Y6549090D01*
X27745232Y6499090D02*
G01*
X27745232Y6549090D01*
M02*
