G04 Layer: BottomSilkLayer*
G04 EasyEDA v6.4.17, 2021-03-30T11:05:58--3:00*
G04 e54f85b4d2414f64907e96423a573e64,e32968b322094deeae1279e20ae9dd51,10*
G04 Gerber Generator version 0.2*
G04 Scale: 100 percent, Rotated: No, Reflected: No *
G04 Dimensions in millimeters *
G04 leading zeros omitted , absolute positions ,4 integer and 5 decimal *
%FSLAX45Y45*%
%MOMM*%

%ADD10C,0.2540*%
%ADD13C,0.1000*%
%ADD35C,0.2032*%
%ADD39C,0.1524*%
%ADD40C,0.2030*%

%LPD*%
D39*
X26996189Y3919585D02*
G01*
X26918257Y3919585D01*
X26902671Y3924780D01*
X26892280Y3935171D01*
X26887086Y3950759D01*
X26887086Y3961150D01*
X26892280Y3976735D01*
X26902671Y3987126D01*
X26918257Y3992321D01*
X26996189Y3992321D01*
X26996189Y4078566D02*
G01*
X26923453Y4026611D01*
X26923453Y4104543D01*
X26996189Y4078566D02*
G01*
X26887086Y4078566D01*
X26959821Y4206374D02*
G01*
X26944236Y4201180D01*
X26933845Y4190789D01*
X26928648Y4175201D01*
X26928648Y4170006D01*
X26933845Y4154421D01*
X26944236Y4144030D01*
X26959821Y4138833D01*
X26965015Y4138833D01*
X26980603Y4144030D01*
X26990995Y4154421D01*
X26996189Y4170006D01*
X26996189Y4175201D01*
X26990995Y4190789D01*
X26980603Y4201180D01*
X26959821Y4206374D01*
X26933845Y4206374D01*
X26907865Y4201180D01*
X26892280Y4190789D01*
X26887086Y4175201D01*
X26887086Y4164810D01*
X26892280Y4149224D01*
X26902671Y4144030D01*
X30778790Y1666300D02*
G01*
X30856722Y1666300D01*
X30872308Y1661106D01*
X30882699Y1650715D01*
X30887893Y1635127D01*
X30887893Y1624736D01*
X30882699Y1609150D01*
X30872308Y1598759D01*
X30856722Y1593565D01*
X30778790Y1593565D01*
X30778790Y1496928D02*
G01*
X30778790Y1548884D01*
X30825549Y1554078D01*
X30820354Y1548884D01*
X30815158Y1533296D01*
X30815158Y1517710D01*
X30820354Y1502125D01*
X30830743Y1491734D01*
X30846331Y1486537D01*
X30856722Y1486537D01*
X30872308Y1491734D01*
X30882699Y1502125D01*
X30887893Y1517710D01*
X30887893Y1533296D01*
X30882699Y1548884D01*
X30877504Y1554078D01*
X30867113Y1559275D01*
X30799572Y1452247D02*
G01*
X30794375Y1441856D01*
X30778790Y1426270D01*
X30887893Y1426270D01*
X29000800Y4101094D02*
G01*
X29078732Y4101094D01*
X29094318Y4095899D01*
X29104709Y4085508D01*
X29109903Y4069920D01*
X29109903Y4059529D01*
X29104709Y4043944D01*
X29094318Y4033553D01*
X29078732Y4028358D01*
X29000800Y4028358D01*
X29000800Y3931721D02*
G01*
X29000800Y3983677D01*
X29047559Y3988871D01*
X29042365Y3983677D01*
X29037168Y3968089D01*
X29037168Y3952504D01*
X29042365Y3936918D01*
X29052753Y3926527D01*
X29068341Y3921330D01*
X29078732Y3921330D01*
X29094318Y3926527D01*
X29104709Y3936918D01*
X29109903Y3952504D01*
X29109903Y3968089D01*
X29104709Y3983677D01*
X29099515Y3988871D01*
X29089123Y3994068D01*
X29026777Y3881846D02*
G01*
X29021582Y3881846D01*
X29011191Y3876649D01*
X29005994Y3871455D01*
X29000800Y3861064D01*
X29000800Y3840281D01*
X29005994Y3829890D01*
X29011191Y3824696D01*
X29021582Y3819499D01*
X29031973Y3819499D01*
X29042365Y3824696D01*
X29057950Y3835087D01*
X29109903Y3887040D01*
X29109903Y3814305D01*
X31314174Y3952382D02*
G01*
X31236241Y3952382D01*
X31220656Y3957576D01*
X31210265Y3967967D01*
X31205070Y3983555D01*
X31205070Y3993946D01*
X31210265Y4009532D01*
X31220656Y4019923D01*
X31236241Y4025117D01*
X31314174Y4025117D01*
X31314174Y4121754D02*
G01*
X31314174Y4069798D01*
X31267415Y4064604D01*
X31272609Y4069798D01*
X31277806Y4085386D01*
X31277806Y4100972D01*
X31272609Y4116557D01*
X31262220Y4126948D01*
X31246632Y4132145D01*
X31236241Y4132145D01*
X31220656Y4126948D01*
X31210265Y4116557D01*
X31205070Y4100972D01*
X31205070Y4085386D01*
X31210265Y4069798D01*
X31215459Y4064604D01*
X31225850Y4059407D01*
X31298588Y4228779D02*
G01*
X31308979Y4223585D01*
X31314174Y4207997D01*
X31314174Y4197606D01*
X31308979Y4182021D01*
X31293391Y4171629D01*
X31267415Y4166435D01*
X31241438Y4166435D01*
X31220656Y4171629D01*
X31210265Y4182021D01*
X31205070Y4197606D01*
X31205070Y4202803D01*
X31210265Y4218388D01*
X31220656Y4228779D01*
X31236241Y4233976D01*
X31241438Y4233976D01*
X31257024Y4228779D01*
X31267415Y4218388D01*
X31272609Y4202803D01*
X31272609Y4197606D01*
X31267415Y4182021D01*
X31257024Y4171629D01*
X31241438Y4166435D01*
X30804083Y4103786D02*
G01*
X30726151Y4103786D01*
X30710565Y4108980D01*
X30700174Y4119371D01*
X30694980Y4134959D01*
X30694980Y4145351D01*
X30700174Y4160936D01*
X30710565Y4171327D01*
X30726151Y4176521D01*
X30804083Y4176521D01*
X30804083Y4273158D02*
G01*
X30804083Y4221203D01*
X30757324Y4216008D01*
X30762519Y4221203D01*
X30767715Y4236791D01*
X30767715Y4252376D01*
X30762519Y4267962D01*
X30752130Y4278353D01*
X30736542Y4283549D01*
X30726151Y4283549D01*
X30710565Y4278353D01*
X30700174Y4267962D01*
X30694980Y4252376D01*
X30694980Y4236791D01*
X30700174Y4221203D01*
X30705369Y4216008D01*
X30715760Y4210812D01*
X30804083Y4390575D02*
G01*
X30694980Y4338622D01*
X30804083Y4317839D02*
G01*
X30804083Y4390575D01*
X26488382Y1158397D02*
G01*
X26410450Y1158397D01*
X26394864Y1163591D01*
X26384473Y1173982D01*
X26379279Y1189570D01*
X26379279Y1199962D01*
X26384473Y1215547D01*
X26394864Y1225938D01*
X26410450Y1231132D01*
X26488382Y1231132D01*
X26488382Y1327769D02*
G01*
X26488382Y1275814D01*
X26441623Y1270619D01*
X26446817Y1275814D01*
X26452014Y1291402D01*
X26452014Y1306987D01*
X26446817Y1322572D01*
X26436429Y1332964D01*
X26420841Y1338160D01*
X26410450Y1338160D01*
X26394864Y1332964D01*
X26384473Y1322572D01*
X26379279Y1306987D01*
X26379279Y1291402D01*
X26384473Y1275814D01*
X26389667Y1270619D01*
X26400058Y1265422D01*
X26452014Y1439992D02*
G01*
X26436429Y1434795D01*
X26426038Y1424404D01*
X26420841Y1408818D01*
X26420841Y1403621D01*
X26426038Y1388036D01*
X26436429Y1377645D01*
X26452014Y1372450D01*
X26457208Y1372450D01*
X26472796Y1377645D01*
X26483188Y1388036D01*
X26488382Y1403621D01*
X26488382Y1408818D01*
X26483188Y1424404D01*
X26472796Y1434795D01*
X26452014Y1439992D01*
X26426038Y1439992D01*
X26400058Y1434795D01*
X26384473Y1424404D01*
X26379279Y1408818D01*
X26379279Y1398427D01*
X26384473Y1382842D01*
X26394864Y1377645D01*
X26488387Y3444687D02*
G01*
X26410455Y3444687D01*
X26394869Y3449881D01*
X26384478Y3460272D01*
X26379284Y3475860D01*
X26379284Y3486251D01*
X26384478Y3501837D01*
X26394869Y3512228D01*
X26410455Y3517422D01*
X26488387Y3517422D01*
X26472802Y3614059D02*
G01*
X26483193Y3608862D01*
X26488387Y3593277D01*
X26488387Y3582885D01*
X26483193Y3567300D01*
X26467605Y3556909D01*
X26441628Y3551712D01*
X26415652Y3551712D01*
X26394869Y3556909D01*
X26384478Y3567300D01*
X26379284Y3582885D01*
X26379284Y3588082D01*
X26384478Y3603668D01*
X26394869Y3614059D01*
X26410455Y3619253D01*
X26415652Y3619253D01*
X26431237Y3614059D01*
X26441628Y3603668D01*
X26446822Y3588082D01*
X26446822Y3582885D01*
X26441628Y3567300D01*
X26431237Y3556909D01*
X26415652Y3551712D01*
X26488387Y3684717D02*
G01*
X26483193Y3669131D01*
X26467605Y3658740D01*
X26441628Y3653543D01*
X26426043Y3653543D01*
X26400064Y3658740D01*
X26384478Y3669131D01*
X26379284Y3684717D01*
X26379284Y3695108D01*
X26384478Y3710693D01*
X26400064Y3721084D01*
X26426043Y3726281D01*
X26441628Y3726281D01*
X26467605Y3721084D01*
X26483193Y3710693D01*
X26488387Y3695108D01*
X26488387Y3684717D01*
X29026081Y4103400D02*
G01*
X28948148Y4103400D01*
X28932563Y4108594D01*
X28922172Y4118985D01*
X28916977Y4134573D01*
X28916977Y4144965D01*
X28922172Y4160550D01*
X28932563Y4170941D01*
X28948148Y4176135D01*
X29026081Y4176135D01*
X29010495Y4272772D02*
G01*
X29020886Y4267575D01*
X29026081Y4251990D01*
X29026081Y4241599D01*
X29020886Y4226013D01*
X29005298Y4215622D01*
X28979322Y4210425D01*
X28953345Y4210425D01*
X28932563Y4215622D01*
X28922172Y4226013D01*
X28916977Y4241599D01*
X28916977Y4246796D01*
X28922172Y4262381D01*
X28932563Y4272772D01*
X28948148Y4277967D01*
X28953345Y4277967D01*
X28968931Y4272772D01*
X28979322Y4262381D01*
X28984516Y4246796D01*
X28984516Y4241599D01*
X28979322Y4226013D01*
X28968931Y4215622D01*
X28953345Y4210425D01*
X29005298Y4312257D02*
G01*
X29010495Y4322648D01*
X29026081Y4338236D01*
X28916977Y4338236D01*
X32357082Y3512779D02*
G01*
X32247979Y3512779D01*
X32357082Y3585514D02*
G01*
X32247979Y3585514D01*
X32305129Y3512779D02*
G01*
X32305129Y3585514D01*
X32341497Y3682151D02*
G01*
X32351888Y3676954D01*
X32357082Y3661369D01*
X32357082Y3650978D01*
X32351888Y3635392D01*
X32336300Y3625001D01*
X32310324Y3619804D01*
X32284347Y3619804D01*
X32263565Y3625001D01*
X32253174Y3635392D01*
X32247979Y3650978D01*
X32247979Y3656175D01*
X32253174Y3671760D01*
X32263565Y3682151D01*
X32279150Y3687345D01*
X32284347Y3687345D01*
X32299932Y3682151D01*
X32310324Y3671760D01*
X32315518Y3656175D01*
X32315518Y3650978D01*
X32310324Y3635392D01*
X32299932Y3625001D01*
X32284347Y3619804D01*
X31315687Y6390881D02*
G01*
X31206584Y6390881D01*
X31315687Y6463616D02*
G01*
X31206584Y6463616D01*
X31263734Y6390881D02*
G01*
X31263734Y6463616D01*
X31315687Y6570644D02*
G01*
X31206584Y6518689D01*
X31315687Y6497906D02*
G01*
X31315687Y6570644D01*
X27516145Y584481D02*
G01*
X27516145Y662414D01*
X27521341Y677999D01*
X27531730Y688390D01*
X27547318Y693587D01*
X27557709Y693587D01*
X27573295Y688390D01*
X27583686Y677999D01*
X27588880Y662414D01*
X27588880Y584481D01*
X27695908Y584481D02*
G01*
X27643952Y693587D01*
X27623170Y584481D02*
G01*
X27695908Y584481D01*
X27761371Y584481D02*
G01*
X27745783Y589678D01*
X27735392Y605264D01*
X27730198Y631240D01*
X27730198Y646828D01*
X27735392Y672805D01*
X27745783Y688390D01*
X27761371Y693587D01*
X27771760Y693587D01*
X27787348Y688390D01*
X27797739Y672805D01*
X27802933Y646828D01*
X27802933Y631240D01*
X27797739Y605264D01*
X27787348Y589678D01*
X27771760Y584481D01*
X27761371Y584481D01*
X28632348Y2212632D02*
G01*
X28632348Y2134699D01*
X28627151Y2119111D01*
X28616760Y2108723D01*
X28601177Y2103526D01*
X28590786Y2103526D01*
X28575198Y2108723D01*
X28564806Y2119111D01*
X28559610Y2134699D01*
X28559610Y2212632D01*
X28452584Y2212632D02*
G01*
X28504537Y2103526D01*
X28525322Y2212632D02*
G01*
X28452584Y2212632D01*
X28418297Y2191849D02*
G01*
X28407906Y2197044D01*
X28392320Y2212632D01*
X28392320Y2103526D01*
X28634850Y943836D02*
G01*
X28634850Y865903D01*
X28629655Y850318D01*
X28619264Y839927D01*
X28603676Y834732D01*
X28593285Y834732D01*
X28577700Y839927D01*
X28567308Y850318D01*
X28562114Y865903D01*
X28562114Y943836D01*
X28465477Y943836D02*
G01*
X28517433Y943836D01*
X28522627Y897077D01*
X28517433Y902271D01*
X28501845Y907468D01*
X28486260Y907468D01*
X28470674Y902271D01*
X28460283Y891882D01*
X28455086Y876294D01*
X28455086Y865903D01*
X28460283Y850318D01*
X28470674Y839927D01*
X28486260Y834732D01*
X28501845Y834732D01*
X28517433Y839927D01*
X28522627Y845121D01*
X28527824Y855512D01*
X28358452Y943836D02*
G01*
X28410405Y943836D01*
X28415602Y897077D01*
X28410405Y902271D01*
X28394820Y907468D01*
X28379234Y907468D01*
X28363646Y902271D01*
X28353255Y891882D01*
X28348061Y876294D01*
X28348061Y865903D01*
X28353255Y850318D01*
X28363646Y839927D01*
X28379234Y834732D01*
X28394820Y834732D01*
X28410405Y839927D01*
X28415602Y845121D01*
X28420796Y855512D01*
X28835499Y295849D02*
G01*
X28835499Y212722D01*
X28840696Y197134D01*
X28845890Y191940D01*
X28856282Y186745D01*
X28866673Y186745D01*
X28877064Y191940D01*
X28882261Y197134D01*
X28887455Y212722D01*
X28887455Y223113D01*
X28790821Y295849D02*
G01*
X28733671Y295849D01*
X28764842Y254284D01*
X28749256Y254284D01*
X28738865Y249090D01*
X28733671Y243895D01*
X28728474Y228307D01*
X28728474Y217916D01*
X28733671Y202331D01*
X28744059Y191940D01*
X28759647Y186745D01*
X28775233Y186745D01*
X28790821Y191940D01*
X28796015Y197134D01*
X28801209Y207525D01*
X26488387Y5727484D02*
G01*
X26410455Y5727484D01*
X26394869Y5732680D01*
X26384478Y5743072D01*
X26379284Y5758657D01*
X26379284Y5769048D01*
X26384478Y5784634D01*
X26394869Y5795025D01*
X26410455Y5800222D01*
X26488387Y5800222D01*
X26488387Y5907247D02*
G01*
X26379284Y5855291D01*
X26488387Y5834512D02*
G01*
X26488387Y5907247D01*
X26462408Y5946731D02*
G01*
X26467605Y5946731D01*
X26477996Y5951928D01*
X26483193Y5957122D01*
X26488387Y5967514D01*
X26488387Y5988296D01*
X26483193Y5998687D01*
X26477996Y6003881D01*
X26467605Y6009078D01*
X26457216Y6009078D01*
X26446825Y6003881D01*
X26431237Y5993490D01*
X26379284Y5941537D01*
X26379284Y6014272D01*
X25483449Y574471D02*
G01*
X25483449Y652414D01*
X25488643Y667997D01*
X25499034Y678390D01*
X25514620Y683587D01*
X25525011Y683587D01*
X25540599Y678390D01*
X25550990Y667997D01*
X25556184Y652414D01*
X25556184Y574471D01*
X25663210Y574471D02*
G01*
X25611256Y683587D01*
X25590474Y574471D02*
G01*
X25663210Y574471D01*
X25707891Y574471D02*
G01*
X25765041Y574471D01*
X25733870Y616043D01*
X25749455Y616043D01*
X25759846Y621240D01*
X25765041Y626437D01*
X25770238Y642020D01*
X25770238Y652414D01*
X25765041Y667997D01*
X25754650Y678390D01*
X25739064Y683587D01*
X25723479Y683587D01*
X25707891Y678390D01*
X25702696Y673193D01*
X25697500Y662800D01*
X26889445Y-1415036D02*
G01*
X26889445Y-1305933D01*
X26889445Y-1305933D02*
G01*
X26951790Y-1305933D01*
X26986080Y-1415036D02*
G01*
X26986080Y-1305933D01*
X26986080Y-1415036D02*
G01*
X27053621Y-1415036D01*
X26986080Y-1363083D02*
G01*
X27027644Y-1363083D01*
X26986080Y-1305933D02*
G01*
X27053621Y-1305933D01*
X27087911Y-1415036D02*
G01*
X27087911Y-1305933D01*
X27087911Y-1415036D02*
G01*
X27124281Y-1415036D01*
X27139866Y-1409842D01*
X27150258Y-1399451D01*
X27155452Y-1389059D01*
X27160649Y-1373471D01*
X27160649Y-1347495D01*
X27155452Y-1331909D01*
X27150258Y-1321518D01*
X27139866Y-1311127D01*
X27124281Y-1305933D01*
X27087911Y-1305933D01*
D10*
X32304596Y5789637D02*
G01*
X32275561Y5819706D01*
X32297326Y5857031D01*
X32318063Y5875690D02*
G01*
X32288002Y5875690D01*
X32236158Y5883988D01*
X32201942Y5853925D01*
X32244456Y5826968D01*
X32244456Y5797928D01*
X32268307Y5782376D01*
X32304596Y5789637D01*
X32244456Y5826968D02*
G01*
X32275561Y5819706D01*
X32244456Y5826968D02*
G01*
X32288002Y5875690D01*
X32391957Y5933300D02*
G01*
X32389439Y5950513D01*
X32389749Y5951115D02*
G01*
X32404311Y5959561D01*
X32389439Y5950513D02*
G01*
X32350212Y5887095D01*
X32297326Y5857031D02*
G01*
X32325332Y5857031D01*
X32355396Y5838372D01*
X32355396Y5838372D02*
G01*
X32352282Y5816600D01*
X32334659Y5789637D01*
X32304596Y5789637D01*
X32325332Y5857031D02*
G01*
X32318063Y5875690D01*
X32404311Y5959561D02*
G01*
X32437758Y5958588D01*
X32479406Y5947897D01*
X32525332Y5929411D01*
X32568852Y5905822D01*
X32606183Y5878301D01*
X32626670Y5853564D01*
X32627925Y5837590D01*
X32613363Y5829145D01*
X32579914Y5830117D01*
X32538281Y5840808D01*
X32492355Y5859294D01*
X32448822Y5882896D01*
X32414034Y5908154D01*
X32391957Y5933300D01*
X32636134Y6072484D02*
G01*
X32609942Y6002530D01*
X32672251Y6043729D01*
X32597625Y6047023D01*
X32656066Y6000495D01*
X32636134Y6072484D01*
X32296298Y5367660D02*
G01*
X32627216Y5836450D01*
X32290072Y4710323D02*
G01*
X32246526Y4710323D01*
X32220606Y4688550D01*
X32220606Y4623234D01*
X32248599Y4594212D01*
X32290072Y4594212D01*
D13*
X32434187Y4737280D02*
G01*
X32374060Y4737280D01*
D10*
X32437301Y4713442D02*
G01*
X32373018Y4713442D01*
X32437301Y4516450D02*
G01*
X32437301Y4713442D01*
X32373018Y4713442D02*
G01*
X32373018Y4668862D01*
X32389602Y4620120D02*
G01*
X32437301Y4620120D01*
X32333618Y4710323D02*
G01*
X32333618Y4528883D01*
X32290072Y4710323D02*
G01*
X32290072Y4528883D01*
X32106567Y4699955D02*
G01*
X32194685Y4699955D01*
X32194685Y4541329D01*
X32107596Y4541329D01*
X32248599Y4594212D02*
G01*
X32224761Y4527847D01*
X32018437Y4660564D02*
G01*
X32018437Y4680259D01*
X32035018Y4693734D01*
X32066123Y4693734D01*
X32082717Y4678182D01*
X32082717Y4561029D01*
X32063009Y4539251D01*
X32042272Y4539251D01*
X32015323Y4557923D01*
X32015323Y4622198D01*
X32042272Y4622198D01*
X32148028Y4619091D02*
G01*
X32194685Y4619091D01*
X31975920Y4675075D02*
G01*
X31975920Y4604567D01*
X31962453Y4586945D01*
X31937561Y4586945D01*
X31919936Y4602497D01*
X31919936Y4676117D01*
X31934447Y4690628D01*
X31958297Y4690628D01*
X31975920Y4675075D01*
X31762339Y4678182D02*
G01*
X31762339Y4607681D01*
X31748872Y4590064D01*
X31723980Y4590064D01*
X31706355Y4605616D01*
X31706355Y4679231D01*
X31720866Y4693734D01*
X31744716Y4693734D01*
X31762339Y4678182D01*
X31797586Y4698918D02*
G01*
X31884688Y4698918D01*
X31840103Y4539251D02*
G01*
X31840103Y4694770D01*
X31774780Y4546513D02*
G01*
X31691844Y4546513D01*
X31985259Y4544435D02*
G01*
X31913723Y4544435D01*
X31603713Y5228722D02*
G01*
X31603713Y4407588D01*
X32538913Y4407588D01*
X32538913Y5228722D01*
X32415523Y5228722D01*
X32207535Y5337596D02*
G01*
X32268020Y5330794D01*
X32283859Y5313740D01*
X32327552Y5245775D01*
X32351240Y5179621D01*
X32415523Y5228722D01*
X32402053Y5263982D01*
X32325332Y5346923D01*
X32296298Y5367660D01*
X32267375Y5331482D01*
X32416564Y4990269D02*
G01*
X32347098Y4910434D01*
X32004955Y4910434D01*
X32000812Y5291968D01*
X32019466Y5335518D01*
X32045013Y5335518D01*
X32416564Y4990269D02*
G01*
X32415523Y5228722D01*
X32334659Y4910434D02*
G01*
X32351240Y5179621D01*
X32445596Y5002702D02*
G01*
X32445596Y4921839D01*
X32438342Y4903167D01*
X32391908Y4855194D01*
X32343986Y4841999D01*
X31986288Y4841999D01*
X31959339Y4852367D01*
X31951040Y4863777D01*
X31955270Y4899713D01*
X31980075Y4876210D02*
G01*
X32333618Y4876210D01*
X32365764Y4881394D01*
X32406196Y4915618D01*
X32442485Y4966418D01*
X32445596Y5002702D01*
X32416440Y5019271D01*
X31963481Y4958128D02*
G01*
X32003888Y5008928D01*
X31986786Y5022527D01*
X31897129Y5038991D02*
G01*
X31856697Y5072174D01*
X31986786Y5022527D02*
G01*
X31955183Y5022527D01*
X31897129Y5038991D01*
X31856697Y5072174D02*
G01*
X31839060Y5100159D01*
X31839060Y5128158D01*
X32264151Y5754390D01*
X31603713Y5228722D02*
G01*
X31907335Y5228722D01*
D13*
X32463221Y4708258D02*
G01*
X32463221Y4654339D01*
X32463221Y4824382D02*
G01*
X32463221Y4767348D01*
X32492256Y4737280D02*
G01*
X32547196Y4737280D01*
D10*
X26855445Y4575594D02*
G01*
X26601445Y4575594D01*
X26855445Y3263592D02*
G01*
X26855445Y4575594D01*
X26601445Y3263592D02*
G01*
X26601445Y4575594D01*
X26855445Y3540947D02*
G01*
X26601445Y3540947D01*
X26855445Y3263592D02*
G01*
X26601445Y3263592D01*
X30919536Y629292D02*
G01*
X31173536Y629292D01*
X31173536Y2703296D02*
G01*
X31173536Y629292D01*
X30919536Y2703296D02*
G01*
X30919536Y629292D01*
X30919536Y2425943D02*
G01*
X31173536Y2425943D01*
X30919536Y2703296D02*
G01*
X31173536Y2703296D01*
X29141541Y3064088D02*
G01*
X29395541Y3064088D01*
X29395541Y5138092D02*
G01*
X29395541Y3064088D01*
X29141541Y5138092D02*
G01*
X29141541Y3064088D01*
X29141541Y4860739D02*
G01*
X29395541Y4860739D01*
X29141541Y5138092D02*
G01*
X29395541Y5138092D01*
X31173437Y4989395D02*
G01*
X30919437Y4989395D01*
X30919437Y2915391D02*
G01*
X30919437Y4989395D01*
X31173437Y2915391D02*
G01*
X31173437Y4989395D01*
X31173437Y3192744D02*
G01*
X30919437Y3192744D01*
X31173437Y2915391D02*
G01*
X30919437Y2915391D01*
X30663339Y5140794D02*
G01*
X30409339Y5140794D01*
X30409339Y3066790D02*
G01*
X30409339Y5140794D01*
X30663339Y3066790D02*
G01*
X30663339Y5140794D01*
X30663339Y3344143D02*
G01*
X30409339Y3344143D01*
X30663339Y3066790D02*
G01*
X30409339Y3066790D01*
X26347648Y2195400D02*
G01*
X26093648Y2195400D01*
X26093648Y121396D02*
G01*
X26093648Y2195400D01*
X26347648Y121396D02*
G01*
X26347648Y2195400D01*
X26347648Y398749D02*
G01*
X26093648Y398749D01*
X26347648Y121396D02*
G01*
X26093648Y121396D01*
X26347648Y4481695D02*
G01*
X26093648Y4481695D01*
X26093648Y2407691D02*
G01*
X26093648Y4481695D01*
X26347648Y2407691D02*
G01*
X26347648Y4481695D01*
X26347648Y2685044D02*
G01*
X26093648Y2685044D01*
X26347648Y2407691D02*
G01*
X26093648Y2407691D01*
X28885342Y4632391D02*
G01*
X28631342Y4632391D01*
X28885342Y3574392D02*
G01*
X28885342Y4632391D01*
X28885342Y3851739D02*
G01*
X28631342Y3851739D01*
X28631342Y3574392D02*
G01*
X28631342Y4632391D01*
X28885342Y3574392D02*
G01*
X28631342Y3574392D01*
D35*
X32216336Y2941292D02*
G01*
X32216336Y2750792D01*
X31962336Y2750792D01*
X31962336Y4274792D01*
X32216336Y4274792D01*
D40*
X32216336Y4274792D02*
G01*
X32216336Y2941292D01*
D10*
X31174938Y5373989D02*
G01*
X30920938Y5373989D01*
X30920938Y5100881D02*
G01*
X30920938Y7686286D01*
X31174938Y5100881D02*
G01*
X30920938Y5100881D01*
X31174938Y7680883D02*
G01*
X31174938Y5100881D01*
X31174938Y7680883D02*
G01*
X30920938Y7680883D01*
X30178740Y2325395D02*
G01*
X30178740Y2579395D01*
X29120739Y2325395D02*
G01*
X30178740Y2325395D01*
X29120739Y2579395D02*
G01*
X30178740Y2579395D01*
X29398092Y2325395D02*
G01*
X29398092Y2579395D01*
X29120739Y2325395D02*
G01*
X29120739Y2579395D01*
X26600343Y2071895D02*
G01*
X26600343Y1817895D01*
X30664343Y1817895D02*
G01*
X26600343Y1817895D01*
X30664343Y2071895D02*
G01*
X30664343Y1817895D01*
X30664343Y2071895D02*
G01*
X26600343Y2071895D01*
X26602842Y803099D02*
G01*
X26602842Y549099D01*
X30666842Y803099D02*
G01*
X30666842Y549099D01*
X30666842Y549099D02*
G01*
X26602842Y549099D01*
X30666842Y803099D02*
G01*
X26602842Y803099D01*
X31173442Y142400D02*
G01*
X26601442Y142400D01*
X26601442Y-365599D01*
X31173442Y-365599D01*
X31173442Y142400D01*
X31173442Y-111599D02*
G01*
X30919442Y-111599D01*
X30919442Y-365599D01*
X31682837Y7420686D02*
G01*
X31428837Y7420686D01*
X31682837Y6362684D02*
G01*
X31682837Y7420686D01*
X31682837Y6640037D02*
G01*
X31428837Y6640037D01*
X31428837Y6362684D02*
G01*
X31428837Y7420686D01*
X31682837Y6362684D02*
G01*
X31428837Y6362684D01*
X26347648Y6764492D02*
G01*
X26093648Y6764492D01*
X26093648Y4690488D02*
G01*
X26093648Y6764492D01*
X26347648Y4967841D02*
G01*
X26093648Y4967841D01*
X26347648Y4690488D02*
G01*
X26347648Y6764492D01*
X26347648Y4690488D02*
G01*
X26093648Y4690488D01*
X28146044Y2315387D02*
G01*
X28146044Y2569387D01*
X27088043Y2569387D02*
G01*
X28146044Y2569387D01*
X27365396Y2315387D02*
G01*
X27365396Y2569387D01*
X27088043Y2315387D02*
G01*
X28146044Y2315387D01*
X27088043Y2315387D02*
G01*
X27088043Y2569387D01*
X26576345Y-664697D02*
G01*
X27634346Y-664697D01*
X26853697Y-918697D02*
G01*
X26853697Y-664697D01*
X26576345Y-918697D02*
G01*
X27634346Y-918697D01*
X27634346Y-918697D02*
G01*
X27634346Y-664697D01*
X26576345Y-918697D02*
G01*
X26576345Y-664697D01*
G75*
G01*
X31963487Y4958123D02*
G03*
X31980076Y4876216I31286J-36297D01*
G75*
G01
X31059145Y-429082D02*
G03X31059145Y-429082I-12700J0D01*
D13*
G75*
G01
X32510933Y4737278D02*
G03X32510933Y4737278I-48743J0D01*
G75*
G01
X32473011Y4737278D02*
G03X32473011Y4737278I-10820J0D01*
G75*
G01
X32530415Y4737278D02*
G03X32530415Y4737278I-68224J0D01*
D10*
G75*
G01
X32207556Y5337607D02*
G03X32207556Y5337607I-81280J0D01*
M02*
