M48
METRIC,LZ,000.000
;FILE_FORMAT=3:3
;TYPE=PLATED
;Layer: Drill PTH
;EasyEDA v6.4.17, 2021-03-30T11:05:58--3:00
;e54f85b4d2414f64907e96423a573e64,e32968b322094deeae1279e20ae9dd51,10
;Gerber Generator version 0.2
;Holesize 1 = 0.800 mm
T01C0.800
;Holesize 2 = 0.901 mm
T02C0.901
;Holesize 3 = 0.915 mm
T03C0.915
;Holesize 4 = 1.000 mm
T04C1.000
;Holesize 5 = 1.050 mm
T05C1.050
;Holesize 6 = 1.101 mm
T06C1.101
;Holesize 7 = 1.400 mm
T07C1.400
;Holesize 8 = 1.600 mm
T08C1.600
%
G05
G90
T01
X320893Y036398
X320893Y033858
T02
X298109Y059873
X293109Y059873
X310465Y020473
X310465Y017933
X315637Y007767
X315637Y005227
T03
X267273Y019449
X305373Y019449
X302833Y019449
X300293Y019449
X297753Y019449
X295213Y019449
X292673Y019449
X290133Y019449
X287593Y019449
X285053Y019449
X282513Y019449
X279973Y019449
X277433Y019449
X274893Y019449
X272353Y019449
X269813Y019449
X267298Y006761
X305398Y006761
X302858Y006761
X300318Y006761
X297778Y006761
X295238Y006761
X292698Y006761
X290158Y006761
X287618Y006761
X285078Y006761
X282538Y006761
X279998Y006761
X277458Y006761
X274918Y006761
X272378Y006761
X269838Y006761
T04
X295840Y-007188
X300340Y-007089
X309062Y-007085
X313931Y-007213
X263807Y072401
X271026Y072534
X257012Y039783
X256984Y035094
X257012Y030987
X282295Y054988
X285796Y054988
X267284Y044276
X267284Y034116
X267284Y036656
X267284Y039196
X267284Y041736
X310465Y007773
X310465Y025553
X310465Y023013
X310465Y015393
X310465Y012853
X310465Y010313
X292685Y032121
X292685Y049901
X292685Y047361
X292685Y044821
X292685Y042281
X292685Y039741
X292685Y037201
X292685Y034661
X310464Y048414
X310464Y030634
X310464Y033174
X310464Y035714
X310464Y038254
X310464Y040794
X310464Y043334
X310464Y045874
X305363Y049928
X305363Y032148
X305363Y034688
X305363Y037228
X305363Y039768
X305363Y042308
X305363Y044848
X305363Y047388
X262206Y020474
X262206Y002694
X262206Y005234
X262206Y007774
X262206Y010314
X262206Y012854
X262206Y015394
X262206Y017934
X262206Y043337
X262206Y025557
X262206Y028097
X262206Y030637
X262206Y033177
X262206Y035717
X262206Y038257
X262206Y040797
X320893Y028778
X320893Y041478
X320893Y038938
X320893Y031318
X267323Y014688
X267323Y011188
X287836Y014624
X287836Y011124
X275142Y054850
X271641Y054850
X300589Y047268
X297089Y047268
X262206Y066165
X262206Y048385
X262206Y050925
X262206Y053465
X262206Y056005
X262206Y058545
X262206Y061085
X262206Y063625
T05
X267285Y000154
X310464Y-002386
X310464Y000154
X307924Y-002386
X307924Y000154
X305384Y-002386
X305384Y000154
X302844Y-002386
X302844Y000154
X300304Y-002386
X300304Y000154
X297764Y-002386
X297764Y000154
X295224Y-002386
X295224Y000154
X292684Y-002386
X292684Y000154
X290144Y-002386
X290144Y000154
X287604Y-002386
X287604Y000154
X285064Y-002386
X285064Y000154
X282524Y-002386
X282524Y000154
X279984Y-002386
X279984Y000154
X277444Y-002386
X277444Y000154
X274904Y-002386
X274904Y000154
X272364Y-002386
X272364Y000154
X269824Y-002386
X269824Y000154
X267284Y-002386
T06
X287583Y044844
X287583Y037224
X287583Y039764
X287583Y042304
X318177Y005227
X315637Y012847
X318177Y012847
X315637Y010307
X318177Y010307
X318177Y007767
X310479Y052479
X310479Y075339
X310479Y072799
X310479Y070259
X310479Y067719
X310479Y065179
X310479Y062639
X310479Y060099
X310479Y057559
X310479Y055019
X300307Y024524
X292687Y024524
X295227Y024524
X297767Y024524
X315558Y072727
X315558Y065107
X315558Y067647
X315558Y070187
X279980Y024424
X272360Y024424
X274900Y024424
X277440Y024424
X274863Y-007917
X267243Y-007917
X269783Y-007917
X272323Y-007917
T07
X282532Y065241
X279992Y065241
X277452Y065241
T08
X297935Y067856
X292855Y067856
M30
