<!DOCTYPE svg PUBLIC "-//W3C//DTD SVG 20010904//EN" "http://www.w3.org/TR/2001/REC-SVG-20010904/DTD/svg10.dtd">
<svg version="1.0" xmlns="http://www.w3.org/2000/svg" width="902px" height="1200px" viewBox="0 0 9020 12000" preserveAspectRatio="xMidYMid meet">
<g id="layer101" fill="#070707" stroke="none">
 <path d="M0 6000 l0 -6000 4510 0 4510 0 0 6000 0 6000 -4510 0 -4510 0 0 -6000z"/>
 </g>
<g id="layer102" fill="#fefefe" stroke="none">
 <path d="M0 6000 l0 -6000 4510 0 4510 0 0 6000 0 6000 -4510 0 -4510 0 0 -6000z m7853 5012 l57 -56 0 -2275 0 -2275 -52 -53 -52 -53 -801 0 -802 0 -123 -182 c-799 -1179 -1861 -2710 -1950 -2811 -31 -34 -39 -39 -65 -33 -17 4 -41 15 -55 26 l-25 19 79 115 c43 64 144 212 225 329 950 1370 1063 1533 1548 2250 446 659 559 830 594 900 l31 60 -19 41 c-24 55 -159 195 -258 269 -146 108 -324 180 -481 194 -70 6 -71 5 -78 -20 -3 -14 1 -137 9 -274 32 -535 36 -650 33 -983 l-3 -345 -28 -56 c-56 -115 -121 -179 -182 -179 -58 0 -92 -25 -124 -93 -77 -161 -290 -287 -486 -287 -117 0 -279 57 -367 130 -47 39 -103 124 -132 202 -26 68 -23 67 -131 88 -130 26 -119 29 -167 -39 -24 -34 -75 -105 -114 -159 -95 -131 -860 -1218 -959 -1362 -43 -63 -109 -155 -145 -205 -37 -49 -156 -218 -265 -375 -109 -157 -211 -301 -226 -320 -16 -19 -29 -38 -29 -43 0 -4 -21 -36 -48 -70 -53 -69 -96 -137 -91 -141 2 -2 45 -11 94 -20 187 -36 379 -106 591 -216 152 -78 251 -142 382 -247 52 -41 95 -73 96 -71 1 1 28 39 58 83 75 107 100 129 135 122 82 -16 102 -41 62 -75 -11 -9 -28 -30 -36 -47 -9 -16 -44 -68 -78 -115 -34 -47 -74 -109 -89 -137 -35 -70 -81 -94 -191 -100 -182 -11 -494 89 -784 250 -280 157 -471 332 -471 433 0 15 13 51 29 79 17 29 234 345 484 701 249 357 616 883 814 1169 198 286 396 572 441 635 l81 115 -57 50 c-253 220 -422 427 -538 658 l-44 87 -312 0 -312 0 -53 52 -53 52 0 2276 0 2276 50 56 c43 49 57 58 93 61 23 3 1210 3 2637 0 l2595 -4 58 -57z m-3897 -7851 c166 -13 234 -62 234 -165 0 -41 5 -52 43 -93 23 -25 68 -66 101 -91 55 -42 58 -47 53 -79 -12 -74 -124 -183 -187 -183 -12 0 -40 11 -63 24 -23 14 -68 29 -100 35 -54 10 -62 9 -105 -14 -28 -15 -63 -25 -87 -25 -82 1 -181 71 -187 133 -3 30 -9 34 -85 67 -45 19 -84 38 -87 41 -12 12 15 151 38 198 56 110 174 177 291 165 22 -2 86 -8 141 -13z m-2557 -1470 c31 -16 70 -37 86 -46 30 -18 32 -17 70 7 60 37 140 68 175 68 45 0 55 -33 41 -141 -6 -48 -11 -93 -11 -102 0 -8 38 -57 84 -107 68 -74 84 -97 84 -121 -1 -41 -38 -58 -145 -69 -47 -5 -95 -16 -107 -24 -13 -8 -39 -45 -59 -83 -56 -107 -87 -130 -137 -103 -10 5 -38 45 -63 87 -25 43 -54 86 -65 96 -12 11 -48 22 -86 28 -94 13 -176 51 -176 81 0 5 41 51 91 103 l91 94 -11 64 c-36 205 -6 242 138 168z"/>
 <path d="M2663 10961 c-67 -3 -125 -10 -130 -14 -4 -5 -9 -387 -10 -850 -2 -804 -2 -840 15 -798 25 63 99 148 162 187 31 19 88 42 128 52 l72 17 0 38 c0 31 3 38 18 35 12 -2 18 -14 20 -41 2 -23 8 -37 17 -37 12 0 14 72 17 430 2 310 6 432 15 441 19 19 112 14 142 -8 l26 -20 5 -231 c3 -160 9 -235 17 -243 7 -7 46 -14 87 -17 l76 -5 0 -78 c0 -98 -12 -109 -112 -109 l-68 0 0 -117 0 -117 42 -43 c36 -37 48 -43 84 -43 l42 0 7 85 7 85 84 0 84 0 0 -180 0 -180 -90 0 c-82 0 -90 -2 -90 -19 0 -16 8 -20 37 -23 27 -2 39 -8 41 -20 3 -15 -4 -18 -35 -18 l-39 0 -12 -58 c-27 -131 -111 -239 -228 -294 -36 -17 -85 -33 -109 -36 -43 -4 -44 -5 -47 -46 -4 -55 -31 -57 -38 -2 -5 39 -5 39 -66 52 -34 7 -81 22 -104 34 -66 34 -146 115 -180 184 l-31 61 3 -1292 c2 -1043 6 -1295 16 -1305 10 -10 80 -14 296 -16 l283 -3 -14 63 c-26 115 -28 432 -4 708 12 135 23 263 26 286 7 64 -2 84 -39 84 -17 0 -45 9 -63 20 -59 36 -66 57 -74 229 -4 86 -10 182 -14 213 -7 50 -4 64 18 110 35 70 136 195 234 289 68 65 92 81 162 108 199 77 352 90 1011 91 669 0 1222 -23 1355 -56 67 -16 162 -76 178 -111 8 -19 5 -36 -17 -89 l-27 -66 36 -52 c64 -93 74 -198 29 -289 -55 -108 -143 -218 -233 -291 -18 -15 -32 -28 -30 -30 2 -2 50 -10 106 -19 199 -33 369 -104 527 -220 264 -195 366 -353 312 -482 -8 -19 -85 -137 -170 -264 -86 -126 -156 -232 -156 -235 0 -3 342 -5 759 -5 681 -1 760 1 765 15 3 9 6 1036 6 2283 l0 2268 -592 6 c-698 8 -4368 6 -4545 -2z m1073 -625 c18 -14 19 -33 22 -468 2 -249 1 -476 -3 -504 -9 -76 -22 -89 -89 -89 -98 0 -91 -40 -91 541 0 489 1 506 19 520 26 18 116 18 142 0z m207 5 c30 -12 34 -27 46 -195 10 -136 21 -164 58 -152 40 13 103 150 118 256 8 56 24 78 66 90 58 17 107 13 119 -11 21 -39 -18 -246 -63 -336 l-25 -48 25 -30 c62 -77 68 -98 67 -255 -1 -80 -4 -170 -8 -200 -7 -53 -10 -57 -71 -105 -35 -27 -80 -55 -99 -62 -39 -14 -128 -19 -268 -15 l-98 2 0 524 0 524 38 10 c50 13 66 14 95 3z m969 -1 c32 -9 38 -16 44 -46 8 -41 -1 -103 -16 -118 -6 -6 -73 -13 -159 -16 -100 -4 -154 -10 -165 -19 -20 -17 -30 -88 -22 -154 9 -70 15 -77 72 -85 38 -6 51 -13 61 -32 16 -31 17 -84 2 -113 -16 -30 -12 -28 -71 -47 l-53 -17 -9 -62 c-5 -37 -5 -82 0 -109 l9 -47 55 -7 c30 -3 107 -6 171 -7 l117 -1 6 -31 c11 -55 7 -96 -12 -120 -17 -20 -32 -23 -151 -32 -151 -11 -331 -2 -358 18 -17 13 -18 44 -21 509 -2 326 1 503 8 515 5 11 22 22 37 24 60 9 420 6 455 -3z m464 -11 c66 -25 134 -83 161 -137 16 -32 18 -63 18 -249 0 -116 -4 -215 -8 -220 -5 -4 -57 -10 -117 -11 -99 -3 -110 -2 -129 17 -16 16 -21 33 -21 79 0 65 3 69 48 101 l32 22 0 90 c0 82 -2 92 -25 114 -29 30 -73 33 -105 7 -20 -16 -24 -33 -32 -128 -10 -118 -1 -475 13 -511 9 -25 62 -39 104 -29 30 8 43 37 52 117 l6 59 88 0 89 0 0 -104 c0 -99 -1 -106 -27 -138 -72 -87 -131 -119 -228 -126 -89 -6 -156 21 -214 83 -64 70 -66 86 -64 480 l3 349 52 54 c99 100 189 124 304 81z m756 -7 c33 -33 33 -116 -1 -143 -21 -18 -42 -19 -266 -19 l-242 0 -6 48 c-8 68 4 114 33 130 19 10 79 12 242 10 211 -3 218 -4 240 -26z m419 10 c4 -4 12 -196 19 -427 7 -231 14 -423 17 -427 2 -5 30 -8 61 -8 103 0 102 1 102 -101 l0 -89 -264 0 -264 0 -7 69 c-10 105 -4 111 123 126 l52 7 1 231 c0 260 13 573 24 600 4 10 17 23 29 28 22 9 97 3 107 -9z m780 -9 c21 -20 22 -27 13 -90 l-9 -68 -252 -3 -253 -2 0 89 c0 62 4 91 13 95 6 3 114 4 239 3 219 -2 228 -3 249 -24z m-1324 -258 c50 -21 118 -90 131 -132 6 -21 14 -139 17 -263 l7 -225 -58 -59 c-74 -76 -138 -106 -224 -106 -76 0 -129 21 -188 75 -69 62 -77 98 -77 340 0 243 8 274 85 335 72 57 214 73 307 35z m1198 1 c19 -8 54 -33 79 -56 59 -54 66 -90 66 -329 0 -262 -17 -308 -140 -372 -63 -33 -196 -34 -255 -2 -53 28 -89 68 -117 128 -22 47 -23 63 -23 245 0 134 4 209 13 240 19 62 104 145 163 159 54 13 169 6 214 -13z m-2958 -1302 c-3 -3 -12 -4 -19 -1 -8 3 -5 6 6 6 11 1 17 -2 13 -5z"/>
 <path d="M3999 9773 c-11 -27 -6 -174 8 -251 7 -42 39 -56 104 -47 l47 7 7 113 c11 172 -8 205 -117 205 -33 0 -40 -4 -49 -27z"/>
 <path d="M5821 9886 c-21 -25 -34 -147 -28 -265 4 -104 7 -117 27 -133 27 -22 59 -23 105 -4 45 19 50 40 50 219 l0 149 -28 24 c-32 28 -107 34 -126 10z"/>
 <path d="M7020 9874 c-6 -14 -10 -102 -10 -195 0 -156 2 -171 20 -189 25 -25 80 -26 109 -2 18 14 24 34 32 112 5 52 7 131 3 174 -8 100 -29 126 -99 126 -40 0 -47 -3 -55 -26z"/>
 <path d="M2805 9489 c-72 -23 -144 -74 -185 -130 -33 -47 -70 -138 -70 -174 0 -22 4 -25 38 -25 37 0 37 1 54 58 29 99 116 180 215 200 36 7 38 10 41 50 4 50 -2 51 -93 21z"/>
 <path d="M2942 9468 c4 -59 28 -63 28 -4 0 35 -4 46 -16 46 -12 0 -14 -9 -12 -42z"/>
 <path d="M3160 9400 c0 -5 5 -10 11 -10 5 0 7 5 4 10 -3 6 -8 10 -11 10 -2 0 -4 -4 -4 -10z"/>
 <path d="M2815 9361 c-69 -32 -121 -96 -140 -173 -6 -25 -5 -27 31 -30 27 -2 40 -8 42 -20 3 -15 -4 -18 -38 -18 l-42 0 7 -32 c21 -97 96 -172 193 -193 l32 -7 0 42 c0 34 3 41 18 38 12 -2 18 -15 20 -42 4 -41 9 -42 76 -16 64 24 145 128 146 187 0 18 -6 22 -37 25 -26 2 -38 8 -38 18 0 10 12 16 38 18 29 3 37 7 37 23 0 17 -8 19 -89 19 -103 0 -101 -3 -101 113 0 52 -3 67 -14 67 -10 0 -16 -13 -18 -37 -2 -26 -8 -38 -18 -38 -10 0 -16 12 -18 38 -4 44 -23 48 -87 18z m145 -181 c24 -24 25 -48 4 -78 -31 -44 -104 -20 -104 35 0 57 61 82 100 43z"/>
 <path d="M2907 9154 c-14 -14 -7 -35 11 -32 9 2 17 10 17 17 0 16 -18 25 -28 15z"/>
 <path d="M3200 9181 c0 -18 6 -21 46 -21 38 0 45 3 42 18 -2 12 -15 18 -46 20 -37 3 -42 1 -42 -17z"/>
 <path d="M2554 9073 c19 -142 157 -280 299 -299 l47 -7 0 41 c0 38 -2 40 -37 47 -111 20 -207 117 -228 228 -7 35 -9 37 -47 37 l-41 0 7 -47z"/>
 <path d="M3207 9113 c-4 -3 -7 -16 -7 -27 0 -41 -47 -122 -95 -164 -32 -28 -68 -49 -107 -60 -57 -17 -58 -17 -58 -54 0 -34 3 -38 25 -38 36 0 127 37 174 70 73 54 125 140 146 248 7 32 6 32 -33 32 -21 0 -42 -3 -45 -7z"/>
 <path d="M3650 8460 c-140 -18 -261 -63 -341 -126 -45 -37 -103 -103 -96 -110 3 -3 47 24 99 61 121 87 168 110 253 124 152 24 695 34 1278 22 587 -12 710 -19 809 -47 52 -15 61 -15 74 -2 34 34 -36 52 -271 68 -187 13 -1717 22 -1805 10z"/>
 <path d="M3765 8304 c-16 -2 -74 -9 -128 -15 -89 -10 -104 -15 -160 -52 -34 -23 -107 -86 -162 -142 -82 -82 -109 -116 -146 -190 -64 -123 -85 -190 -70 -222 13 -28 31 -22 31 10 0 40 48 125 100 179 28 29 67 76 86 104 19 28 74 89 122 136 88 84 88 85 151 91 88 10 1513 7 1741 -2 119 -5 195 -13 213 -21 49 -24 61 -60 64 -210 4 -156 8 -180 28 -180 34 0 139 174 155 258 11 62 -4 97 -66 150 -59 51 -136 77 -279 93 -96 10 -1611 22 -1680 13z"/>
 <path d="M3853 8093 l-71 -4 -7 -62 c-12 -113 -84 -678 -111 -877 -22 -157 -27 -236 -28 -405 -1 -195 1 -215 22 -275 46 -129 239 -414 370 -547 93 -95 251 -172 289 -142 8 7 28 40 45 73 38 76 133 170 213 213 96 50 167 67 280 67 171 -1 319 -67 410 -181 40 -51 92 -144 109 -195 16 -52 90 6 128 100 23 56 23 62 22 437 -1 258 -7 438 -18 560 -24 275 -35 506 -43 893 l-6 352 -766 -2 c-421 -1 -798 -4 -838 -5z"/>
 <path d="M3529 8003 c-108 -111 -218 -240 -229 -269 -9 -24 -19 -131 -40 -459 -6 -88 -16 -230 -21 -315 -13 -189 -8 -435 9 -452 10 -10 33 9 107 82 104 104 109 113 120 240 8 95 39 353 65 535 38 268 89 698 84 706 -10 16 -19 9 -95 -68z"/>
 <path d="M3425 6464 c-19 -20 -41 -51 -49 -68 -8 -17 -24 -37 -35 -44 -43 -25 -19 -91 95 -262 121 -184 307 -386 399 -436 40 -21 47 -17 101 61 l37 54 -69 74 c-126 135 -332 440 -389 576 -18 41 -37 77 -44 79 -6 2 -27 -13 -46 -34z"/>
 <path d="M4750 5992 c-113 -30 -207 -99 -246 -180 -11 -21 -20 -68 -22 -110 -4 -66 -1 -79 27 -136 58 -118 164 -186 302 -194 231 -13 414 128 413 317 -1 87 -29 145 -105 215 -100 93 -235 125 -369 88z"/>
 <path d="M2093 2830 c-27 -11 -27 -12 -7 -51 89 -172 555 -447 896 -529 103 -25 246 -27 254 -5 12 29 -6 63 -63 120 -123 122 -425 297 -658 381 -175 63 -377 103 -422 84z"/>
 <path d="M3725 3084 c-102 -53 -164 -196 -102 -236 20 -14 198 -88 210 -88 3 0 26 39 52 86 l46 86 -53 58 c-29 31 -61 69 -71 84 -21 30 -40 32 -82 10z"/>
 <path d="M3940 3066 c0 -36 118 -92 143 -67 16 16 -1 42 -44 63 -42 22 -99 24 -99 4z"/>
 <path d="M4055 2890 c-63 -26 -123 -147 -80 -164 16 -6 83 60 119 115 29 46 10 70 -39 49z"/>
 <path d="M4175 2778 c-44 -24 -72 -86 -46 -103 12 -7 81 77 81 99 0 19 -7 20 -35 4z"/>
 <path d="M3750 2680 c0 -14 41 -39 78 -46 46 -9 40 10 -11 35 -47 23 -67 26 -67 11z"/>
 </g>
</svg>